<svg xmlns="http://www.w3.org/2000/svg" xmlns:xlink="http://www.w3.org/1999/xlink" viewBox="0 0 80 80" version="1.1">
<g id="surface1">
<path style=" " d="M 40 7 C 21.785156 7 7 21.785156 7 40 C 7 58.214844 21.785156 73 40 73 C 58.214844 73 73 58.214844 73 40 C 73 21.785156 58.214844 7 40 7 Z M 40 9 C 57.132813 9 71 22.867188 71 40 C 71 57.132813 57.132813 71 40 71 C 22.867188 71 9 57.132813 9 40 C 9 22.867188 22.867188 9 40 9 Z M 40 12 C 39.449219 12 39 12.449219 39 13 C 39 13.550781 39.449219 14 40 14 C 40.550781 14 41 13.550781 41 13 C 41 12.449219 40.550781 12 40 12 Z M 45.292969 12.515625 C 44.804688 12.503906 44.382813 12.84375 44.285156 13.324219 C 44.179688 13.863281 44.53125 14.390625 45.074219 14.5 C 45.613281 14.605469 46.140625 14.253906 46.25 13.714844 C 46.355469 13.171875 46.003906 12.644531 45.464844 12.535156 C 45.40625 12.527344 45.351563 12.519531 45.292969 12.515625 Z M 34.738281 12.519531 C 34.671875 12.519531 34.605469 12.523438 34.539063 12.535156 C 33.996094 12.644531 33.644531 13.171875 33.753906 13.714844 C 33.804688 13.972656 33.957031 14.203125 34.179688 14.351563 C 34.398438 14.496094 34.667969 14.550781 34.929688 14.5 C 35.472656 14.390625 35.824219 13.867188 35.714844 13.324219 C 35.621094 12.859375 35.214844 12.523438 34.738281 12.519531 Z M 29.675781 14.054688 C 29.542969 14.054688 29.410156 14.078125 29.285156 14.128906 C 28.773438 14.34375 28.53125 14.925781 28.746094 15.4375 C 28.957031 15.949219 29.539063 16.191406 30.050781 15.980469 C 30.5625 15.765625 30.804688 15.183594 30.59375 14.671875 C 30.4375 14.300781 30.078125 14.058594 29.675781 14.054688 Z M 50.355469 14.054688 C 49.941406 14.046875 49.566406 14.289063 49.40625 14.671875 C 49.195313 15.183594 49.4375 15.765625 49.949219 15.980469 C 50.460938 16.191406 51.042969 15.949219 51.253906 15.4375 C 51.46875 14.925781 51.226563 14.34375 50.714844 14.128906 C 50.601563 14.082031 50.476563 14.058594 50.355469 14.054688 Z M 25.011719 16.546875 C 24.808594 16.546875 24.609375 16.605469 24.441406 16.71875 C 23.984375 17.023438 23.859375 17.644531 24.167969 18.105469 C 24.472656 18.5625 25.09375 18.6875 25.554688 18.378906 C 26.015625 18.074219 26.136719 17.453125 25.832031 16.996094 C 25.648438 16.71875 25.339844 16.550781 25.011719 16.546875 Z M 55.015625 16.546875 C 54.675781 16.542969 54.355469 16.710938 54.167969 16.996094 C 53.859375 17.453125 53.984375 18.074219 54.441406 18.378906 C 54.902344 18.6875 55.523438 18.5625 55.828125 18.105469 C 55.976563 17.886719 56.03125 17.613281 55.980469 17.355469 C 55.929688 17.09375 55.777344 16.863281 55.554688 16.71875 C 55.394531 16.609375 55.210938 16.550781 55.015625 16.546875 Z M 20.921875 19.90625 C 20.652344 19.90625 20.390625 20.011719 20.203125 20.203125 C 19.8125 20.589844 19.8125 21.226563 20.203125 21.613281 C 20.589844 22.003906 21.226563 22.003906 21.613281 21.613281 C 22.003906 21.226563 22.003906 20.589844 21.613281 20.203125 C 21.429688 20.015625 21.183594 19.910156 20.921875 19.90625 Z M 59.105469 19.90625 C 58.835938 19.90625 58.574219 20.011719 58.386719 20.203125 C 57.996094 20.589844 57.996094 21.226563 58.386719 21.613281 C 58.773438 22.003906 59.410156 22.003906 59.796875 21.613281 C 60.1875 21.226563 60.1875 20.589844 59.796875 20.203125 C 59.613281 20.015625 59.367188 19.910156 59.105469 19.90625 Z M 62.460938 24 C 62.257813 23.996094 62.0625 24.054688 61.894531 24.167969 C 61.4375 24.472656 61.3125 25.09375 61.621094 25.550781 C 61.925781 26.011719 62.546875 26.136719 63.003906 25.828125 C 63.464844 25.519531 63.589844 24.902344 63.28125 24.441406 C 63.097656 24.167969 62.789063 24 62.460938 24 Z M 17.566406 24 C 17.226563 23.992188 16.90625 24.160156 16.71875 24.441406 C 16.414063 24.902344 16.535156 25.523438 16.996094 25.828125 C 17.457031 26.136719 18.074219 26.011719 18.382813 25.554688 C 18.6875 25.09375 18.566406 24.472656 18.105469 24.167969 C 17.945313 24.0625 17.761719 24.003906 17.566406 24 Z M 26 26 C 25.449219 26 25 26.449219 25 27 C 25 27.550781 25.449219 28 26 28 C 26.550781 28 27 27.550781 27 27 C 27 26.449219 26.550781 26 26 26 Z M 54 26 C 53.449219 26 53 26.449219 53 27 C 53 27.550781 53.449219 28 54 28 C 54.550781 28 55 27.550781 55 27 C 55 26.449219 54.550781 26 54 26 Z M 29 29 C 28.449219 29 28 29.449219 28 30 C 28 30.550781 28.449219 31 29 31 C 29.550781 31 30 30.550781 30 30 C 30 29.449219 29.550781 29 29 29 Z M 51 29 C 50.449219 29 50 29.449219 50 30 C 50 30.550781 50.449219 31 51 31 C 51.550781 31 52 30.550781 52 30 C 52 29.449219 51.550781 29 51 29 Z M 23.71875 30.585938 L 23.011719 31.292969 C 20.339844 33.960938 20.339844 38.320313 23.011719 40.988281 C 25.679688 43.660156 30.039063 43.660156 32.707031 40.988281 L 33.414063 40.28125 Z M 56.28125 30.585938 L 46.585938 40.28125 L 47.292969 40.988281 C 49.960938 43.660156 54.320313 43.660156 56.988281 40.988281 C 59.660156 38.320313 59.660156 33.960938 56.988281 31.292969 Z M 32 32 C 31.449219 32 31 32.449219 31 33 C 31 33.550781 31.449219 34 32 34 C 32.550781 34 33 33.550781 33 33 C 33 32.449219 32.550781 32 32 32 Z M 48 32 C 47.449219 32 47 32.449219 47 33 C 47 33.550781 47.449219 34 48 34 C 48.550781 34 49 33.550781 49 33 C 49 32.449219 48.550781 32 48 32 Z M 23.859375 33.558594 L 30.441406 40.140625 C 28.558594 41.359375 26.078125 41.230469 24.421875 39.578125 C 22.769531 37.921875 22.640625 35.441406 23.859375 33.558594 Z M 56.140625 33.558594 C 57.359375 35.441406 57.230469 37.921875 55.578125 39.578125 C 53.921875 41.230469 51.441406 41.359375 49.558594 40.140625 Z M 35 35 C 34.449219 35 34 35.449219 34 36 C 34 36.550781 34.449219 37 35 37 C 35.550781 37 36 36.550781 36 36 C 36 35.449219 35.550781 35 35 35 Z M 45 35 C 44.449219 35 44 35.449219 44 36 C 44 36.550781 44.449219 37 45 37 C 45.550781 37 46 36.550781 46 36 C 46 35.449219 45.550781 35 45 35 Z M 27 38 C 26.449219 38 26 38.449219 26 39 C 26 39.550781 26.449219 40 27 40 C 27.550781 40 28 39.550781 28 39 C 28 38.449219 27.550781 38 27 38 Z M 53 38 C 52.449219 38 52 38.449219 52 39 C 52 39.550781 52.449219 40 53 40 C 53.550781 40 54 39.550781 54 39 C 54 38.449219 53.550781 38 53 38 Z M 21.628906 49 L 22.105469 50.332031 C 24.714844 57.710938 31.738281 63 40 63 C 48.261719 63 55.285156 57.710938 57.894531 50.332031 L 58.371094 49 Z M 24.703125 51 L 31 51 C 31 51.550781 31.449219 52 32 52 C 32.550781 52 33 51.550781 33 51 L 47 51 C 47 51.550781 47.449219 52 48 52 C 48.550781 52 49 51.550781 49 51 L 55.296875 51 C 53.886719 54.066406 51.632813 56.65625 48.824219 58.4375 C 48.636719 58.164063 48.328125 58 48 58 C 47.449219 58 47 58.449219 47 59 C 47 59.140625 47.03125 59.277344 47.085938 59.40625 C 44.945313 60.425781 42.550781 61 40 61 C 40.550781 61 41 60.550781 41 60 C 41 59.449219 40.550781 59 40 59 C 39.449219 59 39 59.449219 39 60 C 39 60.523438 39.40625 60.960938 39.929688 61 C 37.40625 60.988281 35.035156 60.414063 32.914063 59.40625 C 32.96875 59.277344 33 59.140625 33 59 C 33 58.449219 32.550781 58 32 58 C 31.667969 58 31.359375 58.164063 31.171875 58.4375 C 28.363281 56.65625 26.113281 54.0625 24.703125 51 Z M 40 51 C 39.449219 51 39 51.449219 39 52 C 39 52.550781 39.449219 53 40 53 C 40.550781 53 41 52.550781 41 52 C 41 51.449219 40.550781 51 40 51 Z M 32 54 C 31.449219 54 31 54.449219 31 55 C 31 55.550781 31.449219 56 32 56 C 32.550781 56 33 55.550781 33 55 C 33 54.449219 32.550781 54 32 54 Z M 48 54 C 47.449219 54 47 54.449219 47 55 C 47 55.550781 47.449219 56 48 56 C 48.550781 56 49 55.550781 49 55 C 49 54.449219 48.550781 54 48 54 Z M 40 55 C 39.449219 55 39 55.449219 39 56 C 39 56.550781 39.449219 57 40 57 C 40.550781 57 41 56.550781 41 56 C 41 55.449219 40.550781 55 40 55 Z "></path>
</g>
</svg>