<!--?xml version="1.0" encoding="UTF-8"?-->
<svg xmlns="http://www.w3.org/2000/svg" xmlns:xlink="http://www.w3.org/1999/xlink" viewBox="0 0 64 64" version="1.1">
<g id="surface1">
<path style=" " d="M 7 6 C 5.347656 6 4 7.347656 4 9 L 4 55 C 4 56.652344 5.347656 58 7 58 L 57 58 C 58.652344 58 60 56.652344 60 55 L 60 9 C 60 7.347656 58.652344 6 57 6 Z M 7 8 L 57 8 C 57.550781 8 58 8.449219 58 9 L 58 55 C 58 55.550781 57.550781 56 57 56 L 7 56 C 6.449219 56 6 55.550781 6 55 L 6 9 C 6 8.449219 6.449219 8 7 8 Z M 39.921875 15.25 C 39.152344 15.25 38.382813 15.546875 37.796875 16.128906 L 22.535156 31.394531 C 22.15625 31.773438 21.949219 32.273438 21.949219 32.808594 L 21.949219 37.050781 C 21.949219 38.152344 22.847656 39.050781 23.949219 39.050781 L 28.191406 39.050781 C 28.726563 39.050781 29.230469 38.84375 29.609375 38.464844 L 40.628906 27.441406 C 41.019531 27.050781 41.019531 26.421875 40.628906 26.03125 C 40.238281 25.636719 39.605469 25.636719 39.214844 26.03125 L 28.191406 37.050781 L 23.949219 37.050781 L 23.949219 32.808594 L 39.214844 17.546875 C 39.601563 17.15625 40.238281 17.152344 40.628906 17.546875 L 46.285156 23.203125 C 46.472656 23.390625 46.578125 23.640625 46.578125 23.90625 C 46.578125 24.175781 46.472656 24.425781 46.285156 24.613281 L 29.191406 41.707031 C 29.003906 41.894531 28.75 42 28.484375 42 L 20 42 C 19.449219 42 19 41.550781 19 41 L 19 32.515625 C 19 32.253906 19.105469 31.996094 19.292969 31.808594 L 32.140625 18.957031 C 32.535156 18.566406 32.535156 17.9375 32.140625 17.546875 C 31.75 17.152344 31.121094 17.152344 30.730469 17.546875 L 17.878906 30.394531 C 17.3125 30.960938 17 31.714844 17 32.515625 L 17 41 C 17 42.652344 18.347656 44 20 44 L 28.484375 44 C 29.285156 44 30.039063 43.6875 30.605469 43.121094 L 47.699219 26.03125 C 48.265625 25.460938 48.578125 24.710938 48.578125 23.90625 C 48.578125 23.105469 48.265625 22.355469 47.699219 21.785156 L 42.042969 16.128906 C 41.457031 15.546875 40.6875 15.253906 39.921875 15.25 Z M 9 50 C 8.449219 50 8 50.449219 8 51 L 8 53 C 8 53.550781 8.449219 54 9 54 C 9.550781 54 10 53.550781 10 53 L 10 51 C 10 50.449219 9.550781 50 9 50 Z M 14 50 C 13.449219 50 13 50.449219 13 51 L 13 53 C 13 53.550781 13.449219 54 14 54 C 14.550781 54 15 53.550781 15 53 L 15 51 C 15 50.449219 14.550781 50 14 50 Z M 19 50 C 18.449219 50 18 50.449219 18 51 L 18 53 C 18 53.550781 18.449219 54 19 54 C 19.550781 54 20 53.550781 20 53 L 20 51 C 20 50.449219 19.550781 50 19 50 Z M 24 50 C 23.449219 50 23 50.449219 23 51 L 23 53 C 23 53.550781 23.449219 54 24 54 C 24.550781 54 25 53.550781 25 53 L 25 51 C 25 50.449219 24.550781 50 24 50 Z M 29 50 C 28.449219 50 28 50.449219 28 51 L 28 53 C 28 53.550781 28.449219 54 29 54 C 29.550781 54 30 53.550781 30 53 L 30 51 C 30 50.449219 29.550781 50 29 50 Z M 34 50 C 33.449219 50 33 50.449219 33 51 L 33 53 C 33 53.550781 33.449219 54 34 54 C 34.550781 54 35 53.550781 35 53 L 35 51 C 35 50.449219 34.550781 50 34 50 Z M 39 50 C 38.449219 50 38 50.449219 38 51 L 38 53 C 38 53.550781 38.449219 54 39 54 C 39.550781 54 40 53.550781 40 53 L 40 51 C 40 50.449219 39.550781 50 39 50 Z M 44 50 C 43.449219 50 43 50.449219 43 51 L 43 53 C 43 53.550781 43.449219 54 44 54 C 44.550781 54 45 53.550781 45 53 L 45 51 C 45 50.449219 44.550781 50 44 50 Z M 49 50 C 48.449219 50 48 50.449219 48 51 L 48 53 C 48 53.550781 48.449219 54 49 54 C 49.550781 54 50 53.550781 50 53 L 50 51 C 50 50.449219 49.550781 50 49 50 Z M 54 50 C 53.449219 50 53 50.449219 53 51 L 53 53 C 53 53.550781 53.449219 54 54 54 C 54.550781 54 55 53.550781 55 53 L 55 51 C 55 50.449219 54.550781 50 54 50 Z "></path>
</g>
</svg>