<!--?xml version="1.0" encoding="UTF-8"?-->
<svg xmlns="http://www.w3.org/2000/svg" xmlns:xlink="http://www.w3.org/1999/xlink" viewBox="0 0 64 64" version="1.1">
<g id="surface1">
<path style=" fill:#C5E4FA;" d="M 59 57 L 5 57 C 3.894531 57 3 56.105469 3 55 L 3 11 C 3 9.894531 3.894531 9 5 9 L 59 9 C 60.105469 9 61 9.894531 61 11 L 61 55 C 61 56.105469 60.105469 57 59 57 Z "></path>
<path style=" fill:#CED8ED;" d="M 39 9 L 61 9 L 61 57 L 39 57 Z "></path>
<path style=" fill:#E3F2FF;" d="M 39.109375 13.109375 L 39 16 L 39 34.109375 L 16.054688 57.054688 L 4 57 C 3.828125 56.710938 3 54.359375 3 54 L 3 49.210938 Z "></path>
<path style=" fill:#E3F2FF;" d="M 38.699219 9.941406 L 3 45.640625 L 3 37.289063 L 31.289063 9 L 37 9 C 37.710938 9 38.339844 9.378906 38.699219 9.941406 Z "></path>
<path style=" fill:#E3F2FF;" d="M 27.710938 9 L 3 33.710938 L 3 29.75 L 23.75 9 Z "></path>
<path style=" fill:#FFF8F8;" d="M 10 13.496094 L 11.238281 15.761719 L 13.503906 17 L 11.238281 18.238281 L 10 20.503906 L 8.761719 18.238281 L 6.496094 17 L 8.761719 15.761719 Z "></path>
<path style=" fill:#FFF8F8;" d="M 31.582031 19 L 32.4375 20.5625 L 34 21.417969 L 32.4375 22.273438 L 31.582031 23.839844 L 30.726563 22.273438 L 29.160156 21.417969 L 30.726563 20.5625 Z "></path>
<path style=" fill:#FFF8F8;" d="M 17.808594 45.542969 L 18.394531 46.605469 L 19.457031 47.191406 L 18.394531 47.773438 L 17.808594 48.839844 L 17.226563 47.773438 L 16.160156 47.191406 L 17.226563 46.605469 Z "></path>
<path style=" fill:#C2CDE7;" d="M 41 57 L 39 57 L 39 9 L 41 9 C 42.65625 9 44 10.34375 44 12 L 44 54 C 44 55.65625 42.65625 57 41 57 Z "></path>
<path style=" fill:#8D6C9F;" d="M 59 8 L 5 8 C 3.347656 8 2 9.347656 2 11 L 2 55 C 2 56.652344 3.347656 58 5 58 L 59 58 C 60.652344 58 62 56.652344 62 55 L 62 11 C 62 9.347656 60.652344 8 59 8 Z M 5 56 C 4.449219 56 4 55.550781 4 55 L 4 11 C 4 10.449219 4.449219 10 5 10 L 38 10 L 38 56 Z M 60 55 C 60 55.550781 59.550781 56 59 56 L 40 56 L 40 10 L 59 10 C 59.550781 10 60 10.449219 60 11 Z "></path>
<path style=" fill:#8D6C9F;" d="M 45 37 L 43 37 C 42.449219 37 42 37.449219 42 38 C 42 38.550781 42.449219 39 43 39 L 45 39 C 45.550781 39 46 38.550781 46 38 C 46 37.449219 45.550781 37 45 37 Z "></path>
<path style=" fill:#8D6C9F;" d="M 45 32 L 43 32 C 42.449219 32 42 32.449219 42 33 C 42 33.550781 42.449219 34 43 34 L 45 34 C 45.550781 34 46 33.550781 46 33 C 46 32.449219 45.550781 32 45 32 Z "></path>
<path style=" fill:#8D6C9F;" d="M 45 27 L 43 27 C 42.449219 27 42 27.449219 42 28 C 42 28.550781 42.449219 29 43 29 L 45 29 C 45.550781 29 46 28.550781 46 28 C 46 27.449219 45.550781 27 45 27 Z "></path>
<path style=" fill:#8D6C9F;" d="M 45 47 L 43 47 C 42.449219 47 42 47.449219 42 48 C 42 48.550781 42.449219 49 43 49 L 45 49 C 45.550781 49 46 48.550781 46 48 C 46 47.449219 45.550781 47 45 47 Z "></path>
<path style=" fill:#8D6C9F;" d="M 45 42 L 43 42 C 42.449219 42 42 42.449219 42 43 C 42 43.550781 42.449219 44 43 44 L 45 44 C 45.550781 44 46 43.550781 46 43 C 46 42.449219 45.550781 42 45 42 Z "></path>
<path style=" fill:#8D6C9F;" d="M 45 52 L 43 52 C 42.449219 52 42 52.449219 42 53 C 42 53.550781 42.449219 54 43 54 L 45 54 C 45.550781 54 46 53.550781 46 53 C 46 52.449219 45.550781 52 45 52 Z "></path>
<path style=" fill:#8D6C9F;" d="M 45 22 L 43 22 C 42.449219 22 42 22.449219 42 23 C 42 23.550781 42.449219 24 43 24 L 45 24 C 45.550781 24 46 23.550781 46 23 C 46 22.449219 45.550781 22 45 22 Z "></path>
<path style=" fill:#8D6C9F;" d="M 45 17 L 43 17 C 42.449219 17 42 17.449219 42 18 C 42 18.550781 42.449219 19 43 19 L 45 19 C 45.550781 19 46 18.550781 46 18 C 46 17.449219 45.550781 17 45 17 Z "></path>
<path style=" fill:#8D6C9F;" d="M 45 12 L 43 12 C 42.449219 12 42 12.449219 42 13 C 42 13.550781 42.449219 14 43 14 L 45 14 C 45.550781 14 46 13.550781 46 13 C 46 12.449219 45.550781 12 45 12 Z "></path>
<path style=" fill:#8D6C9F;" d="M 33.921875 32.617188 C 33.871094 32.496094 33.800781 32.386719 33.707031 32.292969 L 25.707031 24.292969 C 25.316406 23.902344 24.683594 23.902344 24.292969 24.292969 C 23.902344 24.683594 23.902344 25.316406 24.292969 25.707031 L 30.585938 32 L 13 32 C 12.449219 32 12 32.449219 12 33 C 12 33.550781 12.449219 34 13 34 L 30.585938 34 L 24.292969 40.292969 C 23.902344 40.683594 23.902344 41.316406 24.292969 41.707031 C 24.488281 41.902344 24.742188 42 25 42 C 25.257813 42 25.511719 41.902344 25.707031 41.707031 L 33.707031 33.707031 C 33.800781 33.613281 33.871094 33.503906 33.921875 33.382813 C 34.023438 33.136719 34.023438 32.863281 33.921875 32.617188 Z "></path>
</g>
</svg>