<!--?xml version="1.0" encoding="UTF-8"?-->
<svg xmlns="http://www.w3.org/2000/svg" xmlns:xlink="http://www.w3.org/1999/xlink" viewBox="0 0 50 50" version="1.1">
<g id="surface1">
<path style=" " d="M 25 5 C 23.355469 5 22 6.355469 22 8 C 22 8.152344 22.007813 8.292969 22.03125 8.4375 L 5.71875 19 L 3 19 C 2.96875 19 2.9375 19 2.90625 19 C 2.390625 19.046875 1.996094 19.480469 2 20 L 2 44 C 2 44.550781 2.449219 45 3 45 L 47 45 C 47.550781 45 48 44.550781 48 44 L 48 20 C 48 19.449219 47.550781 19 47 19 L 44.28125 19 L 27.96875 8.4375 C 27.992188 8.292969 28 8.152344 28 8 C 28 6.355469 26.644531 5 25 5 Z M 25 7 C 25.5625 7 26 7.4375 26 8 C 26 8.5625 25.5625 9 25 9 C 24.4375 9 24 8.5625 24 8 C 24 7.4375 24.4375 7 25 7 Z M 22.96875 10.21875 C 23.503906 10.710938 24.226563 11 25 11 C 25.773438 11 26.496094 10.710938 27.03125 10.21875 L 40.625 19 L 9.375 19 Z M 4 21 L 5.6875 21 C 5.851563 21.042969 6.023438 21.042969 6.1875 21 L 43.84375 21 C 43.996094 21.039063 44.160156 21.039063 44.3125 21 L 46 21 L 46 43 L 4 43 Z M 11 26 C 9.355469 26 8 27.355469 8 29 L 8 35 C 8 36.644531 9.355469 38 11 38 C 12.644531 38 14 36.644531 14 35 L 14 34 L 12 34 L 12 35 C 12 35.566406 11.566406 36 11 36 C 10.433594 36 10 35.566406 10 35 L 10 29 C 10 28.433594 10.433594 28 11 28 C 11.566406 28 12 28.433594 12 29 L 12 30 L 14 30 L 14 29 C 14 27.355469 12.644531 26 11 26 Z M 16 26 L 16 38 L 21 38 L 21 36 L 18 36 L 18 26 Z M 25 26 C 23.355469 26 22 27.355469 22 29 L 22 35 C 22 36.644531 23.355469 38 25 38 C 26.644531 38 28 36.644531 28 35 L 28 29 C 28 27.355469 26.644531 26 25 26 Z M 33 26 C 31.355469 26 30 27.355469 30 29 L 30 31.625 L 34 33.625 L 34 35 C 34 35.566406 33.566406 36 33 36 C 32.433594 36 32 35.566406 32 35 L 32 34 L 30 34 L 30 35 C 30 36.644531 31.355469 38 33 38 C 34.644531 38 36 36.644531 36 35 L 36 32.375 L 32 30.375 L 32 29 C 32 28.433594 32.433594 28 33 28 C 33.566406 28 34 28.433594 34 29 L 34 30 L 36 30 L 36 29 C 36 27.355469 34.644531 26 33 26 Z M 38 26 L 38 38 L 43 38 L 43 36 L 40 36 L 40 33 L 42 33 L 42 31 L 40 31 L 40 28 L 43 28 L 43 26 Z M 25 28 C 25.566406 28 26 28.433594 26 29 L 26 35 C 26 35.566406 25.566406 36 25 36 C 24.433594 36 24 35.566406 24 35 L 24 29 C 24 28.433594 24.433594 28 25 28 Z "></path>
</g>
</svg>