<!--?xml version="1.0" encoding="UTF-8"?-->
<svg xmlns="http://www.w3.org/2000/svg" xmlns:xlink="http://www.w3.org/1999/xlink" viewBox="0 0 50 50" version="1.1">
<g id="surface1">
<path style=" " d="M 25 5 C 23.355469 5 22 6.355469 22 8 C 22 8.152344 22.007813 8.292969 22.03125 8.4375 L 5.71875 19 L 3 19 C 2.96875 19 2.9375 19 2.90625 19 C 2.390625 19.046875 1.996094 19.480469 2 20 L 2 44 C 2 44.550781 2.449219 45 3 45 L 47 45 C 47.550781 45 48 44.550781 48 44 L 48 20 C 48 19.449219 47.550781 19 47 19 L 44.28125 19 L 27.96875 8.4375 C 27.992188 8.292969 28 8.152344 28 8 C 28 6.355469 26.644531 5 25 5 Z M 25 7 C 25.5625 7 26 7.4375 26 8 C 26 8.5625 25.5625 9 25 9 C 24.4375 9 24 8.5625 24 8 C 24 7.4375 24.4375 7 25 7 Z M 22.96875 10.21875 C 23.503906 10.710938 24.226563 11 25 11 C 25.773438 11 26.496094 10.710938 27.03125 10.21875 L 40.625 19 L 9.375 19 Z M 4 21 L 5.6875 21 C 5.851563 21.042969 6.023438 21.042969 6.1875 21 L 43.84375 21 C 43.996094 21.039063 44.160156 21.039063 44.3125 21 L 46 21 L 46 43 L 4 43 Z M 9 26 C 7.355469 26 6 27.355469 6 29 L 6 35 C 6 36.644531 7.355469 38 9 38 C 10.644531 38 12 36.644531 12 35 L 12 34 L 10 34 L 10 35 C 10 35.566406 9.566406 36 9 36 C 8.433594 36 8 35.566406 8 35 L 8 29 C 8 28.433594 8.433594 28 9 28 C 9.566406 28 10 28.433594 10 29 L 10 30 L 12 30 L 12 29 C 12 27.355469 10.644531 26 9 26 Z M 13 26 L 13 38 L 18 38 L 18 36 L 15 36 L 15 26 Z M 21 26 C 19.355469 26 18 27.355469 18 29 L 18 35 C 18 36.644531 19.355469 38 21 38 C 22.644531 38 24 36.644531 24 35 L 24 29 C 24 27.355469 22.644531 26 21 26 Z M 28 26 C 26.355469 26 25 27.355469 25 29 L 25 31.625 L 29 33.625 L 29 35 C 29 35.566406 28.566406 36 28 36 C 27.433594 36 27 35.566406 27 35 L 27 34 L 25 34 L 25 35 C 25 36.644531 26.355469 38 28 38 C 29.644531 38 31 36.644531 31 35 L 31 32.375 L 27 30.375 L 27 29 C 27 28.433594 27.433594 28 28 28 C 28.566406 28 29 28.433594 29 29 L 29 30 L 31 30 L 31 29 C 31 27.355469 29.644531 26 28 26 Z M 32 26 L 32 38 L 37 38 L 37 36 L 34 36 L 34 33 L 37 33 L 37 31 L 34 31 L 34 28 L 37 28 L 37 26 Z M 38 26 L 38 38 L 41 38 C 42.644531 38 44 36.644531 44 35 L 44 29 C 44 27.355469 42.644531 26 41 26 Z M 21 28 C 21.566406 28 22 28.433594 22 29 L 22 35 C 22 35.566406 21.566406 36 21 36 C 20.433594 36 20 35.566406 20 35 L 20 29 C 20 28.433594 20.433594 28 21 28 Z M 40 28 L 41 28 C 41.566406 28 42 28.433594 42 29 L 42 35 C 42 35.566406 41.566406 36 41 36 L 40 36 Z "></path>
</g>
</svg>