<svg xmlns="http://www.w3.org/2000/svg" xmlns:xlink="http://www.w3.org/1999/xlink" viewBox="0 0 50 50" version="1.1">
<g id="surface1">
<path style=" " d="M 23 0 C 15.773438 0 10.445313 2.496094 7 6.40625 C 3.554688 10.316406 2 15.558594 2 21 C 2 25.40625 3.375 29.515625 5.6875 32.875 C 7.78125 35.921875 9 39.507813 9 43.1875 L 9 50 L 11 50 L 11 43.1875 C 11 39.101563 9.640625 35.144531 7.375 31.8125 L 7.3125 31.71875 C 5.222656 28.679688 4 24.992188 4 21 C 4 15.941406 5.445313 11.183594 8.5 7.71875 C 11.078125 4.792969 14.820313 2.726563 20 2.15625 L 20 17.59375 C 17.082031 18.789063 15 21.660156 15 25 C 15 29.40625 18.59375 33 23 33 C 24.898438 33 26.65625 32.328125 28.03125 31.21875 L 33.25 34.84375 C 33.097656 35.203125 33 35.589844 33 36 C 33 37.644531 34.355469 39 36 39 C 37.644531 39 39 37.644531 39 36 C 39 34.355469 37.644531 33 36 33 C 35.492188 33 35.015625 33.148438 34.59375 33.375 L 29.40625 29.78125 C 30.402344 28.445313 31 26.785156 31 25 C 31 21.660156 28.917969 18.789063 26 17.59375 L 26 2.15625 C 31.125 2.660156 34.671875 4.449219 37.125 7 C 40.035156 10.027344 41.464844 14.207031 42 18.71875 L 42.03125 18.9375 L 42.125 19.09375 L 46.84375 27.1875 L 46.8125 27.1875 C 47.0625 27.636719 46.9375 28.070313 46.5 28.3125 L 46.5 28.34375 L 42 30.59375 L 42 36.59375 C 42 40.335938 38.914063 43.253906 35.1875 42.90625 L 35.15625 42.90625 L 32.0625 42.6875 L 31 42.625 L 31 50 L 33 50 L 33 44.75 L 35 44.90625 C 35.011719 44.90625 35.019531 44.90625 35.03125 44.90625 C 39.890625 45.339844 44 41.441406 44 36.59375 L 44 31.8125 L 47.4375 30.09375 L 47.46875 30.09375 L 47.5 30.0625 C 48.863281 29.304688 49.3125 27.570313 48.5625 26.21875 L 48.5625 26.1875 L 43.9375 18.1875 C 43.34375 13.503906 41.808594 9.003906 38.5625 5.625 C 35.246094 2.175781 30.199219 0 23 0 Z M 23 2 C 23.347656 2 23.664063 2.019531 24 2.03125 L 24 17.0625 C 23.667969 17.019531 23.339844 17 23 17 C 22.660156 17 22.332031 17.019531 22 17.0625 L 22 2.03125 C 22.328125 2.019531 22.660156 2 23 2 Z M 23 19 C 26.324219 19 29 21.675781 29 25 C 29 28.324219 26.324219 31 23 31 C 19.675781 31 17 28.324219 17 25 C 17 21.675781 19.675781 19 23 19 Z M 23 21 C 20.800781 21 19 22.800781 19 25 C 19 27.199219 20.800781 29 23 29 C 25.199219 29 27 27.199219 27 25 C 27 22.800781 25.199219 21 23 21 Z M 23 23 C 24.117188 23 25 23.882813 25 25 C 25 26.117188 24.117188 27 23 27 C 21.882813 27 21 26.117188 21 25 C 21 23.882813 21.882813 23 23 23 Z M 36 35 C 36.5625 35 37 35.4375 37 36 C 37 36.5625 36.5625 37 36 37 C 35.4375 37 35 36.5625 35 36 C 35 35.4375 35.4375 35 36 35 Z "></path>
</g>
</svg>