<svg xmlns="http://www.w3.org/2000/svg" xmlns:xlink="http://www.w3.org/1999/xlink" version="1.1" id="Layer_1" x="0px" y="0px" viewBox="0 0 48 48" style="enable-background:new 0 0 48 48;" xml:space="preserve">
<g id="surface1">
	
		<rect x="19.9" y="31.7" transform="matrix(0.4315 -0.9021 0.9021 0.4315 -14.6213 42.2977)" style="fill:#37474F;" width="12.7" height="2"></rect> 
		<rect x="30.7" y="26.4" transform="matrix(0.9021 -0.4315 0.4315 0.9021 -11.0229 16.9038)" style="fill:#37474F;" width="2" height="12.7"></rect>
	<path style="fill:#37474F;" d="M28,6h2v27h-2V6z"></path>
	<path style="fill:#CFD8DC;" d="M15,9h28v21H15V9z"></path>
	<path style="fill:#607D8B;" d="M22,38.5c0-0.8,0.7-1.5,1.5-1.5s1.5,0.7,1.5,1.5S24.3,40,23.5,40S22,39.3,22,38.5"></path>
	<path style="fill:#607D8B;" d="M33,38.5c0-0.8,0.7-1.5,1.5-1.5s1.5,0.7,1.5,1.5S35.3,40,34.5,40S33,39.3,33,38.5"></path>
	<path style="fill:#607D8B;" d="M14,8h30v4H14V8z"></path>
	<path style="fill:#607D8B;" d="M14,29h30v2H14V29z"></path>
	<path style="fill:#FFB74D;" d="M11,14c-2.2,0-4-1.8-4-4s1.8-4,4-4s4,1.8,4,4S13.2,14,11,14"></path>
	<path style="fill:#455A64;" d="M24,19H11c-1.1,0-2-0.9-2-2s0.9-2,2-2h13c1.1,0,2,0.9,2,2S25.1,19,24,19z"></path>
	<path style="fill:#455A64;" d="M4,22v7l2.6,1.8L7.5,42h7L16,19c0,0-1.1-4-5-4S4,18.1,4,22"></path>
	<path style="fill:#D81B60;" d="M35,17h3v9h-3V17z"></path>
	<path style="fill:#D81B60;" d="M31,20h3v6h-3V20z"></path>
	<path style="fill:#D81B60;" d="M27,22h3v4h-3V22z"></path>
</g>
</svg>