<svg xmlns="http://www.w3.org/2000/svg" xmlns:xlink="http://www.w3.org/1999/xlink" viewBox="0 0 64 64" version="1.1">
<g id="surface1">
<path style=" " d="M 31 2 C 15.007813 2 2 15.011719 2 31 C 2 46.988281 15.007813 60 31 60 C 46.992188 60 60 46.988281 60 31 C 60 15.011719 46.992188 2 31 2 Z M 31 4 C 45.886719 4 58 16.113281 58 31 C 58 45.886719 45.886719 58 31 58 C 16.113281 58 4 45.886719 4 31 C 4 16.113281 16.113281 4 31 4 Z M 15 20 C 12.242188 20 10 22.242188 10 25 C 10 25.554688 10.449219 26 11 26 C 11.550781 26 12 25.554688 12 25 C 12 23.347656 13.347656 22 15 22 C 16.652344 22 18 23.347656 18 25 C 18 25.554688 18.449219 26 19 26 C 19.550781 26 20 25.554688 20 25 C 20 22.242188 17.757813 20 15 20 Z M 39 20 C 36.242188 20 34 22.242188 34 25 C 34 25.554688 34.449219 26 35 26 C 35.550781 26 36 25.554688 36 25 C 36 23.347656 37.347656 22 39 22 C 40.652344 22 42 23.347656 42 25 C 42 25.554688 42.449219 26 43 26 C 43.550781 26 44 25.554688 44 25 C 44 22.242188 41.757813 20 39 20 Z M 16.203125 32.101563 C 15.648438 32.101563 15.203125 32.546875 15.203125 33.101563 C 15.203125 35.570313 15.890625 37.730469 17.128906 39.464844 C 17.1875 39.574219 17.261719 39.667969 17.355469 39.75 C 19.414063 42.417969 22.832031 44 27.101563 44 C 34.109375 44 39 39.519531 39 33.101563 C 39 32.546875 38.550781 32.101563 38 32.101563 Z M 17.246094 34.101563 L 36.953125 34.101563 C 36.480469 38.867188 32.644531 42 27.101563 42 C 23.523438 42 20.699219 40.757813 19 38.617188 L 19 37 C 19 36.445313 18.550781 36 18 36 C 17.878906 36 17.761719 36.03125 17.652344 36.070313 C 17.453125 35.453125 17.3125 34.796875 17.246094 34.101563 Z M 23 36 C 22.449219 36 22 36.445313 22 37 L 22 39 C 22 39.554688 22.449219 40 23 40 C 23.550781 40 24 39.554688 24 39 L 24 37 C 24 36.445313 23.550781 36 23 36 Z M 28 36 C 27.449219 36 27 36.445313 27 37 L 27 39 C 27 39.554688 27.449219 40 28 40 C 28.550781 40 29 39.554688 29 39 L 29 37 C 29 36.445313 28.550781 36 28 36 Z M 33 36 C 32.449219 36 32 36.445313 32 37 L 32 39 C 32 39.554688 32.449219 40 33 40 C 33.550781 40 34 39.554688 34 39 L 34 37 C 34 36.445313 33.550781 36 33 36 Z M 47.121094 44.925781 C 46.867188 44.9375 46.613281 45.042969 46.425781 45.246094 C 45.894531 45.824219 45.328125 46.375 44.734375 46.886719 C 44.316406 47.246094 44.273438 47.878906 44.632813 48.296875 C 44.832031 48.527344 45.109375 48.640625 45.390625 48.640625 C 45.621094 48.640625 45.855469 48.5625 46.042969 48.398438 C 46.691406 47.839844 47.3125 47.238281 47.894531 46.605469 C 48.269531 46.199219 48.246094 45.566406 47.839844 45.191406 C 47.636719 45.003906 47.375 44.917969 47.121094 44.925781 Z M 41.589844 49.234375 C 41.460938 49.25 41.332031 49.289063 41.210938 49.355469 C 37.027344 51.683594 32.011719 52.511719 27.296875 51.671875 C 26.75 51.574219 26.234375 51.941406 26.140625 52.484375 C 26.042969 53.027344 26.402344 53.546875 26.949219 53.640625 C 28.277344 53.878906 29.640625 54 31 54 C 34.917969 54 38.785156 52.996094 42.1875 51.101563 C 42.667969 50.832031 42.839844 50.222656 42.574219 49.742188 C 42.371094 49.378906 41.976563 49.191406 41.589844 49.234375 Z "></path>
</g>
</svg>