<svg version="1.1" id="Stats" xmlns="http://www.w3.org/2000/svg" xmlns:xlink="http://www.w3.org/1999/xlink" x="0px" y="0px" viewBox="0 0 128 128" enable-background="new 0 0 128 128" xml:space="preserve">
<g>
	<path fill="#FFFFFF" d="M100.7,109.8H27.3C17.2,109.8,9,101.6,9,91.5v-55c0-10.1,8.2-18.3,18.3-18.3h73.3
		c10.1,0,18.3,8.2,18.3,18.3v55C119,101.6,110.8,109.8,100.7,109.8z"></path>
	<path fill="#FFFFFF" d="M100.7,109.8H27.3C17.2,109.8,9,101.6,9,91.5v-55c0-10.1,8.2-18.3,18.3-18.3h73.3
		c10.1,0,18.3,8.2,18.3,18.3v55C119,101.6,110.8,109.8,100.7,109.8z"></path>
	<path fill="#B8ABC9" d="M100.7,109.8H27.3C17.2,109.8,9,101.6,9,91.5l0-25.7l26.6,18.3l28.4-33l26.6,20.6L119,48.9v42.6
		C119,101.6,110.8,109.8,100.7,109.8z"></path>
	<path fill="#454B54" d="M35.6,87.2c-0.6,0-1.2-0.2-1.7-0.5L7.3,68.3c-1.4-0.9-1.7-2.8-0.8-4.2c0.9-1.4,2.8-1.7,4.2-0.8l24.4,16.8
		l26.7-31c1-1.2,2.8-1.4,4.1-0.4L90.6,68l26.6-21.4c1.3-1,3.2-0.8,4.2,0.5c1,1.3,0.8,3.2-0.5,4.2L92.5,74.1c-1.1,0.9-2.6,0.9-3.7,0
		L64.4,55.3L37.9,86.1C37.3,86.8,36.4,87.2,35.6,87.2z"></path>
	<circle fill="#FFFFFF" cx="35.6" cy="84.2" r="9.2"></circle>
	<circle fill="#FFFFFF" cx="90.6" cy="71.8" r="9.2"></circle>
	<circle fill="#FFFFFF" cx="64" cy="51.2" r="9.2"></circle>
	<path fill="#454B54" d="M35.6,96.3c-6.7,0-12.2-5.5-12.2-12.2c0-6.7,5.5-12.2,12.2-12.2s12.2,5.5,12.2,12.2
		C47.8,90.9,42.3,96.3,35.6,96.3z M35.6,78c-3.4,0-6.2,2.8-6.2,6.2s2.8,6.2,6.2,6.2s6.2-2.8,6.2-6.2S39,78,35.6,78z"></path>
	<path fill="#454B54" d="M90.6,84c-6.7,0-12.2-5.5-12.2-12.2c0-6.7,5.5-12.2,12.2-12.2c6.7,0,12.2,5.5,12.2,12.2
		C102.8,78.5,97.3,84,90.6,84z M90.6,65.6c-3.4,0-6.2,2.8-6.2,6.2s2.8,6.2,6.2,6.2s6.2-2.8,6.2-6.2S94,65.6,90.6,65.6z"></path>
	<path fill="#454B54" d="M64,63.3c-6.7,0-12.2-5.5-12.2-12.2C51.8,44.5,57.3,39,64,39c6.7,0,12.2,5.5,12.2,12.2
		C76.2,57.9,70.7,63.3,64,63.3z M64,45c-3.4,0-6.2,2.8-6.2,6.2s2.8,6.2,6.2,6.2s6.2-2.8,6.2-6.2S67.4,45,64,45z"></path>
	<path fill="#454B54" d="M100.7,112.8H27.3C15.6,112.8,6,103.3,6,91.5v-55c0-11.8,9.6-21.3,21.3-21.3h73.3
		c11.8,0,21.3,9.6,21.3,21.3v55C122,103.3,112.4,112.8,100.7,112.8z M27.3,21.2C18.9,21.2,12,28,12,36.5v55
		c0,8.5,6.9,15.3,15.3,15.3h73.3c8.5,0,15.3-6.9,15.3-15.3v-55c0-8.5-6.9-15.3-15.3-15.3H27.3z"></path>
</g>
</svg>