<!--?xml version="1.0" encoding="UTF-8"?-->
<svg xmlns="http://www.w3.org/2000/svg" xmlns:xlink="http://www.w3.org/1999/xlink" viewBox="0 0 64 64" version="1.1">
<g id="surface1">
<path style=" fill:#FAEFDE;" d="M 21.238281 2.941406 L 50 2.941406 C 51.65625 2.941406 53 4.28125 53 5.941406 L 53 53.941406 C 53 55.597656 51.65625 56.941406 50 56.941406 L 12 56.941406 C 10.34375 56.941406 9 55.597656 9 53.941406 L 9 15.179688 C 9 14.382813 9.316406 13.621094 9.878906 13.058594 L 19.121094 3.820313 C 19.683594 3.257813 20.445313 2.941406 21.238281 2.941406 Z "></path>
<path style=" fill:#FFF7F0;" d="M 9 57 L 8.851563 47.539063 L 52.339844 4.058594 L 53 27 L 23 57 Z "></path>
<path style=" fill:#FFF7F0;" d="M 8.851563 37.148438 L 43.058594 2.941406 L 48.808594 3.191406 L 9 43 Z "></path>
<path style=" fill:#FFF7F0;" d="M 8.851563 31.148438 L 37 3 L 40 3 L 8.851563 34.148438 Z "></path>
<path style=" fill:#FFFFFF;" d="M 43.5 11 L 44.738281 13.261719 L 47 14.5 L 44.738281 15.738281 L 43.5 18 L 42.261719 15.738281 L 40 14.5 L 42.261719 13.261719 Z "></path>
<path style=" fill:#FFFFFF;" d="M 28.421875 9 L 29.269531 10.558594 L 30.839844 11.421875 L 29.269531 12.269531 L 28.421875 13.839844 L 27.558594 12.269531 L 26 11.421875 L 27.558594 10.558594 Z "></path>
<path style=" fill:#FFFFFF;" d="M 14.648438 40 L 15.230469 41.058594 L 16.300781 41.648438 L 15.230469 42.230469 L 14.648438 43.300781 L 14.058594 42.230469 L 13 41.648438 L 14.058594 41.058594 Z "></path>
<path style=" fill:#BBDEF9;" d="M 21 3 L 21 15 L 9 15 Z "></path>
<path style=" fill:#72CAAF;" d="M 61 51 C 61 57.628906 55.628906 63 49 63 C 42.371094 63 37 57.628906 37 51 C 37 44.371094 42.371094 39 49 39 C 55.628906 39 61 44.371094 61 51 Z "></path>
<path style=" fill:#8D6C9F;" d="M 13 50 C 12.449219 50 12 50.449219 12 51 L 12 53 C 12 53.550781 12.449219 54 13 54 C 13.550781 54 14 53.550781 14 53 L 14 51 C 14 50.449219 13.550781 50 13 50 Z "></path>
<path style=" fill:#8D6C9F;" d="M 18 50 C 17.449219 50 17 50.449219 17 51 L 17 53 C 17 53.550781 17.449219 54 18 54 C 18.550781 54 19 53.550781 19 53 L 19 51 C 19 50.449219 18.550781 50 18 50 Z "></path>
<path style=" fill:#8D6C9F;" d="M 23 50 C 22.449219 50 22 50.449219 22 51 L 22 53 C 22 53.550781 22.449219 54 23 54 C 23.550781 54 24 53.550781 24 53 L 24 51 C 24 50.449219 23.550781 50 23 50 Z "></path>
<path style=" fill:#8D6C9F;" d="M 28 50 C 27.449219 50 27 50.449219 27 51 L 27 53 C 27 53.550781 27.449219 54 28 54 C 28.550781 54 29 53.550781 29 53 L 29 51 C 29 50.449219 28.550781 50 28 50 Z "></path>
<path style=" fill:#8D6C9F;" d="M 33 50 C 32.449219 50 32 50.449219 32 51 L 32 53 C 32 53.550781 32.449219 54 33 54 C 33.550781 54 34 53.550781 34 53 L 34 51 C 34 50.449219 33.550781 50 33 50 Z "></path>
<path style=" fill:#8D6C9F;" d="M 41 22 L 37 22 C 36.449219 22 36 22.449219 36 23 C 36 23.550781 36.449219 24 37 24 L 41 24 C 41.550781 24 42 23.550781 42 23 C 42 22.449219 41.550781 22 41 22 Z "></path>
<path style=" fill:#8D6C9F;" d="M 17 24 L 33 24 C 33.550781 24 34 23.550781 34 23 C 34 22.449219 33.550781 22 33 22 L 17 22 C 16.449219 22 16 22.449219 16 23 C 16 23.550781 16.449219 24 17 24 Z "></path>
<path style=" fill:#8D6C9F;" d="M 17 28 L 37 28 C 37.550781 28 38 27.550781 38 27 C 38 26.449219 37.550781 26 37 26 L 17 26 C 16.449219 26 16 26.449219 16 27 C 16 27.550781 16.449219 28 17 28 Z "></path>
<path style=" fill:#8D6C9F;" d="M 34 36 L 17 36 C 16.449219 36 16 36.449219 16 37 C 16 37.550781 16.449219 38 17 38 L 34 38 C 34.550781 38 35 37.550781 35 37 C 35 36.449219 34.550781 36 34 36 Z "></path>
<path style=" fill:#8D6C9F;" d="M 39 32 L 17 32 C 16.449219 32 16 32.449219 16 33 C 16 33.550781 16.449219 34 17 34 L 39 34 C 39.550781 34 40 33.550781 40 33 C 40 32.449219 39.550781 32 39 32 Z "></path>
<path style=" fill:#F9EFDE;" d="M 55 50 L 50 50 L 50 45 C 50 44.449219 49.550781 44 49 44 C 48.449219 44 48 44.449219 48 45 L 48 50 L 43 50 C 42.449219 50 42 50.449219 42 51 C 42 51.550781 42.449219 52 43 52 L 48 52 L 48 57 C 48 57.550781 48.449219 58 49 58 C 49.550781 58 50 57.550781 50 57 L 50 52 L 55 52 C 55.550781 52 56 51.550781 56 51 C 56 50.449219 55.550781 50 55 50 Z "></path>
<path style=" fill:#8D6C9F;" d="M 13 50 C 12.449219 50 12 50.449219 12 51 L 12 53 C 12 53.550781 12.449219 54 13 54 C 13.550781 54 14 53.550781 14 53 L 14 51 C 14 50.449219 13.550781 50 13 50 Z "></path>
<path style=" fill:#8D6C9F;" d="M 18 50 C 17.449219 50 17 50.449219 17 51 L 17 53 C 17 53.550781 17.449219 54 18 54 C 18.550781 54 19 53.550781 19 53 L 19 51 C 19 50.449219 18.550781 50 18 50 Z "></path>
<path style=" fill:#8D6C9F;" d="M 23 50 C 22.449219 50 22 50.449219 22 51 L 22 53 C 22 53.550781 22.449219 54 23 54 C 23.550781 54 24 53.550781 24 53 L 24 51 C 24 50.449219 23.550781 50 23 50 Z "></path>
<path style=" fill:#8D6C9F;" d="M 28 50 C 27.449219 50 27 50.449219 27 51 L 27 53 C 27 53.550781 27.449219 54 28 54 C 28.550781 54 29 53.550781 29 53 L 29 51 C 29 50.449219 28.550781 50 28 50 Z "></path>
<path style=" fill:#8D6C9F;" d="M 33 50 C 32.449219 50 32 50.449219 32 51 L 32 53 C 32 53.550781 32.449219 54 33 54 C 33.550781 54 34 53.550781 34 53 L 34 51 C 34 50.449219 33.550781 50 33 50 Z "></path>
<path style=" fill:#8D6C9F;" d="M 54 39 L 54 5 C 54 3.34375 52.65625 2 51 2 L 21.660156 2 C 20.332031 1.996094 19.058594 2.523438 18.121094 3.460938 L 9.460938 12.121094 C 8.523438 13.058594 7.996094 14.332031 8 15.660156 L 8 55 C 8 56.65625 9.34375 58 11 58 L 38.058594 58 C 41.074219 62.722656 46.773438 64.984375 52.203125 63.613281 C 57.636719 62.238281 61.578125 57.542969 61.984375 51.953125 C 62.394531 46.367188 59.175781 41.144531 54 39 Z M 19.539063 4.878906 C 19.679688 4.738281 19.835938 4.609375 20 4.5 L 20 13 C 20 13.550781 19.550781 14 19 14 L 10.5 14 C 10.609375 13.835938 10.738281 13.679688 10.878906 13.539063 Z M 11 56 C 10.449219 56 10 55.550781 10 55 L 10 16 L 19 16 C 20.65625 16 22 14.65625 22 13 L 22 4 L 51 4 C 51.550781 4 52 4.449219 52 5 L 52 38.359375 C 47.246094 37.234375 42.265625 38.867188 39.101563 42.589844 C 35.9375 46.308594 35.125 51.488281 37 56 Z M 49 62 C 42.925781 62 38 57.074219 38 51 C 38 44.925781 42.925781 40 49 40 C 55.074219 40 60 44.925781 60 51 C 60 57.074219 55.074219 62 49 62 Z "></path>
</g>
</svg>