<!--?xml version="1.0" encoding="UTF-8"?-->
<svg xmlns="http://www.w3.org/2000/svg" xmlns:xlink="http://www.w3.org/1999/xlink" viewBox="0 0 64 64" version="1.1">
<g id="surface1">
<path style=" fill:#BBDEF9;" d="M 6 13 L 54 13 C 55.65625 13 57 14.34375 57 16 L 57 50 C 57 51.65625 55.65625 53 54 53 L 6 53 C 4.34375 53 3 51.65625 3 50 L 3 16 C 3 14.34375 4.34375 13 6 13 Z "></path>
<path style=" fill:#DEF0FF;" d="M 40 53 L 57 36 L 57 18 L 22 53 Z "></path>
<path style=" fill:#DEF0FF;" d="M 10.738281 53 L 17.300781 53 L 56.300781 14 C 55.714844 13.347656 54.875 12.980469 54 13 L 50.738281 13 Z "></path>
<path style=" fill:#DEF0FF;" d="M 42 13 L 3.449219 51.550781 C 3.988281 52.445313 4.957031 52.992188 6 53 L 46 13 Z "></path>
<path style=" fill:#97E0BB;" d="M 44 53.128906 L 30.789063 40 C 30.011719 39.246094 28.777344 39.246094 28 40 L 15 53 Z "></path>
<path style=" fill:#72CAAF;" d="M 45.578125 34.648438 C 45.195313 34.28125 44.585938 34.28125 44.199219 34.648438 L 27 51.871094 L 56.328125 51.871094 C 56.757813 51.339844 56.996094 50.679688 57 50 L 57 45.121094 Z "></path>
<path style=" fill:#72CAAF;" d="M 54 53 L 6 53 C 4.34375 53 3 51.65625 3 50 L 3 49 L 57 49 L 57 50 C 57 51.65625 55.65625 53 54 53 Z "></path>
<path style=" fill:#FFEB9B;" d="M 21 27 C 21 29.210938 19.210938 31 17 31 C 14.789063 31 13 29.210938 13 27 C 13 24.789063 14.789063 23 17 23 C 19.210938 23 21 24.789063 21 27 Z "></path>
<path style=" fill:#8D6C9F;" d="M 22.070313 27 C 22.070313 24.238281 19.832031 22 17.070313 22 C 14.308594 22 12.070313 24.238281 12.070313 27 C 12.070313 29.761719 14.308594 32 17.070313 32 C 19.832031 32 22.070313 29.761719 22.070313 27 Z M 17.070313 30 C 15.414063 30 14.070313 28.65625 14.070313 27 C 14.070313 25.34375 15.414063 24 17.070313 24 C 18.726563 24 20.070313 25.34375 20.070313 27 C 20.070313 28.65625 18.726563 30 17.070313 30 Z "></path>
<path style=" fill:#8D6C9F;" d="M 16 35 L 16 37 C 16 37.550781 16.449219 38 17 38 C 17.550781 38 18 37.550781 18 37 L 18 35 C 18 34.449219 17.550781 34 17 34 C 16.449219 34 16 34.449219 16 35 Z "></path>
<path style=" fill:#8D6C9F;" d="M 17 20 C 17.550781 20 18 19.550781 18 19 L 18 17 C 18 16.449219 17.550781 16 17 16 C 16.449219 16 16 16.449219 16 17 L 16 19 C 16 19.550781 16.449219 20 17 20 Z "></path>
<path style=" fill:#8D6C9F;" d="M 24 27 C 24 27.550781 24.449219 28 25 28 L 27 28 C 27.550781 28 28 27.550781 28 27 C 28 26.449219 27.550781 26 27 26 L 25 26 C 24.449219 26 24 26.449219 24 27 Z "></path>
<path style=" fill:#8D6C9F;" d="M 7 28 L 9 28 C 9.550781 28 10 27.550781 10 27 C 10 26.449219 9.550781 26 9 26 L 7 26 C 6.449219 26 6 26.449219 6 27 C 6 27.550781 6.449219 28 7 28 Z "></path>
<path style=" fill:#8D6C9F;" d="M 21.128906 36.160156 C 21.308594 36.46875 21.640625 36.660156 22 36.660156 C 22.175781 36.667969 22.351563 36.617188 22.5 36.519531 C 22.730469 36.386719 22.902344 36.167969 22.96875 35.910156 C 23.039063 35.65625 23.003906 35.378906 22.871094 35.148438 L 21.871094 33.421875 C 21.582031 32.96875 20.988281 32.824219 20.527344 33.089844 C 20.0625 33.359375 19.890625 33.945313 20.140625 34.421875 Z "></path>
<path style=" fill:#8D6C9F;" d="M 12.128906 20.570313 C 12.308594 20.878906 12.640625 21.070313 13 21.070313 C 13.175781 21.078125 13.351563 21.027344 13.5 20.929688 C 13.730469 20.796875 13.902344 20.578125 13.96875 20.320313 C 14.039063 20.066406 14.003906 19.789063 13.871094 19.558594 L 12.871094 17.828125 C 12.582031 17.378906 11.988281 17.234375 11.527344 17.5 C 11.0625 17.769531 10.890625 18.355469 11.140625 18.828125 Z "></path>
<path style=" fill:#8D6C9F;" d="M 23.058594 23.5 C 23.242188 23.816406 23.574219 24.019531 23.941406 24.03125 C 24.113281 24.027344 24.28125 23.972656 24.421875 23.871094 L 26.148438 22.871094 C 26.476563 22.699219 26.679688 22.363281 26.6875 21.996094 C 26.691406 21.628906 26.496094 21.289063 26.171875 21.109375 C 25.851563 20.933594 25.460938 20.941406 25.148438 21.140625 L 23.421875 22.140625 C 22.949219 22.417969 22.785156 23.023438 23.058594 23.5 Z "></path>
<path style=" fill:#8D6C9F;" d="M 9.570313 30.128906 L 7.839844 31.128906 C 7.609375 31.261719 7.4375 31.480469 7.371094 31.738281 C 7.300781 31.996094 7.335938 32.269531 7.46875 32.5 C 7.652344 32.816406 7.984375 33.019531 8.351563 33.03125 C 8.523438 33.027344 8.691406 32.972656 8.828125 32.871094 L 10.558594 31.871094 C 10.886719 31.699219 11.089844 31.363281 11.097656 30.996094 C 11.101563 30.628906 10.90625 30.289063 10.582031 30.109375 C 10.261719 29.933594 9.871094 29.941406 9.558594 30.140625 Z "></path>
<path style=" fill:#8D6C9F;" d="M 23.429688 31.871094 L 25.160156 32.871094 C 25.300781 32.972656 25.46875 33.027344 25.640625 33.03125 C 26.003906 33.019531 26.339844 32.816406 26.519531 32.5 C 26.652344 32.269531 26.691406 31.996094 26.621094 31.738281 C 26.550781 31.480469 26.382813 31.261719 26.148438 31.128906 L 24.421875 30.128906 C 24.109375 29.933594 23.71875 29.921875 23.394531 30.101563 C 23.074219 30.28125 22.878906 30.621094 22.882813 30.988281 C 22.886719 31.355469 23.09375 31.691406 23.421875 31.859375 Z "></path>
<path style=" fill:#8D6C9F;" d="M 7.839844 22.871094 L 9.570313 23.871094 C 9.710938 23.972656 9.878906 24.027344 10.050781 24.03125 C 10.414063 24.019531 10.75 23.816406 10.929688 23.5 C 11.0625 23.269531 11.097656 22.996094 11.03125 22.738281 C 10.960938 22.480469 10.792969 22.261719 10.558594 22.128906 L 8.828125 21.128906 C 8.519531 20.933594 8.125 20.921875 7.804688 21.101563 C 7.484375 21.28125 7.289063 21.621094 7.292969 21.988281 C 7.296875 22.355469 7.503906 22.691406 7.828125 22.859375 Z "></path>
<path style=" fill:#8D6C9F;" d="M 20.5 20.941406 C 20.648438 21.039063 20.824219 21.085938 21 21.078125 C 21.359375 21.082031 21.691406 20.890625 21.871094 20.578125 L 22.871094 18.851563 C 23.066406 18.539063 23.078125 18.148438 22.898438 17.828125 C 22.71875 17.503906 22.378906 17.308594 22.011719 17.3125 C 21.644531 17.320313 21.308594 17.523438 21.140625 17.851563 L 20.140625 19.578125 C 19.867188 20.054688 20.027344 20.660156 20.5 20.941406 Z "></path>
<path style=" fill:#8D6C9F;" d="M 13.5 33.058594 C 13.269531 32.925781 12.996094 32.890625 12.738281 32.960938 C 12.480469 33.03125 12.261719 33.199219 12.128906 33.429688 L 11.128906 35.160156 C 10.996094 35.390625 10.960938 35.664063 11.03125 35.921875 C 11.097656 36.179688 11.269531 36.398438 11.5 36.53125 C 11.648438 36.628906 11.824219 36.675781 12 36.671875 C 12.359375 36.671875 12.691406 36.480469 12.871094 36.171875 L 13.871094 34.441406 C 14.007813 34.207031 14.042969 33.933594 13.976563 33.671875 C 13.90625 33.414063 13.734375 33.191406 13.5 33.058594 Z "></path>
<path style=" fill:#8D6C9F;" d="M 42.898438 34.699219 L 34.5 43.101563 L 31.101563 39.699219 C 30.550781 39.125 29.792969 38.800781 29 38.800781 C 28.207031 38.800781 27.449219 39.125 26.898438 39.699219 L 18.601563 48 L 15 48 C 14.449219 48 14 48.449219 14 49 C 14 49.550781 14.449219 50 15 50 L 53 50 C 53.550781 50 54 49.550781 54 49 C 54 48.449219 53.550781 48 53 48 L 32.398438 48 L 44.300781 36.101563 C 44.6875 35.71875 45.3125 35.71875 45.699219 36.101563 L 52.300781 42.699219 C 52.699219 43 53.253906 42.960938 53.605469 42.605469 C 53.960938 42.253906 54 41.699219 53.699219 41.300781 L 47.101563 34.699219 C 45.914063 33.601563 44.085938 33.601563 42.898438 34.699219 Z M 21.398438 48 L 28.300781 41.101563 C 28.6875 40.71875 29.3125 40.71875 29.699219 41.101563 L 33.101563 44.5 L 29.601563 48 Z "></path>
<path style=" fill:#8D6C9F;" d="M 55 54 C 56.65625 54 58 52.65625 58 51 L 58 15 C 58 13.34375 56.65625 12 55 12 L 5 12 C 3.34375 12 2 13.34375 2 15 L 2 51 C 2 52.65625 3.34375 54 5 54 Z M 5 52 C 4.449219 52 4 51.550781 4 51 L 4 15 C 3.980469 14.730469 4.082031 14.464844 4.273438 14.273438 C 4.464844 14.082031 4.730469 13.980469 5 14 L 55 14 C 55.269531 13.980469 55.535156 14.082031 55.726563 14.273438 C 55.917969 14.464844 56.019531 14.730469 56 15 L 56 51 C 56.019531 51.269531 55.917969 51.535156 55.726563 51.726563 C 55.535156 51.917969 55.269531 52.019531 55 52 Z "></path>
<path style=" fill:#8D6C9F;" d="M 11 48 L 7 48 C 6.449219 48 6 48.449219 6 49 C 6 49.550781 6.449219 50 7 50 L 11 50 C 11.550781 50 12 49.550781 12 49 C 12 48.449219 11.550781 48 11 48 Z "></path>
<path style=" fill:#72CAAF;" d="M 63 51 C 63 57.628906 57.628906 63 51 63 C 44.371094 63 39 57.628906 39 51 C 39 44.371094 44.371094 39 51 39 C 57.628906 39 63 44.371094 63 51 Z "></path>
<path style=" fill:#8D6C9F;" d="M 51 64 C 43.820313 64 38 58.179688 38 51 C 38 43.820313 43.820313 38 51 38 C 58.179688 38 64 43.820313 64 51 C 64 58.179688 58.179688 64 51 64 Z M 51 40 C 44.925781 40 40 44.925781 40 51 C 40 57.074219 44.925781 62 51 62 C 57.074219 62 62 57.074219 62 51 C 62 44.925781 57.074219 40 51 40 Z "></path>
<path style=" fill:#F9EFDE;" d="M 57 50 L 52 50 L 52 45 C 52 44.449219 51.550781 44 51 44 C 50.449219 44 50 44.449219 50 45 L 50 50 L 45 50 C 44.449219 50 44 50.449219 44 51 C 44 51.550781 44.449219 52 45 52 L 50 52 L 50 57 C 50 57.550781 50.449219 58 51 58 C 51.550781 58 52 57.550781 52 57 L 52 52 L 57 52 C 57.550781 52 58 51.550781 58 51 C 58 50.449219 57.550781 50 57 50 Z "></path>
</g>
</svg>