<!--?xml version="1.0" encoding="UTF-8"?-->
<svg xmlns="http://www.w3.org/2000/svg" xmlns:xlink="http://www.w3.org/1999/xlink" viewBox="0 0 64 64" version="1.1">
<g id="surface1">
<path style=" fill:#C2CDE7;" d="M 1.429688 57.320313 L 1.429688 50 C 1.4375 45.957031 3.59375 42.222656 7.089844 40.191406 L 16.800781 34.570313 C 19.308594 37.628906 22.558594 39.78125 26.171875 39.78125 C 29.78125 39.78125 32 36.648438 34.53125 33.601563 L 46 40 L 46 58.351563 L 2.460938 58.351563 C 2.183594 58.359375 1.917969 58.253906 1.722656 58.058594 C 1.527344 57.863281 1.421875 57.59375 1.429688 57.320313 Z "></path>
<path style=" fill:#D6DFF2;" d="M 36.28125 39.859375 L 26 45 L 15.71875 39.859375 C 14.859375 39.429688 14.257813 38.609375 14.101563 37.660156 C 13.949219 36.707031 14.261719 35.742188 14.941406 35.058594 L 15 35 L 37 35 L 37.058594 35.058594 C 37.738281 35.742188 38.050781 36.707031 37.898438 37.660156 C 37.742188 38.609375 37.140625 39.429688 36.28125 39.859375 Z "></path>
<path style=" fill:#ACB7D0;" d="M 39 54 L 5 54 C 2.789063 54 1 55.789063 1 58 C 1 58.550781 1.449219 59 2 59 L 42 59 Z "></path>
<path style=" fill:#FAEFDE;" d="M 13.070313 26.128906 C 12.761719 26.128906 11.761719 25.308594 11.238281 23.359375 C 10.71875 21.410156 11.191406 20.089844 11.429688 20.03125 C 11.429688 20.03125 13.328125 19.699219 13.351563 19.320313 C 13.375 18.773438 13.433594 18.230469 13.53125 17.691406 C 13.585938 17.113281 13.558594 16.53125 13.449219 15.960938 C 13.1875 14.160156 13.140625 12.332031 13.320313 10.519531 C 13.660156 7.140625 15.640625 5.128906 18.628906 5.128906 C 18.855469 5.128906 19.078125 5.054688 19.261719 4.921875 C 21.285156 3.664063 23.617188 3 26 3 L 27.058594 3 C 33.480469 3 38.058594 6.28125 40.011719 12.070313 C 39.28125 11.988281 39.519531 12.5 39.011719 13 C 38.5 13.5 37.230469 13.699219 37.710938 15 C 38.289063 16.367188 38.628906 17.828125 38.710938 19.308594 C 38.710938 19.691406 40.609375 19.019531 40.628906 19.019531 C 40.890625 19.109375 41.351563 21.390625 40.820313 23.351563 C 40.289063 25.308594 39.300781 26.121094 38.988281 26.121094 C 38.53125 26.136719 38.128906 26.441406 37.988281 26.878906 C 36.210938 32.878906 31.550781 38.929688 26.070313 38.929688 C 20.589844 38.929688 15.859375 32.871094 14.078125 26.878906 C 13.945313 26.4375 13.535156 26.132813 13.070313 26.128906 Z "></path>
<path style=" fill:#CDA1A7;" d="M 13.449219 16 C 16.4375 15.796875 19.015625 13.828125 20 11 C 23 12 24 15 38 14 C 39.390625 13.898438 39.601563 14.390625 40 14 C 40.398438 13.609375 39.28125 12 40 12.070313 C 38.109375 6.28125 33.46875 3 27.058594 3 L 26 3 C 23.617188 2.992188 21.277344 3.648438 19.25 4.898438 C 19.066406 5.035156 18.847656 5.109375 18.621094 5.109375 C 15.621094 5.109375 13.621094 7.109375 13.308594 10.5 C 13.132813 12.3125 13.175781 14.136719 13.441406 15.941406 Z "></path>
<path style=" fill:#72CAAF;" d="M 63 51 C 63 57.628906 57.628906 63 51 63 C 44.371094 63 39 57.628906 39 51 C 39 44.371094 44.371094 39 51 39 C 57.628906 39 63 44.371094 63 51 Z "></path>
<path style=" fill:#FAEFDE;" d="M 57 50 L 52 50 L 52 45 C 52 44.449219 51.550781 44 51 44 C 50.449219 44 50 44.449219 50 45 L 50 50 L 45 50 C 44.449219 50 44 50.449219 44 51 C 44 51.550781 44.449219 52 45 52 L 50 52 L 50 57 C 50 57.550781 50.449219 58 51 58 C 51.550781 58 52 57.550781 52 57 L 52 52 L 57 52 C 57.550781 52 58 51.550781 58 51 C 58 50.449219 57.550781 50 57 50 Z "></path>
<path style=" fill:#8D6C9F;" d="M 31 52 C 30.449219 52 30 52.449219 30 53 L 30 55 C 30 55.550781 30.449219 56 31 56 C 31.550781 56 32 55.550781 32 55 L 32 53 C 32 52.449219 31.550781 52 31 52 Z "></path>
<path style=" fill:#8D6C9F;" d="M 36 52 C 35.449219 52 35 52.449219 35 53 L 35 55 C 35 55.550781 35.449219 56 36 56 C 36.550781 56 37 55.550781 37 55 L 37 53 C 37 52.449219 36.550781 52 36 52 Z "></path>
<path style=" fill:#8D6C9F;" d="M 26 52 C 25.449219 52 25 52.449219 25 53 L 25 55 C 25 55.550781 25.449219 56 26 56 C 26.550781 56 27 55.550781 27 55 L 27 53 C 27 52.449219 26.550781 52 26 52 Z "></path>
<path style=" fill:#8D6C9F;" d="M 21 52 C 20.449219 52 20 52.449219 20 53 L 20 55 C 20 55.550781 20.449219 56 21 56 C 21.550781 56 22 55.550781 22 55 L 22 53 C 22 52.449219 21.550781 52 21 52 Z "></path>
<path style=" fill:#8D6C9F;" d="M 16 52 C 15.449219 52 15 52.449219 15 53 L 15 55 C 15 55.550781 15.449219 56 16 56 C 16.550781 56 17 55.550781 17 55 L 17 53 C 17 52.449219 16.550781 52 16 52 Z "></path>
<path style=" fill:#8D6C9F;" d="M 11 52 C 10.449219 52 10 52.449219 10 53 L 10 55 C 10 55.550781 10.449219 56 11 56 C 11.550781 56 12 55.550781 12 55 L 12 53 C 12 52.449219 11.550781 52 11 52 Z "></path>
<path style=" fill:#8D6C9F;" d="M 6 52 C 5.449219 52 5 52.449219 5 53 L 5 55 C 5 55.550781 5.449219 56 6 56 C 6.550781 56 7 55.550781 7 55 L 7 53 C 7 52.449219 6.550781 52 6 52 Z "></path>
<path style=" fill:#8D6C9F;" d="M 21.921875 12.878906 C 24.785156 14.269531 27.925781 14.996094 31.109375 15 L 33.660156 15 C 34.210938 15 34.660156 14.550781 34.660156 14 C 34.660156 13.449219 34.210938 13 33.660156 13 L 31.109375 13 C 28.226563 12.996094 25.382813 12.339844 22.789063 11.078125 L 21.230469 10.320313 C 20.324219 9.878906 19.234375 10.179688 18.679688 11.019531 L 17.078125 13.449219 C 16.789063 13.910156 16.917969 14.519531 17.375 14.820313 C 17.828125 15.121094 18.441406 15 18.75 14.550781 L 20.351563 12.121094 Z "></path>
<path style=" fill:#8D6C9F;" d="M 33.550781 40.109375 L 26 43.878906 L 18.449219 40.101563 C 17.960938 39.875 17.378906 40.078125 17.136719 40.5625 C 16.898438 41.046875 17.082031 41.632813 17.558594 41.890625 L 25.558594 45.890625 C 25.839844 46.027344 26.167969 46.027344 26.449219 45.890625 L 34.449219 41.890625 C 34.78125 41.738281 35.003906 41.417969 35.03125 41.054688 C 35.054688 40.691406 34.882813 40.339844 34.578125 40.140625 C 34.269531 39.945313 33.882813 39.925781 33.558594 40.101563 Z "></path>
<path style=" fill:#8D6C9F;" d="M 51 38 C 49.285156 38 47.582031 38.339844 46 39 C 45.828125 38.890625 45.679688 38.769531 45.511719 38.671875 L 36.289063 33.328125 C 37.441406 31.59375 38.351563 29.710938 39 27.730469 C 40.230469 27.269531 41.351563 25.730469 41.878906 23.730469 C 42.621094 20.980469 41.878906 18.570313 40.28125 18.121094 C 40.140625 18.085938 39.996094 18.0625 39.851563 18.058594 C 39.679688 16.882813 39.371094 15.726563 38.929688 14.621094 L 38.929688 14.511719 C 39.402344 14.566406 39.867188 14.6875 40.308594 14.871094 C 40.65625 15.011719 41.050781 14.953125 41.335938 14.714844 C 41.621094 14.472656 41.75 14.09375 41.671875 13.730469 C 40 6.410156 34.558594 2 27 2 L 26 2 C 23.429688 2.011719 20.90625 2.699219 18.691406 4 C 15 4.140625 12.421875 6.761719 12 10.898438 C 11.816406 12.765625 11.859375 14.644531 12.128906 16.5 C 12.183594 16.832031 12.214844 17.164063 12.21875 17.5 C 12.21875 17.6875 12.191406 17.875 12.128906 18.058594 C 11.980469 18.0625 11.835938 18.082031 11.691406 18.121094 C 10.039063 18.558594 9.351563 20.96875 10.089844 23.730469 C 10.628906 25.730469 11.75 27.230469 12.96875 27.730469 C 13.621094 29.710938 14.535156 31.59375 15.691406 33.328125 L 6.488281 38.671875 C 2.472656 40.992188 0 45.28125 0 49.921875 L 0 57 C 0 58.65625 1.34375 60 3 60 L 41.640625 60 C 45.738281 64.273438 52.207031 65.234375 57.371094 62.34375 C 62.535156 59.453125 65.097656 53.4375 63.597656 47.707031 C 62.097656 41.980469 56.917969 37.992188 51 38 Z M 13.769531 25.878906 C 13.480469 25.878906 12.53125 25.101563 12.039063 23.261719 C 11.550781 21.421875 11.988281 20.171875 12.21875 20.109375 C 12.320313 20.128906 12.410156 20.167969 12.488281 20.230469 C 12.789063 20.410156 13.160156 20.417969 13.46875 20.253906 C 13.777344 20.089844 13.980469 19.777344 14 19.429688 C 14.023438 18.914063 14.082031 18.398438 14.171875 17.890625 C 14.222656 17.34375 14.195313 16.789063 14.089844 16.25 C 13.851563 14.542969 13.820313 12.8125 14 11.101563 C 14.308594 7.910156 16.191406 6 19 6 C 19.214844 6 19.425781 5.929688 19.601563 5.800781 C 21.523438 4.613281 23.742188 3.988281 26 4 L 27 4 C 33.070313 4 37.449219 7.101563 39.25 12.578125 C 38.578125 12.449219 37.878906 12.625 37.351563 13.058594 C 36.773438 13.6875 36.65625 14.609375 37.058594 15.359375 C 37.59375 16.65625 37.898438 18.03125 37.960938 19.429688 C 37.976563 19.785156 38.183594 20.105469 38.503906 20.269531 C 38.820313 20.433594 39.199219 20.414063 39.5 20.21875 C 39.578125 20.160156 39.671875 20.117188 39.769531 20.101563 C 40.011719 20.179688 40.449219 21.398438 39.949219 23.25 C 39.449219 25.101563 38.511719 25.871094 38.21875 25.871094 C 37.753906 25.828125 37.328125 26.132813 37.21875 26.589844 C 35.589844 32.261719 31.179688 38 26 38 C 20.820313 38 16.410156 32.261719 14.71875 26.601563 C 14.597656 26.175781 14.210938 25.882813 13.769531 25.878906 Z M 3 58 C 2.449219 58 2 57.550781 2 57 L 2 49.921875 C 2 45.996094 4.09375 42.367188 7.488281 40.398438 L 16.910156 34.949219 C 19.339844 37.910156 22.5 40 26 40 C 29.5 40 32.660156 37.910156 35.089844 34.941406 L 44 40.078125 C 41.097656 41.929688 39.046875 44.859375 38.308594 48.222656 C 37.570313 51.585938 38.199219 55.101563 40.058594 58 Z M 51 62 C 44.925781 62 40 57.074219 40 51 C 40 44.925781 44.925781 40 51 40 C 57.074219 40 62 44.925781 62 51 C 62 57.074219 57.074219 62 51 62 Z "></path>
</g>
</svg>