<svg xmlns="http://www.w3.org/2000/svg" xmlns:xlink="http://www.w3.org/1999/xlink" viewBox="0 0 64 64" version="1.1">
<g id="surface1">
<path style=" fill:#C5E4FA;" d="M 59 31 C 59 46.464844 46.464844 59 31 59 C 15.535156 59 3 46.464844 3 31 C 3 15.535156 15.535156 3 31 3 C 46.464844 3 59 15.535156 59 31 Z "></path>
<path style=" fill:#E3F2FF;" d="M 12.714844 52.285156 C 15.339844 54.785156 18.449219 56.777344 21.890625 58.109375 L 56 24 L 56 17.574219 C 54.941406 15.816406 53.691406 14.191406 52.285156 12.714844 Z "></path>
<path style=" fill:#E3F2FF;" d="M 10.761719 50.238281 L 50 11 L 44 11 L 8.222656 46.777344 C 8.980469 47.996094 9.832031 49.152344 10.761719 50.238281 Z "></path>
<path style=" fill:#E3F2FF;" d="M 7.796875 43.203125 L 41 10 L 38 8 L 6.363281 39.636719 C 6.761719 40.863281 7.238281 42.058594 7.796875 43.203125 Z "></path>
<path style=" fill:#C2CDE7;" d="M 48 53 L 14 53 L 14.59375 42.753906 L 23 36 L 31 35 L 38.332031 36 L 46.40625 41.746094 Z "></path>
<path style=" fill:#CED8EA;" d="M 31 43 C 33.984375 43 36.6875 41.167969 38.683594 38.195313 C 39.265625 37.328125 39.015625 36.035156 38.171875 35.558594 L 38.003906 35.460938 C 36.152344 38.238281 33.707031 40.214844 31 40.214844 C 28.292969 40.214844 25.851563 38.238281 23.996094 35.460938 L 23.828125 35.558594 C 22.984375 36.035156 22.734375 37.328125 23.316406 38.195313 C 25.3125 41.167969 28.015625 43 31 43 Z "></path>
<path style=" fill:#FAEFDE;" d="M 22.378906 31.417969 C 22.171875 31.417969 21.507813 30.867188 21.160156 29.570313 C 20.804688 28.253906 21.121094 27.390625 21.285156 27.347656 C 21.285156 27.347656 22.554688 27.125 22.566406 26.875 C 22.582031 26.507813 22.621094 26.140625 22.683594 25.785156 C 22.738281 25.484375 22.695313 25.144531 22.628906 24.632813 C 22.527344 23.839844 22.375 22.648438 22.539063 21.003906 C 22.765625 18.753906 24.082031 17.410156 26.078125 17.410156 C 26.230469 17.410156 26.378906 17.359375 26.5 17.269531 C 27.46875 16.546875 29.402344 16 31 16 L 31.703125 16 C 35.980469 16 39.070313 18.1875 40.335938 22.046875 C 39.851563 21.992188 40.011719 22.335938 39.667969 22.667969 C 39.398438 22.925781 38.476563 23.132813 38.796875 24.003906 C 39.234375 25.183594 39.386719 25.882813 39.433594 26.875 C 39.445313 27.125 40.699219 26.679688 40.710938 26.679688 C 40.882813 26.738281 41.191406 28.261719 40.839844 29.570313 C 40.492188 30.867188 39.824219 31.417969 39.621094 31.417969 C 39.332031 31.414063 39.03125 31.621094 38.945313 31.921875 C 37.757813 35.914063 34.648438 39.957031 31 39.957031 C 27.351563 39.957031 24.242188 35.914063 23.054688 31.921875 C 22.96875 31.621094 22.691406 31.417969 22.378906 31.417969 Z "></path>
<path style=" fill:#CDA1A7;" d="M 22.632813 24.667969 C 22.632813 24.667969 25.664063 24.667969 27 21.335938 C 29 22 29.664063 24 39 23.335938 C 39.925781 23.269531 40.0625 23.59375 40.332031 23.335938 C 40.679688 23.003906 39.847656 21.992188 40.335938 22.046875 C 39.070313 18.1875 35.980469 16 31.703125 16 L 31 16 C 29.402344 16 27.46875 16.546875 26.503906 17.269531 C 26.382813 17.359375 26.234375 17.410156 26.082031 17.410156 C 24.085938 17.410156 22.765625 18.753906 22.542969 21.003906 C 22.378906 22.644531 22.53125 23.839844 22.632813 24.632813 C 22.632813 24.644531 22.632813 24.652344 22.632813 24.667969 Z "></path>
<path style=" fill:#F9E3AE;" d="M 31 3 C 15.535156 3 3 15.535156 3 31 C 3 46.464844 15.535156 59 31 59 C 46.464844 59 59 46.464844 59 31 C 59 15.535156 46.464844 3 31 3 Z M 31 53 C 18.851563 53 9 43.148438 9 31 C 9 18.851563 18.851563 9 31 9 C 36.882813 9 42.226563 11.308594 46.175781 15.070313 C 46.40625 15.289063 46.628906 15.515625 46.851563 15.742188 C 47.109375 16.011719 47.359375 16.285156 47.605469 16.570313 C 50.964844 20.433594 53 25.476563 53 31 C 53 43.148438 43.148438 53 31 53 Z "></path>
<path style=" fill:#F6D397;" d="M 31 53 C 18.851563 53 9 43.148438 9 31 L 7.339844 31 C 4.847656 31 2.976563 33.25 3.394531 35.707031 C 5.632813 48.929688 17.140625 59 31 59 C 44.859375 59 56.367188 48.929688 58.605469 35.707031 C 59.023438 33.25 57.152344 31 54.660156 31 L 53 31 C 53 43.148438 43.148438 53 31 53 Z "></path>
<path style=" fill:#8D6C9F;" d="M 31 2 C 15.011719 2 2 15.007813 2 31 C 2 46.992188 15.011719 60 31 60 C 46.988281 60 60 46.992188 60 31 C 60 15.007813 46.988281 2 31 2 Z M 31 58 C 16.113281 58 4 45.886719 4 31 C 4 16.113281 16.113281 4 31 4 C 45.886719 4 58 16.113281 58 31 C 58 45.886719 45.886719 58 31 58 Z "></path>
<path style=" fill:#8D6C9F;" d="M 31 50 C 30.445313 50 30 50.449219 30 51 L 30 53 C 30 53.550781 30.445313 54 31 54 C 31.554688 54 32 53.550781 32 53 L 32 51 C 32 50.449219 31.554688 50 31 50 Z "></path>
<path style=" fill:#8D6C9F;" d="M 37.011719 50.078125 C 36.871094 49.542969 36.324219 49.226563 35.789063 49.371094 C 35.253906 49.511719 34.9375 50.0625 35.082031 50.59375 L 35.597656 52.527344 C 35.71875 52.972656 36.121094 53.269531 36.5625 53.269531 C 36.648438 53.269531 36.738281 53.257813 36.824219 53.234375 C 37.355469 53.089844 37.675781 52.542969 37.53125 52.007813 Z "></path>
<path style=" fill:#8D6C9F;" d="M 21.75 47.519531 C 21.269531 47.246094 20.660156 47.410156 20.382813 47.886719 L 19.382813 49.617188 C 19.109375 50.097656 19.273438 50.710938 19.75 50.984375 C 19.90625 51.074219 20.078125 51.117188 20.25 51.117188 C 20.59375 51.117188 20.929688 50.941406 21.117188 50.617188 L 22.117188 48.886719 C 22.394531 48.410156 22.230469 47.796875 21.75 47.519531 Z "></path>
<path style=" fill:#8D6C9F;" d="M 41.617188 47.886719 C 41.339844 47.410156 40.726563 47.246094 40.25 47.523438 C 39.769531 47.796875 39.605469 48.410156 39.882813 48.886719 L 40.882813 50.621094 C 41.070313 50.941406 41.40625 51.121094 41.75 51.121094 C 41.921875 51.121094 42.09375 51.078125 42.25 50.984375 C 42.730469 50.710938 42.894531 50.097656 42.617188 49.621094 Z "></path>
<path style=" fill:#8D6C9F;" d="M 26.210938 49.371094 C 25.679688 49.226563 25.128906 49.542969 24.988281 50.078125 L 24.46875 52.007813 C 24.324219 52.542969 24.644531 53.089844 25.175781 53.234375 C 25.261719 53.257813 25.351563 53.269531 25.4375 53.269531 C 25.878906 53.269531 26.28125 52.972656 26.402344 52.527344 L 26.917969 50.59375 C 27.0625 50.0625 26.746094 49.511719 26.210938 49.371094 Z "></path>
<path style=" fill:#8D6C9F;" d="M 38.351563 11.320313 C 39.0625 11.589844 39.769531 11.898438 40.449219 12.242188 C 40.597656 12.3125 40.75 12.347656 40.898438 12.347656 C 41.265625 12.347656 41.617188 12.148438 41.792969 11.800781 C 42.042969 11.304688 41.84375 10.703125 41.351563 10.457031 C 40.609375 10.078125 39.832031 9.742188 39.050781 9.449219 C 38.535156 9.257813 37.957031 9.519531 37.765625 10.035156 C 37.570313 10.554688 37.832031 11.128906 38.351563 11.320313 Z "></path>
<path style=" fill:#8D6C9F;" d="M 47.265625 14.738281 C 46.605469 14.078125 45.902344 13.453125 45.171875 12.882813 C 44.734375 12.539063 44.105469 12.617188 43.765625 13.050781 C 43.425781 13.484375 43.5 14.113281 43.9375 14.453125 C 44.605469 14.976563 45.246094 15.550781 45.851563 16.152344 C 53.179688 23.480469 53.925781 34.910156 48.136719 43.101563 C 45.867188 39.253906 42.460938 36.460938 38.527344 35.105469 C 39.0625 34.191406 39.511719 33.222656 39.84375 32.242188 C 40.695313 31.847656 41.429688 30.832031 41.796875 29.46875 C 42.339844 27.4375 41.792969 25.710938 40.496094 25.363281 C 40.472656 25.355469 40.449219 25.351563 40.425781 25.34375 C 40.34375 24.847656 40.214844 24.355469 40.023438 23.78125 C 40.109375 23.808594 40.195313 23.839844 40.273438 23.871094 C 40.617188 24.015625 41.011719 23.953125 41.296875 23.714844 C 41.582031 23.476563 41.714844 23.097656 41.632813 22.734375 C 40.535156 17.707031 36.804688 14.707031 31.65625 14.707031 L 31 14.707031 C 29.570313 14.707031 27.480469 15.125 26.078125 16.03125 C 23.535156 16.171875 21.730469 18.042969 21.449219 20.871094 C 21.277344 22.597656 21.4375 23.875 21.535156 24.636719 C 21.566406 24.867188 21.601563 25.15625 21.601563 25.21875 C 21.59375 25.261719 21.585938 25.304688 21.578125 25.34375 C 21.554688 25.351563 21.527344 25.355469 21.503906 25.363281 C 20.207031 25.710938 19.660156 27.4375 20.203125 29.472656 C 20.570313 30.832031 21.308594 31.851563 22.15625 32.246094 C 22.488281 33.222656 22.9375 34.195313 23.472656 35.109375 C 19.539063 36.464844 16.132813 39.253906 13.863281 43.101563 C 8.074219 34.910156 8.820313 23.480469 16.148438 16.152344 C 20.898438 11.402344 27.695313 9.199219 34.335938 10.265625 C 34.878906 10.351563 35.394531 9.980469 35.484375 9.4375 C 35.570313 8.890625 35.199219 8.378906 34.652344 8.289063 C 27.386719 7.125 19.9375 9.535156 14.734375 14.734375 C 5.769531 23.703125 5.769531 38.296875 14.734375 47.261719 C 14.929688 47.457031 15.1875 47.554688 15.441406 47.554688 C 15.699219 47.554688 15.953125 47.457031 16.148438 47.261719 C 16.539063 46.871094 16.539063 46.238281 16.148438 45.847656 C 15.816406 45.511719 15.515625 45.15625 15.207031 44.804688 C 17.3125 40.839844 20.710938 38.015625 24.648438 36.816406 C 26.324219 38.910156 28.539063 40.402344 31 40.402344 C 33.460938 40.402344 35.675781 38.910156 37.351563 36.816406 C 41.289063 38.015625 44.6875 40.839844 46.789063 44.804688 C 46.484375 45.15625 46.183594 45.511719 45.847656 45.847656 C 45.457031 46.238281 45.457031 46.871094 45.847656 47.261719 C 46.042969 47.457031 46.300781 47.554688 46.554688 47.554688 C 46.8125 47.554688 47.066406 47.457031 47.261719 47.261719 C 56.230469 38.296875 56.230469 23.703125 47.265625 14.738281 Z M 31 38.402344 C 27.792969 38.402344 24.953125 34.660156 23.90625 31.140625 C 23.78125 30.71875 23.445313 30.433594 23.003906 30.433594 C 22.871094 30.386719 22.398438 29.929688 22.136719 28.953125 C 21.941406 28.222656 21.992188 27.683594 22.066406 27.410156 C 22.339844 27.527344 22.652344 27.519531 22.921875 27.382813 C 23.238281 27.21875 23.445313 26.898438 23.464844 26.539063 C 23.480469 26.214844 23.515625 25.886719 23.570313 25.566406 C 23.628906 25.234375 23.585938 24.878906 23.519531 24.386719 C 23.429688 23.660156 23.289063 22.570313 23.4375 21.070313 C 23.632813 19.136719 24.710938 18.023438 26.40625 18.023438 C 26.621094 18.023438 26.832031 17.953125 27.003906 17.824219 C 27.839844 17.199219 29.597656 16.707031 31 16.707031 L 31.660156 16.707031 C 35.316406 16.707031 38.007813 18.492188 39.234375 21.660156 C 38.867188 21.691406 38.515625 21.8125 38.238281 22.082031 C 37.972656 22.335938 37.582031 22.921875 37.964844 23.960938 C 38.359375 25.027344 38.496094 25.652344 38.539063 26.539063 C 38.554688 26.898438 38.792969 27.203125 39.109375 27.367188 C 39.359375 27.492188 39.667969 27.5 39.933594 27.402344 C 40.007813 27.675781 40.0625 28.214844 39.863281 28.953125 C 39.601563 29.929688 39.132813 30.386719 39.054688 30.425781 C 38.609375 30.425781 38.21875 30.714844 38.09375 31.140625 C 37.046875 34.660156 34.207031 38.402344 31 38.402344 Z "></path>
<path style=" fill:#8D6C9F;" d="M 36.046875 21.945313 L 34.363281 21.945313 C 32.53125 21.945313 30.6875 21.523438 29.035156 20.71875 L 28.007813 20.21875 C 27.261719 19.855469 26.355469 20.101563 25.898438 20.796875 L 24.84375 22.398438 C 24.539063 22.859375 24.664063 23.480469 25.128906 23.78125 C 25.296875 23.894531 25.488281 23.949219 25.675781 23.949219 C 26.003906 23.949219 26.320313 23.789063 26.511719 23.496094 L 27.402344 22.148438 L 28.160156 22.515625 C 30.085938 23.453125 32.230469 23.949219 34.367188 23.949219 L 36.046875 23.949219 C 36.601563 23.949219 37.046875 23.5 37.046875 22.949219 C 37.046875 22.394531 36.601563 21.945313 36.046875 21.945313 Z "></path>
</g>
</svg>