<!--?xml version="1.0" encoding="UTF-8"?-->
<svg xmlns="http://www.w3.org/2000/svg" xmlns:xlink="http://www.w3.org/1999/xlink" viewBox="0 0 80 80" version="1.1">
<g id="surface1">
<path style=" " d="M 59.445313 12.609375 C 56.492188 12.585938 53.53125 13.679688 51.25 15.890625 L 22.605469 43.804688 C 19.804688 46.527344 19.773438 51.046875 22.535156 53.808594 L 22.828125 54.101563 L 22.976563 54.101563 C 25.730469 56.460938 29.867188 56.414063 32.46875 53.808594 L 56.667969 29.609375 L 55.25 28.199219 L 31.058594 52.394531 C 29.085938 54.367188 25.921875 54.367188 23.949219 52.394531 C 21.957031 50.402344 21.980469 47.199219 24 45.234375 L 52.644531 17.328125 C 56.433594 13.648438 62.445313 13.691406 66.175781 17.421875 C 69.980469 21.226563 69.945313 27.367188 66.101563 31.128906 L 35.222656 61.332031 C 29.632813 66.804688 20.707031 66.757813 15.175781 61.222656 C 9.601563 55.648438 9.601563 46.636719 15.175781 41.0625 L 30.207031 26.03125 L 28.796875 24.613281 L 13.761719 39.648438 C 7.421875 45.988281 7.421875 56.296875 13.761719 62.640625 L 14.054688 62.933594 L 14.121094 62.933594 C 20.433594 68.894531 30.375 68.875 36.625 62.765625 L 67.5 32.558594 C 71.613281 28.535156 71.886719 22.289063 68.71875 17.71875 L 69.296875 17.71875 L 67.59375 16.011719 C 65.347656 13.765625 62.398438 12.628906 59.445313 12.609375 Z M 56 17 C 55.449219 17 55 17.449219 55 18 C 55 18.550781 55.449219 19 56 19 C 56.550781 19 57 18.550781 57 18 C 57 17.449219 56.550781 17 56 17 Z M 53 20 C 52.449219 20 52 20.449219 52 21 C 52 21.550781 52.449219 22 53 22 C 53.550781 22 54 21.550781 54 21 C 54 20.449219 53.550781 20 53 20 Z M 50 23 C 49.449219 23 49 23.449219 49 24 C 49 24.550781 49.449219 25 50 25 C 50.550781 25 51 24.550781 51 24 C 51 23.449219 50.550781 23 50 23 Z M 47 26 C 46.449219 26 46 26.449219 46 27 C 46 27.550781 46.449219 28 47 28 C 47.550781 28 48 27.550781 48 27 C 48 26.449219 47.550781 26 47 26 Z M 65 27 C 64.449219 27 64 27.449219 64 28 C 64 28.550781 64.449219 29 65 29 C 65.550781 29 66 28.550781 66 28 C 66 27.449219 65.550781 27 65 27 Z M 32 28 C 31.449219 28 31 28.449219 31 29 C 31 29.550781 31.449219 30 32 30 C 32.550781 30 33 29.550781 33 29 C 33 28.449219 32.550781 28 32 28 Z M 44 29 C 43.449219 29 43 29.449219 43 30 C 43 30.550781 43.449219 31 44 31 C 44.550781 31 45 30.550781 45 30 C 45 29.449219 44.550781 29 44 29 Z M 62 30 C 61.449219 30 61 30.449219 61 31 C 61 31.550781 61.449219 32 62 32 C 62.550781 32 63 31.550781 63 31 C 63 30.449219 62.550781 30 62 30 Z M 29 31 C 28.449219 31 28 31.449219 28 32 C 28 32.550781 28.449219 33 29 33 C 29.550781 33 30 32.550781 30 32 C 30 31.449219 29.550781 31 29 31 Z M 41 32 C 40.449219 32 40 32.449219 40 33 C 40 33.550781 40.449219 34 41 34 C 41.550781 34 42 33.550781 42 33 C 42 32.449219 41.550781 32 41 32 Z M 59 33 C 58.449219 33 58 33.449219 58 34 C 58 34.550781 58.449219 35 59 35 C 59.550781 35 60 34.550781 60 34 C 60 33.449219 59.550781 33 59 33 Z M 26 34 C 25.449219 34 25 34.449219 25 35 C 25 35.550781 25.449219 36 26 36 C 26.550781 36 27 35.550781 27 35 C 27 34.449219 26.550781 34 26 34 Z M 38 35 C 37.449219 35 37 35.449219 37 36 C 37 36.550781 37.449219 37 38 37 C 38.550781 37 39 36.550781 39 36 C 39 35.449219 38.550781 35 38 35 Z M 56 36 C 55.449219 36 55 36.449219 55 37 C 55 37.550781 55.449219 38 56 38 C 56.550781 38 57 37.550781 57 37 C 57 36.449219 56.550781 36 56 36 Z M 23 37 C 22.449219 37 22 37.449219 22 38 C 22 38.550781 22.449219 39 23 39 C 23.550781 39 24 38.550781 24 38 C 24 37.449219 23.550781 37 23 37 Z M 35 38 C 34.449219 38 34 38.449219 34 39 C 34 39.550781 34.449219 40 35 40 C 35.550781 40 36 39.550781 36 39 C 36 38.449219 35.550781 38 35 38 Z M 53 39 C 52.449219 39 52 39.449219 52 40 C 52 40.550781 52.449219 41 53 41 C 53.550781 41 54 40.550781 54 40 C 54 39.449219 53.550781 39 53 39 Z M 20 40 C 19.449219 40 19 40.449219 19 41 C 19 41.550781 19.449219 42 20 42 C 20.550781 42 21 41.550781 21 41 C 21 40.449219 20.550781 40 20 40 Z M 32 41 C 31.449219 41 31 41.449219 31 42 C 31 42.550781 31.449219 43 32 43 C 32.550781 43 33 42.550781 33 42 C 33 41.449219 32.550781 41 32 41 Z M 50 42 C 49.449219 42 49 42.449219 49 43 C 49 43.550781 49.449219 44 50 44 C 50.550781 44 51 43.550781 51 43 C 51 42.449219 50.550781 42 50 42 Z M 17 43 C 16.449219 43 16 43.449219 16 44 C 16 44.550781 16.449219 45 17 45 C 17.550781 45 18 44.550781 18 44 C 18 43.449219 17.550781 43 17 43 Z M 29 44 C 28.449219 44 28 44.449219 28 45 C 28 45.550781 28.449219 46 29 46 C 29.550781 46 30 45.550781 30 45 C 30 44.449219 29.550781 44 29 44 Z M 47 45 C 46.449219 45 46 45.449219 46 46 C 46 46.550781 46.449219 47 47 47 C 47.550781 47 48 46.550781 48 46 C 48 45.449219 47.550781 45 47 45 Z M 26 47 C 25.449219 47 25 47.449219 25 48 C 25 48.550781 25.449219 49 26 49 C 26.550781 49 27 48.550781 27 48 C 27 47.449219 26.550781 47 26 47 Z M 44 48 C 43.449219 48 43 48.449219 43 49 C 43 49.550781 43.449219 50 44 50 C 44.550781 50 45 49.550781 45 49 C 45 48.449219 44.550781 48 44 48 Z M 41 51 C 40.449219 51 40 51.449219 40 52 C 40 52.550781 40.449219 53 41 53 C 41.550781 53 42 52.550781 42 52 C 42 51.449219 41.550781 51 41 51 Z M 38 54 C 37.449219 54 37 54.449219 37 55 C 37 55.550781 37.449219 56 38 56 C 38.550781 56 39 55.550781 39 55 C 39 54.449219 38.550781 54 38 54 Z M 35 57 C 34.449219 57 34 57.449219 34 58 C 34 58.550781 34.449219 59 35 59 C 35.550781 59 36 58.550781 36 58 C 36 57.449219 35.550781 57 35 57 Z "></path>
</g>
</svg>