<!--?xml version="1.0" encoding="UTF-8"?-->
<svg xmlns="http://www.w3.org/2000/svg" xmlns:xlink="http://www.w3.org/1999/xlink" viewBox="0 0 64 64" version="1.1">
<g id="surface1">
<path style=" fill:#72CAAF;" d="M 12 32.121094 L 41 61.121094 L 45.238281 56.878906 L 23.359375 35 L 20.121094 32 L 23.359375 29 L 45.238281 7.121094 L 41 2.878906 L 12 31.878906 L 12.121094 32 Z "></path>
<path style=" fill:#97E0BB;" d="M 40.5 7.621094 L 16.738281 31.378906 C 15.570313 32.550781 13.671875 32.550781 12.5 31.378906 L 40.5 3.378906 C 41.667969 4.550781 41.667969 6.449219 40.5 7.621094 Z "></path>
<path style=" fill:#8D6C9F;" d="M 21.410156 32 L 45.710938 7.710938 C 46.097656 7.320313 46.097656 6.691406 45.710938 6.300781 L 41.710938 2.300781 C 41.320313 1.914063 40.691406 1.914063 40.300781 2.300781 L 11.300781 31.300781 C 10.914063 31.691406 10.914063 32.320313 11.300781 32.710938 L 40.300781 61.710938 C 40.691406 62.097656 41.320313 62.097656 41.710938 61.710938 L 45.710938 57.710938 C 46.097656 57.320313 46.097656 56.691406 45.710938 56.300781 Z M 41 59.589844 L 13.410156 32 L 41 4.410156 L 43.589844 7 L 19.289063 31.289063 C 18.902344 31.679688 18.902344 32.308594 19.289063 32.699219 L 43.589844 57 Z "></path>
<path style=" fill:#8D6C9F;" d="M 30.910156 37.320313 C 31.175781 37.320313 31.429688 37.21875 31.621094 37.03125 L 33 35.621094 C 33.339844 35.222656 33.316406 34.632813 32.949219 34.261719 C 32.578125 33.894531 31.988281 33.871094 31.589844 34.210938 L 30.199219 35.621094 C 29.910156 35.90625 29.824219 36.339844 29.980469 36.714844 C 30.136719 37.089844 30.503906 37.332031 30.910156 37.328125 Z "></path>
<path style=" fill:#8D6C9F;" d="M 35.148438 37.738281 L 33.738281 39.148438 C 33.453125 39.394531 33.332031 39.777344 33.417969 40.144531 C 33.507813 40.507813 33.792969 40.792969 34.15625 40.882813 C 34.523438 40.96875 34.90625 40.84375 35.148438 40.558594 L 36.558594 39.148438 C 36.898438 38.753906 36.875 38.160156 36.507813 37.792969 C 36.136719 37.421875 35.546875 37.398438 35.148438 37.738281 Z "></path>
<path style=" fill:#8D6C9F;" d="M 38.691406 41.269531 L 37.28125 42.679688 C 36.996094 42.925781 36.871094 43.308594 36.957031 43.671875 C 37.046875 44.039063 37.332031 44.324219 37.695313 44.410156 C 38.0625 44.5 38.445313 44.375 38.691406 44.089844 L 40.101563 42.679688 C 40.441406 42.285156 40.417969 41.691406 40.046875 41.324219 C 39.679688 40.953125 39.085938 40.929688 38.691406 41.269531 Z "></path>
<path style=" fill:#8D6C9F;" d="M 42.21875 44.808594 L 40.808594 46.21875 C 40.523438 46.464844 40.398438 46.847656 40.488281 47.214844 C 40.574219 47.578125 40.859375 47.863281 41.226563 47.953125 C 41.59375 48.039063 41.976563 47.914063 42.21875 47.628906 L 43.628906 46.21875 C 43.96875 45.824219 43.945313 45.230469 43.578125 44.863281 C 43.207031 44.492188 42.617188 44.46875 42.21875 44.808594 Z "></path>
<path style=" fill:#8D6C9F;" d="M 45.761719 48.339844 L 44.351563 49.75 C 44.066406 49.996094 43.941406 50.378906 44.027344 50.742188 C 44.117188 51.109375 44.402344 51.394531 44.765625 51.480469 C 45.132813 51.570313 45.515625 51.445313 45.761719 51.160156 L 47.171875 49.75 C 47.511719 49.351563 47.488281 48.761719 47.117188 48.390625 C 46.75 48.023438 46.15625 48 45.761719 48.339844 Z "></path>
<path style=" fill:#8D6C9F;" d="M 49.289063 51.878906 L 47.878906 53.289063 C 47.59375 53.535156 47.46875 53.917969 47.558594 54.285156 C 47.644531 54.648438 47.929688 54.933594 48.296875 55.023438 C 48.660156 55.109375 49.046875 54.984375 49.289063 54.699219 L 50.699219 53.289063 C 51.039063 52.894531 51.015625 52.300781 50.648438 51.933594 C 50.277344 51.5625 49.6875 51.539063 49.289063 51.878906 Z "></path>
<path style=" fill:#8D6C9F;" d="M 29.289063 30.921875 L 27.289063 30.921875 C 26.738281 30.921875 26.289063 31.367188 26.289063 31.921875 C 26.289063 32.472656 26.738281 32.921875 27.289063 32.921875 L 29.289063 32.921875 C 29.84375 32.921875 30.289063 32.472656 30.289063 31.921875 C 30.289063 31.367188 29.84375 30.921875 29.289063 30.921875 Z "></path>
<path style=" fill:#8D6C9F;" d="M 33 28.378906 L 31.621094 27 C 31.222656 26.660156 30.632813 26.683594 30.261719 27.050781 C 29.894531 27.421875 29.871094 28.011719 30.210938 28.410156 L 31.621094 29.820313 C 32.023438 30.152344 32.617188 30.117188 32.976563 29.742188 C 33.339844 29.363281 33.351563 28.769531 33 28.378906 Z "></path>
<path style=" fill:#8D6C9F;" d="M 36.558594 24.851563 L 35.148438 23.441406 C 34.753906 23.101563 34.160156 23.125 33.792969 23.492188 C 33.421875 23.863281 33.398438 24.453125 33.738281 24.851563 L 35.148438 26.261719 C 35.546875 26.601563 36.136719 26.578125 36.507813 26.207031 C 36.875 25.839844 36.898438 25.246094 36.558594 24.851563 Z "></path>
<path style=" fill:#8D6C9F;" d="M 40.101563 21.308594 L 38.691406 19.898438 C 38.292969 19.558594 37.703125 19.582031 37.332031 19.953125 C 36.964844 20.320313 36.941406 20.914063 37.28125 21.308594 L 38.691406 22.71875 C 39.085938 23.058594 39.679688 23.035156 40.046875 22.667969 C 40.417969 22.296875 40.441406 21.707031 40.101563 21.308594 Z "></path>
<path style=" fill:#8D6C9F;" d="M 43.640625 17.78125 L 42.230469 16.371094 C 41.832031 16.03125 41.242188 16.054688 40.871094 16.421875 C 40.503906 16.792969 40.480469 17.382813 40.820313 17.78125 L 42.230469 19.191406 C 42.625 19.53125 43.21875 19.507813 43.585938 19.136719 C 43.957031 18.769531 43.980469 18.175781 43.640625 17.78125 Z "></path>
<path style=" fill:#8D6C9F;" d="M 45.761719 12.828125 C 45.363281 12.488281 44.773438 12.511719 44.402344 12.882813 C 44.03125 13.25 44.011719 13.84375 44.351563 14.238281 L 45.761719 15.648438 C 46.15625 15.988281 46.75 15.96875 47.117188 15.597656 C 47.488281 15.226563 47.511719 14.636719 47.171875 14.238281 Z "></path>
<path style=" fill:#8D6C9F;" d="M 49.289063 12.121094 C 49.6875 12.460938 50.277344 12.4375 50.648438 12.066406 C 51.015625 11.699219 51.039063 11.105469 50.699219 10.710938 L 49.289063 9.289063 C 48.894531 8.949219 48.300781 8.972656 47.933594 9.34375 C 47.5625 9.710938 47.539063 10.304688 47.878906 10.699219 Z "></path>
</g>
</svg>