<!--?xml version="1.0" encoding="UTF-8"?-->
<svg xmlns="http://www.w3.org/2000/svg" xmlns:xlink="http://www.w3.org/1999/xlink" viewBox="0 0 64 64" version="1.1">
<g id="surface1">
<path style=" fill:#FAEFDE;" d="M 17.238281 4.941406 L 46 4.941406 C 47.65625 4.941406 49 6.28125 49 7.941406 L 49 55.941406 C 49 57.597656 47.65625 58.941406 46 58.941406 L 8 58.941406 C 6.34375 58.941406 5 57.597656 5 55.941406 L 5 17.179688 C 5 16.382813 5.316406 15.621094 5.878906 15.058594 L 15.121094 5.820313 C 15.683594 5.257813 16.445313 4.941406 17.238281 4.941406 Z "></path>
<path style=" fill:#FFF7F0;" d="M 5 59 L 4.851563 49.539063 L 48.339844 6.058594 L 49 29 L 19 59 Z "></path>
<path style=" fill:#FFF7F0;" d="M 4.851563 39.148438 L 39.058594 4.941406 L 44.808594 5.191406 L 5 45 Z "></path>
<path style=" fill:#FFF7F0;" d="M 4.851563 33.148438 L 33 5 L 36 5 L 4.851563 36.148438 Z "></path>
<path style=" fill:#FFFFFF;" d="M 39.5 13 L 40.738281 15.261719 L 43 16.5 L 40.738281 17.738281 L 39.5 20 L 38.261719 17.738281 L 36 16.5 L 38.261719 15.261719 Z "></path>
<path style=" fill:#FFFFFF;" d="M 24.421875 11 L 25.269531 12.558594 L 26.839844 13.421875 L 25.269531 14.269531 L 24.421875 15.839844 L 23.558594 14.269531 L 22 13.421875 L 23.558594 12.558594 Z "></path>
<path style=" fill:#FFFFFF;" d="M 10.648438 42 L 11.230469 43.058594 L 12.300781 43.648438 L 11.230469 44.230469 L 10.648438 45.300781 L 10.058594 44.230469 L 9 43.648438 L 10.058594 43.058594 Z "></path>
<path style=" fill:#BBDEF9;" d="M 17 5 L 17 17 L 5 17 Z "></path>
<path style=" fill:#C2CDE7;" d="M 47.761719 46.429688 L 58.890625 52 C 60.25 52.675781 61.109375 54.0625 61.109375 55.578125 L 61.109375 58 C 61.109375 58.550781 60.664063 59 60.109375 59 L 28 59 C 27.449219 59 27 58.550781 27 58 L 27 55.550781 C 27.011719 54.042969 27.871094 52.671875 29.21875 52 L 40.351563 46.460938 Z "></path>
<path style=" fill:#D6DFF2;" d="M 52.628906 48.390625 L 48.058594 46.121094 L 40.058594 46.121094 L 35.378906 48.449219 C 35.570313 51.851563 39.378906 54.570313 44 54.570313 C 48.621094 54.570313 52.480469 51.820313 52.628906 48.390625 Z "></path>
<path style=" fill:#FAEFDE;" d="M 53.238281 38.328125 C 52.996094 38.28125 52.738281 38.339844 52.539063 38.488281 C 52.496094 37.5 52.28125 36.527344 51.910156 35.609375 C 51.300781 33.960938 53.660156 34.941406 53.660156 34.941406 C 52.933594 30.589844 49.0625 27.476563 44.660156 27.699219 L 44 27.699219 C 42.375 27.695313 40.78125 28.144531 39.398438 29 C 37.21875 29 35.699219 30.480469 35.449219 32.949219 C 35.375 34.425781 35.421875 35.902344 35.589844 37.371094 C 35.527344 37.734375 35.488281 38.101563 35.46875 38.46875 C 35.269531 38.320313 35.015625 38.261719 34.769531 38.308594 C 34.070313 38.5 33.769531 39.789063 34.179688 41.191406 C 34.589844 42.589844 35.289063 43.398438 35.960938 43.398438 C 37.148438 47.398438 40.300781 51.398438 44.011719 51.398438 C 47.71875 51.398438 50.871094 47.398438 52.058594 43.398438 C 52.730469 43.398438 53.488281 42.480469 53.839844 41.191406 C 54.191406 39.898438 53.941406 38.519531 53.238281 38.328125 Z "></path>
<path style=" fill:#CDA1A7;" d="M 38.679688 34.949219 L 39.730469 33.351563 C 39.914063 33.074219 40.273438 32.976563 40.570313 33.121094 L 41.570313 33.621094 C 43.367188 34.496094 45.339844 34.949219 47.339844 34.949219 L 49 34.949219 C 50.082031 35.039063 51.175781 35.003906 52.25 34.839844 C 53.058594 34.570313 52.730469 32.261719 52.730469 32.261719 C 52.730469 32.261719 51.460938 29.261719 48.648438 28.46875 C 45.839844 27.679688 42.648438 27.210938 39.480469 29.039063 C 36.308594 30.871094 35.75 29.589844 35.578125 31.738281 C 35.445313 33.3125 35.503906 34.894531 35.75 36.449219 C 36 37.5 38.679688 34.949219 38.679688 34.949219 Z "></path>
<path style=" fill:#ED7899;" d="M 42 51.75 L 46.128906 51.75 L 46.128906 58.75 L 42 58.75 Z "></path>
<path style=" fill:#8D6C9F;" d="M 59.339844 51.070313 L 51.488281 47.171875 C 52.039063 46.242188 52.492188 45.261719 52.839844 44.238281 C 53.875 43.648438 54.601563 42.636719 54.839844 41.46875 C 55.378906 39.46875 54.839844 37.710938 53.539063 37.359375 L 53.46875 37.359375 C 53.378906 36.828125 53.246094 36.308594 53.070313 35.800781 L 53.320313 35.890625 C 53.664063 36.03125 54.058594 35.972656 54.347656 35.734375 C 54.632813 35.492188 54.761719 35.113281 54.679688 34.75 C 54.175781 31.925781 52.46875 29.460938 50 28 L 50 7 C 50 5.34375 48.65625 4 47 4 L 17.660156 4 C 16.332031 3.996094 15.058594 4.523438 14.121094 5.460938 L 5.460938 14.121094 C 4.523438 15.058594 3.996094 16.332031 4 17.660156 L 4 57 C 4 58.65625 5.34375 60 7 60 L 27 60 C 27.136719 59.996094 27.273438 59.96875 27.398438 59.910156 C 27.59375 59.96875 27.796875 60 28 60 L 60.109375 60 C 61.214844 60 62.109375 59.105469 62.109375 58 L 62.109375 55.550781 C 62.113281 53.652344 61.039063 51.917969 59.339844 51.070313 Z M 52.238281 33.660156 C 51.867188 33.679688 51.515625 33.828125 51.238281 34.078125 C 50.746094 34.597656 50.652344 35.375 51 36 C 51.335938 36.820313 51.53125 37.695313 51.570313 38.578125 C 51.597656 38.9375 51.8125 39.257813 52.140625 39.410156 C 52.402344 39.527344 52.699219 39.527344 52.960938 39.410156 C 53.066406 39.941406 53.03125 40.488281 52.859375 41 C 52.746094 41.5625 52.464844 42.074219 52.050781 42.46875 C 51.589844 42.453125 51.179688 42.75 51.050781 43.191406 C 50 46.660156 47.210938 50.398438 44 50.398438 C 40.789063 50.398438 38 46.660156 36.910156 43.140625 C 36.808594 42.722656 36.4375 42.433594 36.011719 42.429688 C 35.558594 42.070313 35.253906 41.5625 35.140625 41 C 34.988281 40.5 34.960938 39.972656 35.070313 39.460938 C 35.371094 39.59375 35.71875 39.566406 36 39.394531 C 36.277344 39.21875 36.453125 38.917969 36.46875 38.589844 C 36.484375 38.253906 36.523438 37.921875 36.578125 37.589844 C 36.636719 37.199219 36.636719 36.800781 36.578125 36.410156 C 36.417969 35.3125 36.390625 34.203125 36.5 33.101563 C 36.691406 31.160156 37.769531 30.101563 39.5 30.101563 C 39.714844 30.101563 39.925781 30.03125 40.101563 29.898438 C 41.304688 29.167969 42.6875 28.78125 44.101563 28.78125 L 44.761719 28.78125 C 48.042969 28.621094 51.058594 30.589844 52.230469 33.660156 Z M 41.410156 51.839844 L 40.179688 58 L 28 58 L 28 55.550781 C 27.996094 54.410156 28.640625 53.367188 29.660156 52.859375 L 37.660156 48.859375 C 38.648438 50.140625 39.9375 51.164063 41.410156 51.839844 Z M 43.21875 53 L 44.78125 53 L 45.78125 58 L 42.21875 58 Z M 15.539063 6.878906 C 15.679688 6.738281 15.835938 6.609375 16 6.5 L 16 15 C 16 15.550781 15.550781 16 15 16 L 6.5 16 C 6.609375 15.835938 6.738281 15.679688 6.878906 15.539063 Z M 7 58 C 6.449219 58 6 57.550781 6 57 L 6 18 L 15 18 C 16.65625 18 18 16.65625 18 15 L 18 6 L 47 6 C 47.550781 6 48 6.449219 48 7 L 48 27.191406 C 46.917969 26.867188 45.789063 26.703125 44.660156 26.710938 L 44 26.710938 C 42.277344 26.707031 40.582031 27.152344 39.078125 28 C 36.539063 28.140625 34.730469 30 34.449219 32.839844 C 34.328125 34.09375 34.359375 35.355469 34.539063 36.601563 C 34.539063 36.828125 34.609375 37.121094 34.601563 37.179688 L 34.601563 37.308594 L 34.519531 37.308594 C 33.21875 37.660156 32.679688 39.378906 33.21875 41.421875 C 33.457031 42.585938 34.1875 43.597656 35.21875 44.191406 C 35.574219 45.234375 36.035156 46.242188 36.601563 47.191406 L 28.839844 51.050781 C 27.109375 51.878906 26.003906 53.628906 26 55.550781 L 26 58 Z M 60.109375 58 L 47.820313 58 L 46.589844 51.839844 C 48.0625 51.15625 49.351563 50.128906 50.339844 48.839844 L 58.449219 52.839844 C 59.46875 53.347656 60.113281 54.390625 60.109375 55.53125 Z "></path>
<path style=" fill:#8D6C9F;" d="M 41 32.21875 C 40.25 31.855469 39.347656 32.105469 38.890625 32.800781 L 37.839844 34.398438 C 37.636719 34.699219 37.609375 35.082031 37.769531 35.40625 C 37.929688 35.730469 38.25 35.941406 38.613281 35.960938 C 38.972656 35.980469 39.316406 35.804688 39.511719 35.5 L 40.398438 34.148438 L 41.160156 34.519531 C 43.09375 35.457031 45.210938 35.945313 47.359375 35.949219 L 49 35.949219 C 49.550781 35.949219 50 35.503906 50 34.949219 C 50 34.398438 49.550781 33.949219 49 33.949219 L 47.371094 33.949219 C 45.507813 33.953125 43.671875 33.53125 42 32.71875 Z "></path>
<path style=" fill:#8D6C9F;" d="M 33 24 L 37 24 C 37.550781 24 38 23.550781 38 23 C 38 22.449219 37.550781 22 37 22 L 33 22 C 32.449219 22 32 22.449219 32 23 C 32 23.550781 32.449219 24 33 24 Z "></path>
<path style=" fill:#8D6C9F;" d="M 15 24 L 29 24 C 29.550781 24 30 23.550781 30 23 C 30 22.449219 29.550781 22 29 22 L 15 22 C 14.449219 22 14 22.449219 14 23 C 14 23.550781 14.449219 24 15 24 Z "></path>
<path style=" fill:#8D6C9F;" d="M 15 28 L 31 28 C 31.550781 28 32 27.550781 32 27 C 32 26.449219 31.550781 26 31 26 L 15 26 C 14.449219 26 14 26.449219 14 27 C 14 27.550781 14.449219 28 15 28 Z "></path>
<path style=" fill:#8D6C9F;" d="M 25 36 L 15 36 C 14.449219 36 14 36.449219 14 37 C 14 37.550781 14.449219 38 15 38 L 25 38 C 25.550781 38 26 37.550781 26 37 C 26 36.449219 25.550781 36 25 36 Z "></path>
<path style=" fill:#8D6C9F;" d="M 15 34 L 29 34 C 29.550781 34 30 33.550781 30 33 C 30 32.449219 29.550781 32 29 32 L 15 32 C 14.449219 32 14 32.449219 14 33 C 14 33.550781 14.449219 34 15 34 Z "></path>
<path style=" fill:#8D6C9F;" d="M 9 50 C 8.449219 50 8 50.449219 8 51 L 8 53 C 8 53.550781 8.449219 54 9 54 C 9.550781 54 10 53.550781 10 53 L 10 51 C 10 50.449219 9.550781 50 9 50 Z "></path>
<path style=" fill:#8D6C9F;" d="M 14 50 C 13.449219 50 13 50.449219 13 51 L 13 53 C 13 53.550781 13.449219 54 14 54 C 14.550781 54 15 53.550781 15 53 L 15 51 C 15 50.449219 14.550781 50 14 50 Z "></path>
<path style=" fill:#8D6C9F;" d="M 19 50 C 18.449219 50 18 50.449219 18 51 L 18 53 C 18 53.550781 18.449219 54 19 54 C 19.550781 54 20 53.550781 20 53 L 20 51 C 20 50.449219 19.550781 50 19 50 Z "></path>
<path style=" fill:#8D6C9F;" d="M 24 50 C 23.449219 50 23 50.449219 23 51 L 23 53 C 23 53.550781 23.449219 54 24 54 C 24.550781 54 25 53.550781 25 53 L 25 51 C 25 50.449219 24.550781 50 24 50 Z "></path>
</g>
</svg>