<svg xmlns="http://www.w3.org/2000/svg" xmlns:xlink="http://www.w3.org/1999/xlink" version="1.1" id="Layer_1" x="0px" y="0px" viewBox="0 0 64 64" style="enable-background:new 0 0 64 64;" xml:space="preserve">
<path style="fill:#ED7899;" d="M3,61c-1.105,0-2-0.895-2-2V25c0-1.105,0.895-2,2-2l58,0c1.105,0,2,0.895,2,2v34c0,1.105-0.895,2-2,2  L3,61z"></path>
<path style="fill:#E0678F;" d="M60,61H4c-1.657,0-3-1.343-3-3v-2h62v2C63,59.657,61.657,61,60,61z"></path>
<path style="fill:#EF8EB1;" d="M63,29H1v-4c0-1.105,0.895-2,2-2h58c1.105,0,2,0.895,2,2V29z"></path>
<circle style="fill:#F6D397;" cx="32" cy="6" r="3"></circle>
<g>
	<path style="fill:#8D6C9F;" d="M61,22h-1.708L35.81,7.22C35.94,6.83,36,6.42,36,6c0-1.07-0.42-2.07-1.17-2.83   c-1.51-1.51-4.15-1.51-5.66,0C28.42,3.93,28,4.93,28,6c0,0.42,0.06,0.83,0.19,1.22L4.708,22H3c-1.654,0-3,1.346-3,3v34   c0,1.654,1.346,3,3,3h58c1.654,0,3-1.346,3-3V25C64,23.346,62.654,22,61,22z M30,6c0-0.53,0.21-1.04,0.59-1.41   C30.96,4.21,31.47,4,32,4s1.04,0.21,1.41,0.59C33.79,4.96,34,5.47,34,6c0,0.02,0,0.05-0.01,0.07c-0.01,0.51-0.22,0.99-0.58,1.34   c-0.14,0.15-0.31,0.26-0.49,0.35c-0.28,0.15-0.6,0.22-0.92,0.22s-0.64-0.07-0.92-0.22c-0.18-0.09-0.35-0.2-0.49-0.35   c-0.36-0.35-0.57-0.83-0.58-1.34C30,6.05,30,6.02,30,6z M29.26,8.91C30.01,9.61,30.97,10,32,10s1.99-0.39,2.74-1.09L55.532,22   H8.468L29.26,8.91z M3,24h58c0.552,0,1,0.448,1,1v3H2v-3C2,24.448,2.448,24,3,24z M62,59c0,0.552-0.448,1-1,1H3   c-0.552,0-1-0.448-1-1v-1c0.553,0,1-0.447,1-1v-2c0-0.553-0.447-1-1-1V30h60v24c-0.553,0-1,0.447-1,1v2c0,0.553,0.447,1,1,1V59z"></path>
	<path style="fill:#8D6C9F;" d="M22,54c-0.553,0-1,0.447-1,1v2c0,0.553,0.447,1,1,1s1-0.447,1-1v-2C23,54.447,22.553,54,22,54z"></path>
	<path style="fill:#8D6C9F;" d="M27,54c-0.553,0-1,0.447-1,1v2c0,0.553,0.447,1,1,1s1-0.447,1-1v-2C28,54.447,27.553,54,27,54z"></path>
	<path style="fill:#8D6C9F;" d="M32,54c-0.553,0-1,0.447-1,1v2c0,0.553,0.447,1,1,1s1-0.447,1-1v-2C33,54.447,32.553,54,32,54z"></path>
	<path style="fill:#8D6C9F;" d="M37,54c-0.553,0-1,0.447-1,1v2c0,0.553,0.447,1,1,1s1-0.447,1-1v-2C38,54.447,37.553,54,37,54z"></path>
	<path style="fill:#8D6C9F;" d="M12,54c-0.553,0-1,0.447-1,1v2c0,0.553,0.447,1,1,1s1-0.447,1-1v-2C13,54.447,12.553,54,12,54z"></path>
	<path style="fill:#8D6C9F;" d="M7,54c-0.553,0-1,0.447-1,1v2c0,0.553,0.447,1,1,1s1-0.447,1-1v-2C8,54.447,7.553,54,7,54z"></path>
	<path style="fill:#8D6C9F;" d="M17,54c-0.553,0-1,0.447-1,1v2c0,0.553,0.447,1,1,1s1-0.447,1-1v-2C18,54.447,17.553,54,17,54z"></path>
	<path style="fill:#8D6C9F;" d="M47,54c-0.553,0-1,0.447-1,1v2c0,0.553,0.447,1,1,1s1-0.447,1-1v-2C48,54.447,47.553,54,47,54z"></path>
	<path style="fill:#8D6C9F;" d="M42,54c-0.553,0-1,0.447-1,1v2c0,0.553,0.447,1,1,1s1-0.447,1-1v-2C43,54.447,42.553,54,42,54z"></path>
	<path style="fill:#8D6C9F;" d="M52,54c-0.553,0-1,0.447-1,1v2c0,0.553,0.447,1,1,1s1-0.447,1-1v-2C53,54.447,52.553,54,52,54z"></path>
	<path style="fill:#8D6C9F;" d="M57,54c-0.553,0-1,0.447-1,1v2c0,0.553,0.447,1,1,1s1-0.447,1-1v-2C58,54.447,57.553,54,57,54z"></path>
	<path style="fill:#FAEFDE;" d="M31,34h-2c-1.654,0-3,1.346-3,3v8c0,1.654,1.346,3,3,3h2c1.654,0,3-1.346,3-3v-8   C34,35.346,32.654,34,31,34z M32,45c0,0.552-0.448,1-1,1h-2c-0.552,0-1-0.448-1-1v-8c0-0.552,0.448-1,1-1h2c0.552,0,1,0.448,1,1V45   z"></path>
	<path style="fill:#FAEFDE;" d="M24,46h-4V35c0-0.553-0.447-1-1-1s-1,0.447-1,1v12c0,0.553,0.447,1,1,1h5c0.553,0,1-0.447,1-1   S24.553,46,24,46z"></path>
	<path style="fill:#FAEFDE;" d="M53,36c0.553,0,1-0.447,1-1s-0.447-1-1-1h-6c-0.553,0-1,0.447-1,1v12c0,0.553,0.447,1,1,1h6   c0.553,0,1-0.447,1-1s-0.447-1-1-1h-5v-4h3c0.553,0,1-0.447,1-1s-0.447-1-1-1h-3v-4H53z"></path>
	<path style="fill:#FAEFDE;" d="M15,44c-0.553,0-1,0.447-1,1c0,0.552-0.448,1-1,1h-2c-0.552,0-1-0.448-1-1v-8c0-0.552,0.448-1,1-1h2   c0.552,0,1,0.448,1,1c0,0.553,0.447,1,1,1s1-0.447,1-1c0-1.654-1.346-3-3-3h-2c-1.654,0-3,1.346-3,3v8c0,1.654,1.346,3,3,3h2   c1.654,0,3-1.346,3-3C16,44.447,15.553,44,15,44z"></path>
	<path style="fill:#FAEFDE;" d="M39,36h2c0.552,0,1,0.448,1,1c0,0.553,0.447,1,1,1s1-0.447,1-1c0-1.654-1.346-3-3-3h-2   c-1.654,0-3,1.346-3,3v2c0,1.654,1.346,3,3,3h2c0.552,0,1,0.448,1,1v2c0,0.552-0.448,1-1,1h-2c-0.552,0-1-0.448-1-1   c0-0.553-0.447-1-1-1s-1,0.447-1,1c0,1.654,1.346,3,3,3h2c1.654,0,3-1.346,3-3v-2c0-1.654-1.346-3-3-3h-2c-0.552,0-1-0.448-1-1v-2   C38,36.448,38.448,36,39,36z"></path>
</g>
</svg>