<!--?xml version="1.0" encoding="UTF-8"?-->
<svg xmlns="http://www.w3.org/2000/svg" xmlns:xlink="http://www.w3.org/1999/xlink" viewBox="0 0 64 64" version="1.1">
<g id="surface1">
<path style=" fill:#FAEFDE;" d="M 15.238281 4.941406 L 44 4.941406 C 45.65625 4.941406 47 6.28125 47 7.941406 L 47 55.941406 C 47 57.597656 45.65625 58.941406 44 58.941406 L 6 58.941406 C 4.34375 58.941406 3 57.597656 3 55.941406 L 3 17.179688 C 3 16.382813 3.316406 15.621094 3.878906 15.058594 L 13.121094 5.820313 C 13.683594 5.257813 14.445313 4.941406 15.238281 4.941406 Z "></path>
<path style=" fill:#FFF7F0;" d="M 3 59 L 2.851563 49.539063 L 46.339844 6.058594 L 47 29 L 17 59 Z "></path>
<path style=" fill:#FFF7F0;" d="M 2.851563 39.148438 L 37.058594 4.941406 L 42.808594 5.191406 L 3 45 Z "></path>
<path style=" fill:#FFF7F0;" d="M 2.851563 33.148438 L 31 5 L 34 5 L 2.851563 36.148438 Z "></path>
<path style=" fill:#FFFFFF;" d="M 19.5 42 L 20.738281 44.261719 L 23 45.5 L 20.738281 46.738281 L 19.5 49 L 18.261719 46.738281 L 16 45.5 L 18.261719 44.261719 Z "></path>
<path style=" fill:#FFFFFF;" d="M 22.421875 11 L 23.269531 12.558594 L 24.839844 13.421875 L 23.269531 14.269531 L 22.421875 15.839844 L 21.558594 14.269531 L 20 13.421875 L 21.558594 12.558594 Z "></path>
<path style=" fill:#FFFFFF;" d="M 7.648438 39 L 8.230469 40.058594 L 9.300781 40.648438 L 8.230469 41.230469 L 7.648438 42.300781 L 7.070313 41.230469 L 6 40.648438 L 7.070313 40.058594 Z "></path>
<path style=" fill:#BBDEF9;" d="M 15 5 L 15 17 L 3 17 Z "></path>
<path style=" fill:#FFEB9B;" d="M 56 33 C 56 41.835938 48.835938 49 40 49 C 31.164063 49 24 41.835938 24 33 C 24 24.164063 31.164063 17 40 17 C 48.835938 17 56 24.164063 56 33 Z "></path>
<path style=" fill:#F6D397;" d="M 49.238281 42.238281 L 30.761719 23.761719 C 30.203125 23.195313 29.425781 22.90625 28.636719 22.976563 C 27.84375 23.046875 27.128906 23.464844 26.679688 24.121094 C 22.433594 30.46875 23.269531 38.929688 28.667969 44.328125 C 34.070313 49.726563 42.535156 50.558594 48.878906 46.308594 C 49.53125 45.863281 49.949219 45.148438 50.019531 44.359375 C 50.089844 43.574219 49.800781 42.796875 49.238281 42.238281 Z "></path>
<path style=" fill:#BBDEF9;" d="M 51 33 C 51 39.074219 46.074219 44 40 44 C 33.925781 44 29 39.074219 29 33 C 29 26.925781 33.925781 22 40 22 C 46.074219 22 51 26.925781 51 33 Z "></path>
<path style=" fill:#D2EDFF;" d="M 46.601563 33 C 46.601563 36.644531 43.644531 39.601563 40 39.601563 C 36.355469 39.601563 33.398438 36.644531 33.398438 33 C 33.398438 29.355469 36.355469 26.398438 40 26.398438 C 43.644531 26.398438 46.601563 29.355469 46.601563 33 Z "></path>
<path style=" fill:#F3F3F3;" d="M 38.898438 29.460938 C 38.898438 30.808594 37.808594 31.898438 36.460938 31.898438 C 35.113281 31.898438 34.019531 30.808594 34.019531 29.460938 C 34.019531 28.113281 35.113281 27.019531 36.460938 27.019531 C 37.808594 27.019531 38.898438 28.113281 38.898438 29.460938 Z "></path>
<path style=" fill:#F3F3F3;" d="M 44.769531 37.949219 C 44.769531 38.457031 44.359375 38.871094 43.851563 38.871094 C 43.34375 38.871094 42.929688 38.457031 42.929688 37.949219 C 42.929688 37.441406 43.34375 37.03125 43.851563 37.03125 C 44.359375 37.03125 44.769531 37.441406 44.769531 37.949219 Z "></path>
<path style=" fill:#CDA1A7;" d="M 49.273438 46.277344 L 52.996094 42.550781 L 63.230469 52.78125 L 59.503906 56.507813 Z "></path>
<path style=" fill:#8D6C9F;" d="M 21 24 L 23 24 C 23.550781 24 24 23.550781 24 23 C 24 22.449219 23.550781 22 23 22 L 21 22 C 20.449219 22 20 22.449219 20 23 C 20 23.550781 20.449219 24 21 24 Z "></path>
<path style=" fill:#8D6C9F;" d="M 13 24 L 17 24 C 17.550781 24 18 23.550781 18 23 C 18 22.449219 17.550781 22 17 22 L 13 22 C 12.449219 22 12 22.449219 12 23 C 12 23.550781 12.449219 24 13 24 Z "></path>
<path style=" fill:#8D6C9F;" d="M 13 28 L 22 28 C 22.550781 28 23 27.550781 23 27 C 23 26.449219 22.550781 26 22 26 L 13 26 C 12.449219 26 12 26.449219 12 27 C 12 27.550781 12.449219 28 13 28 Z "></path>
<path style=" fill:#8D6C9F;" d="M 20 36 L 13 36 C 12.449219 36 12 36.449219 12 37 C 12 37.550781 12.449219 38 13 38 L 20 38 C 20.550781 38 21 37.550781 21 37 C 21 36.449219 20.550781 36 20 36 Z "></path>
<path style=" fill:#8D6C9F;" d="M 13 34 L 20 34 C 20.550781 34 21 33.550781 21 33 C 21 32.449219 20.550781 32 20 32 L 13 32 C 12.449219 32 12 32.449219 12 33 C 12 33.550781 12.449219 34 13 34 Z "></path>
<path style=" fill:#8D6C9F;" d="M 7 52 C 6.449219 52 6 52.449219 6 53 L 6 55 C 6 55.550781 6.449219 56 7 56 C 7.550781 56 8 55.550781 8 55 L 8 53 C 8 52.449219 7.550781 52 7 52 Z "></path>
<path style=" fill:#8D6C9F;" d="M 12 52 C 11.449219 52 11 52.449219 11 53 L 11 55 C 11 55.550781 11.449219 56 12 56 C 12.550781 56 13 55.550781 13 55 L 13 53 C 13 52.449219 12.550781 52 12 52 Z "></path>
<path style=" fill:#8D6C9F;" d="M 17 52 C 16.449219 52 16 52.449219 16 53 L 16 55 C 16 55.550781 16.449219 56 17 56 C 17.550781 56 18 55.550781 18 55 L 18 53 C 18 52.449219 17.550781 52 17 52 Z "></path>
<path style=" fill:#8D6C9F;" d="M 22 52 C 21.449219 52 21 52.449219 21 53 L 21 55 C 21 55.550781 21.449219 56 22 56 C 22.550781 56 23 55.550781 23 55 L 23 53 C 23 52.449219 22.550781 52 22 52 Z "></path>
<path style=" fill:#8D6C9F;" d="M 27 52 C 26.449219 52 26 52.449219 26 53 L 26 55 C 26 55.550781 26.449219 56 27 56 C 27.550781 56 28 55.550781 28 55 L 28 53 C 28 52.449219 27.550781 52 27 52 Z "></path>
<path style=" fill:#8D6C9F;" d="M 32 52 C 31.449219 52 31 52.449219 31 53 L 31 55 C 31 55.550781 31.449219 56 32 56 C 32.550781 56 33 55.550781 33 55 L 33 53 C 33 52.449219 32.550781 52 32 52 Z "></path>
<path style=" fill:#8D6C9F;" d="M 37 52 C 36.449219 52 36 52.449219 36 53 L 36 55 C 36 55.550781 36.449219 56 37 56 C 37.550781 56 38 55.550781 38 55 L 38 53 C 38 52.449219 37.550781 52 37 52 Z "></path>
<path style=" fill:#8D6C9F;" d="M 42 56 C 42.550781 56 43 55.550781 43 55 L 43 53 C 43 52.449219 42.550781 52 42 52 C 41.449219 52 41 52.449219 41 53 L 41 55 C 41 55.550781 41.449219 56 42 56 Z "></path>
<path style=" fill:#8D6C9F;" d="M 62.710938 50.289063 L 54.398438 42 C 56.914063 38.011719 57.652344 33.15625 56.4375 28.605469 C 55.222656 24.050781 52.164063 20.207031 48 18 L 48 7 C 48 5.34375 46.65625 4 45 4 L 15.660156 4 C 14.332031 3.996094 13.058594 4.523438 12.121094 5.460938 L 3.460938 14.121094 C 2.523438 15.058594 1.996094 16.332031 2 17.660156 L 2 57 C 2 58.65625 3.34375 60 5 60 L 45 60 C 46.65625 60 48 58.65625 48 57 L 48 48 C 48.339844 47.820313 48.660156 47.609375 49 47.410156 L 57.300781 55.710938 C 58.8125 57.082031 61.136719 57.027344 62.582031 55.582031 C 64.027344 54.136719 64.082031 51.8125 62.710938 50.300781 Z M 55 33 C 55 41.285156 48.285156 48 40 48 C 31.714844 48 25 41.285156 25 33 C 25 24.714844 31.714844 18 40 18 C 48.285156 18 55 24.714844 55 33 Z M 13.539063 6.878906 C 13.679688 6.738281 13.835938 6.609375 14 6.5 L 14 15 C 14 15.550781 13.550781 16 13 16 L 4.5 16 C 4.609375 15.835938 4.738281 15.679688 4.878906 15.539063 Z M 46 57 C 46 57.550781 45.550781 58 45 58 L 5 58 C 4.449219 58 4 57.550781 4 57 L 4 18 L 13 18 C 14.65625 18 16 16.65625 16 15 L 16 6 L 45 6 C 45.550781 6 46 6.449219 46 7 L 46 17.109375 C 38.921875 14.410156 30.914063 16.722656 26.359375 22.773438 C 21.804688 28.828125 21.804688 37.164063 26.359375 43.214844 C 30.914063 49.269531 38.921875 51.578125 46 48.878906 Z M 61.289063 54.289063 C 60.945313 54.632813 60.480469 54.828125 59.996094 54.828125 C 59.507813 54.828125 59.042969 54.632813 58.699219 54.289063 L 50.640625 46.230469 C 51.59375 45.460938 52.460938 44.59375 53.230469 43.640625 L 61.289063 51.699219 C 61.632813 52.042969 61.828125 52.507813 61.828125 52.996094 C 61.828125 53.480469 61.632813 53.945313 61.289063 54.289063 Z "></path>
<path style=" fill:#8D6C9F;" d="M 28 33 C 28 39.628906 33.371094 45 40 45 C 46.628906 45 52 39.628906 52 33 C 52 26.371094 46.628906 21 40 21 C 33.371094 21 28 26.371094 28 33 Z M 50 33 C 50 38.523438 45.523438 43 40 43 C 34.476563 43 30 38.523438 30 33 C 30 27.476563 34.476563 23 40 23 C 45.523438 23 50 27.476563 50 33 Z "></path>
<path style=" fill:#8D6C9F;" d="M 39 26 C 39 26.550781 39.449219 27 40 27 C 42.40625 27 44.578125 28.4375 45.519531 30.648438 C 45.738281 31.15625 46.328125 31.394531 46.835938 31.175781 C 47.34375 30.957031 47.578125 30.367188 47.359375 29.859375 C 46.101563 26.910156 43.207031 25 40 25 C 39.449219 25 39 25.449219 39 26 Z "></path>
</g>
</svg>