<!--?xml version="1.0" encoding="UTF-8"?-->
<svg xmlns="http://www.w3.org/2000/svg" xmlns:xlink="http://www.w3.org/1999/xlink" viewBox="0 0 64 64" version="1.1">
<g id="surface1">
<path style=" fill:#FAEFDE;" d="M 23.238281 4.941406 L 52 4.941406 C 53.65625 4.941406 55 6.28125 55 7.941406 L 55 55.941406 C 55 57.597656 53.65625 58.941406 52 58.941406 L 14 58.941406 C 12.34375 58.941406 11 57.597656 11 55.941406 L 11 17.179688 C 11 16.382813 11.316406 15.621094 11.878906 15.058594 L 21.121094 5.820313 C 21.683594 5.257813 22.445313 4.941406 23.238281 4.941406 Z "></path>
<path style=" fill:#FFF7F0;" d="M 11 59 L 10.851563 49.539063 L 54.339844 6.058594 L 55 29 L 25 59 Z "></path>
<path style=" fill:#FFF7F0;" d="M 10.851563 39.148438 L 45.058594 4.941406 L 50.808594 5.191406 L 11 45 Z "></path>
<path style=" fill:#FFF7F0;" d="M 10.851563 33.148438 L 39 5 L 42 5 L 10.851563 36.148438 Z "></path>
<path style=" fill:#FFFFFF;" d="M 45.5 13 L 46.738281 15.261719 L 49 16.5 L 46.738281 17.738281 L 45.5 20 L 44.261719 17.738281 L 42 16.5 L 44.261719 15.261719 Z "></path>
<path style=" fill:#FFFFFF;" d="M 30.421875 11 L 31.269531 12.558594 L 32.839844 13.421875 L 31.269531 14.269531 L 30.421875 15.839844 L 29.558594 14.269531 L 28 13.421875 L 29.558594 12.558594 Z "></path>
<path style=" fill:#FFFFFF;" d="M 16.648438 42 L 17.230469 43.058594 L 18.300781 43.648438 L 17.230469 44.230469 L 16.648438 45.300781 L 16.070313 44.230469 L 15 43.648438 L 16.070313 43.058594 Z "></path>
<path style=" fill:#BBDEF9;" d="M 23 5 L 23 17 L 11 17 Z "></path>
<path style=" fill:#8D6C9F;" d="M 53 4 L 23.660156 4 C 22.332031 3.996094 21.058594 4.523438 20.121094 5.460938 L 11.460938 14.121094 C 10.523438 15.058594 9.996094 16.332031 10 17.660156 L 10 57 C 10 58.65625 11.34375 60 13 60 L 53 60 C 54.65625 60 56 58.65625 56 57 L 56 7 C 56 5.34375 54.65625 4 53 4 Z M 21.539063 6.878906 C 21.679688 6.738281 21.835938 6.609375 22 6.5 L 22 15 C 22 15.550781 21.550781 16 21 16 L 12.5 16 C 12.609375 15.835938 12.738281 15.679688 12.878906 15.539063 Z M 54 57 C 54 57.550781 53.550781 58 53 58 L 13 58 C 12.449219 58 12 57.550781 12 57 L 12 18 L 21 18 C 22.65625 18 24 16.65625 24 15 L 24 6 L 53 6 C 53.550781 6 54 6.449219 54 7 Z "></path>
<path style=" fill:#8D6C9F;" d="M 45 22 L 41 22 C 40.449219 22 40 22.449219 40 23 C 40 23.550781 40.449219 24 41 24 L 45 24 C 45.550781 24 46 23.550781 46 23 C 46 22.449219 45.550781 22 45 22 Z "></path>
<path style=" fill:#8D6C9F;" d="M 21 24 L 37 24 C 37.550781 24 38 23.550781 38 23 C 38 22.449219 37.550781 22 37 22 L 21 22 C 20.449219 22 20 22.449219 20 23 C 20 23.550781 20.449219 24 21 24 Z "></path>
<path style=" fill:#8D6C9F;" d="M 21 28 L 41 28 C 41.550781 28 42 27.550781 42 27 C 42 26.449219 41.550781 26 41 26 L 21 26 C 20.449219 26 20 26.449219 20 27 C 20 27.550781 20.449219 28 21 28 Z "></path>
<path style=" fill:#8D6C9F;" d="M 33 36 L 21 36 C 20.449219 36 20 36.449219 20 37 C 20 37.550781 20.449219 38 21 38 L 33 38 C 33.550781 38 34 37.550781 34 37 C 34 36.449219 33.550781 36 33 36 Z "></path>
<path style=" fill:#8D6C9F;" d="M 43 32 L 21 32 C 20.449219 32 20 32.449219 20 33 C 20 33.550781 20.449219 34 21 34 L 43 34 C 43.550781 34 44 33.550781 44 33 C 44 32.449219 43.550781 32 43 32 Z "></path>
<path style=" fill:#8D6C9F;" d="M 15 50 C 14.449219 50 14 50.449219 14 51 L 14 53 C 14 53.550781 14.449219 54 15 54 C 15.550781 54 16 53.550781 16 53 L 16 51 C 16 50.449219 15.550781 50 15 50 Z "></path>
<path style=" fill:#8D6C9F;" d="M 20 50 C 19.449219 50 19 50.449219 19 51 L 19 53 C 19 53.550781 19.449219 54 20 54 C 20.550781 54 21 53.550781 21 53 L 21 51 C 21 50.449219 20.550781 50 20 50 Z "></path>
<path style=" fill:#8D6C9F;" d="M 25 50 C 24.449219 50 24 50.449219 24 51 L 24 53 C 24 53.550781 24.449219 54 25 54 C 25.550781 54 26 53.550781 26 53 L 26 51 C 26 50.449219 25.550781 50 25 50 Z "></path>
<path style=" fill:#8D6C9F;" d="M 30 50 C 29.449219 50 29 50.449219 29 51 L 29 53 C 29 53.550781 29.449219 54 30 54 C 30.550781 54 31 53.550781 31 53 L 31 51 C 31 50.449219 30.550781 50 30 50 Z "></path>
<path style=" fill:#8D6C9F;" d="M 35 50 C 34.449219 50 34 50.449219 34 51 L 34 53 C 34 53.550781 34.449219 54 35 54 C 35.550781 54 36 53.550781 36 53 L 36 51 C 36 50.449219 35.550781 50 35 50 Z "></path>
<path style=" fill:#8D6C9F;" d="M 40 50 C 39.449219 50 39 50.449219 39 51 L 39 53 C 39 53.550781 39.449219 54 40 54 C 40.550781 54 41 53.550781 41 53 L 41 51 C 41 50.449219 40.550781 50 40 50 Z "></path>
<path style=" fill:#8D6C9F;" d="M 45 50 C 44.449219 50 44 50.449219 44 51 L 44 53 C 44 53.550781 44.449219 54 45 54 C 45.550781 54 46 53.550781 46 53 L 46 51 C 46 50.449219 45.550781 50 45 50 Z "></path>
<path style=" fill:#8D6C9F;" d="M 50 50 C 49.449219 50 49 50.449219 49 51 L 49 53 C 49 53.550781 49.449219 54 50 54 C 50.550781 54 51 53.550781 51 53 L 51 51 C 51 50.449219 50.550781 50 50 50 Z "></path>
</g>
</svg>