<!--?xml version="1.0" encoding="UTF-8"?-->
<svg xmlns="http://www.w3.org/2000/svg" xmlns:xlink="http://www.w3.org/1999/xlink" viewBox="0 0 64 64" version="1.1">
<g id="surface1">
<path style=" fill:#FAEFDE;" d="M 57 49 L 6 49 C 4.34375 49 3 47.65625 3 46 L 3 8 C 3 6.34375 4.34375 5 6 5 L 21 5 L 30 11 L 54 11 C 55.65625 11 57 12.34375 57 14 Z "></path>
<path style=" fill:#FFF7F0;" d="M 6 5 L 22 5 L 29 12 L 3 12 L 3 8 C 3 6.34375 4.34375 5 6 5 Z "></path>
<path style=" fill:#CDA1A7;" d="M 57 15 L 61 15 C 62.105469 15 63 15.894531 63 17 L 63 46 C 63 47.65625 61.65625 49 60 49 L 57 49 Z "></path>
<path style=" fill:#EFD8BE;" d="M 3 39 L 57 39 L 57 49 L 6 49 C 4.34375 49 3 47.65625 3 46 Z "></path>
<path style=" fill:#8D6C9F;" d="M 61 14 L 58 14 L 58 13 C 58 11.34375 56.65625 10 55 10 L 29.710938 10 C 28.917969 10 28.160156 9.6875 27.601563 9.128906 L 23.871094 5.449219 C 22.9375 4.523438 21.675781 4.003906 20.359375 4 L 5 4 C 3.34375 4 2 5.34375 2 7 L 2 46 C 2 48.210938 3.789063 50 6 50 L 60 50 C 62.210938 50 64 48.210938 64 46 L 64 17 C 64 15.34375 62.65625 14 61 14 Z M 6 48 C 4.894531 48 4 47.105469 4 46 L 4 40 L 25 40 C 25.550781 40 26 39.550781 26 39 C 26 38.449219 25.550781 38 25 38 L 4 38 L 4 7 C 4 6.449219 4.449219 6 5 6 L 20.359375 6 C 21.152344 6 21.910156 6.3125 22.46875 6.871094 L 26.199219 10.558594 C 27.136719 11.484375 28.394531 12 29.710938 12 L 55 12 C 55.550781 12 56 12.449219 56 13 L 56 38 L 39 38 C 38.449219 38 38 38.449219 38 39 C 38 39.550781 38.449219 40 39 40 L 56 40 L 56 46 C 56.027344 46.710938 56.242188 47.402344 56.628906 48 Z M 62 46 C 62 47.105469 61.105469 48 60 48 C 58.945313 47.882813 58.117188 47.054688 58 46 L 58 16 L 61 16 C 61.550781 16 62 16.449219 62 17 Z "></path>
<path style=" fill:#8D6C9F;" d="M 6 42 C 5.449219 42 5 42.449219 5 43 L 5 45 C 5 45.550781 5.449219 46 6 46 C 6.550781 46 7 45.550781 7 45 L 7 43 C 7 42.449219 6.550781 42 6 42 Z "></path>
<path style=" fill:#8D6C9F;" d="M 11 42 C 10.449219 42 10 42.449219 10 43 L 10 45 C 10 45.550781 10.449219 46 11 46 C 11.550781 46 12 45.550781 12 45 L 12 43 C 12 42.449219 11.550781 42 11 42 Z "></path>
<path style=" fill:#8D6C9F;" d="M 16 42 C 15.449219 42 15 42.449219 15 43 L 15 45 C 15 45.550781 15.449219 46 16 46 C 16.550781 46 17 45.550781 17 45 L 17 43 C 17 42.449219 16.550781 42 16 42 Z "></path>
<path style=" fill:#8D6C9F;" d="M 21 42 C 20.449219 42 20 42.449219 20 43 L 20 45 C 20 45.550781 20.449219 46 21 46 C 21.550781 46 22 45.550781 22 45 L 22 43 C 22 42.449219 21.550781 42 21 42 Z "></path>
<path style=" fill:#8D6C9F;" d="M 26 42 C 25.449219 42 25 42.449219 25 43 L 25 45 C 25 45.550781 25.449219 46 26 46 C 26.550781 46 27 45.550781 27 45 L 27 43 C 27 42.449219 26.550781 42 26 42 Z "></path>
<path style=" fill:#8D6C9F;" d="M 38 42 C 37.449219 42 37 42.449219 37 43 L 37 45 C 37 45.550781 37.449219 46 38 46 C 38.550781 46 39 45.550781 39 45 L 39 43 C 39 42.449219 38.550781 42 38 42 Z "></path>
<path style=" fill:#8D6C9F;" d="M 43 42 C 42.449219 42 42 42.449219 42 43 L 42 45 C 42 45.550781 42.449219 46 43 46 C 43.550781 46 44 45.550781 44 45 L 44 43 C 44 42.449219 43.550781 42 43 42 Z "></path>
<path style=" fill:#8D6C9F;" d="M 48 42 C 47.449219 42 47 42.449219 47 43 L 47 45 C 47 45.550781 47.449219 46 48 46 C 48.550781 46 49 45.550781 49 45 L 49 43 C 49 42.449219 48.550781 42 48 42 Z "></path>
<path style=" fill:#8D6C9F;" d="M 53 42 C 52.449219 42 52 42.449219 52 43 L 52 45 C 52 45.550781 52.449219 46 53 46 C 53.550781 46 54 45.550781 54 45 L 54 43 C 54 42.449219 53.550781 42 53 42 Z "></path>
<path style=" fill:#C2CDE7;" d="M 35 27 L 35 52 L 39 48 L 43 52 L 32 63 L 21 52 L 25 48 L 29 52 L 29 27 Z "></path>
<path style=" fill:#8D6C9F;" d="M 32.710938 63.710938 L 43.710938 52.710938 C 44.097656 52.320313 44.097656 51.691406 43.710938 51.300781 L 39.710938 47.300781 C 39.320313 46.914063 38.691406 46.914063 38.300781 47.300781 L 36 49.589844 L 36 27 C 36 26.449219 35.550781 26 35 26 L 29 26 C 28.449219 26 28 26.449219 28 27 L 28 49.589844 L 25.710938 47.300781 C 25.320313 46.914063 24.691406 46.914063 24.300781 47.300781 L 20.300781 51.300781 C 19.914063 51.691406 19.914063 52.320313 20.300781 52.710938 L 31.300781 63.710938 C 31.691406 64.097656 32.320313 64.097656 32.710938 63.710938 Z M 22.410156 52 L 25 49.410156 L 28.289063 52.699219 C 28.574219 52.988281 29.003906 53.074219 29.378906 52.921875 C 29.753906 52.769531 30 52.40625 30 52 L 30 28 L 34 28 L 34 52 C 33.996094 52.40625 34.242188 52.773438 34.617188 52.929688 C 34.992188 53.085938 35.425781 53 35.710938 52.710938 L 39 49.410156 L 41.589844 52 L 32 61.589844 Z "></path>
</g>
</svg>