<!--?xml version="1.0" encoding="UTF-8"?-->
<svg xmlns="http://www.w3.org/2000/svg" xmlns:xlink="http://www.w3.org/1999/xlink" viewBox="0 0 64 64" version="1.1">
<g id="surface1">
<path style=" fill:#BBDEF9;" d="M 4 15 L 52 15 C 53.65625 15 55 16.34375 55 18 L 55 52 C 55 53.65625 53.65625 55 52 55 L 4 55 C 2.34375 55 1 53.65625 1 52 L 1 18 C 1 16.34375 2.34375 15 4 15 Z "></path>
<path style=" fill:#DEF0FF;" d="M 35.550781 55 L 55.03125 35.519531 L 55.03125 17.519531 L 17.550781 55 Z "></path>
<path style=" fill:#DEF0FF;" d="M 6.289063 55 L 12.851563 55 L 51.851563 16 C 51.273438 15.359375 50.453125 14.992188 49.589844 15 L 46.289063 15 Z "></path>
<path style=" fill:#E3F2FF;" d="M 37.550781 15 L 0.550781 52 C 1.078125 52.859375 0.460938 55 1.550781 55 L 41.550781 15 Z "></path>
<path style=" fill:#97E0BB;" d="M 40 55.128906 L 26.789063 42 C 26.011719 41.246094 24.777344 41.246094 24 42 L 11 55 Z "></path>
<path style=" fill:#72CAAF;" d="M 55 51 L 54.339844 51 L 54.339844 49 L 41.578125 36.648438 C 41.195313 36.28125 40.585938 36.28125 40.199219 36.648438 L 25.871094 51 L 1 51 L 1 52 C 1 53.65625 2.34375 55 4 55 L 52.148438 55 L 53.660156 55.058594 C 53.898438 54.761719 54.078125 54.421875 54.191406 54.058594 C 54.695313 53.515625 54.980469 52.800781 54.988281 52.058594 Z "></path>
<path style=" fill:#FFEB9B;" d="M 19 29 C 19 31.210938 17.210938 33 15 33 C 12.789063 33 11 31.210938 11 29 C 11 26.789063 12.789063 25 15 25 C 17.210938 25 19 26.789063 19 29 Z "></path>
<path style=" fill:#F9E3AE;" d="M 45.78125 14.183594 L 55.78125 24.183594 L 41.738281 38.226563 L 31.738281 28.230469 Z "></path>
<path style=" fill:#F6D397;" d="M 49.203125 17.773438 L 55.699219 24.273438 L 42.246094 37.726563 L 35.746094 31.230469 Z "></path>
<path style=" fill:#ED7899;" d="M 56.398438 7.871094 L 62.125 13.601563 C 63.296875 14.773438 63.296875 16.671875 62.125 17.84375 L 58.75 21.214844 L 48.78125 11.246094 L 52.152344 7.871094 C 53.324219 6.703125 55.226563 6.703125 56.398438 7.871094 Z "></path>
<path style=" fill:#C2CDE7;" d="M 48.742188 11.21875 L 58.742188 21.21875 L 55.699219 24.257813 L 45.703125 14.261719 Z "></path>
<path style=" fill:#FAEFDE;" d="M 30.238281 37.371094 L 31.03125 28.730469 L 36.53125 29.511719 L 37.308594 31.871094 L 39.609375 33.050781 L 41.238281 38.941406 L 31.808594 38.941406 Z "></path>
<path style=" fill:#8D6C9F;" d="M 20.070313 29 C 20.070313 26.238281 17.832031 24 15.070313 24 C 12.308594 24 10.070313 26.238281 10.070313 29 C 10.070313 31.761719 12.308594 34 15.070313 34 C 17.832031 34 20.070313 31.761719 20.070313 29 Z M 15.070313 32 C 13.414063 32 12.070313 30.65625 12.070313 29 C 12.070313 27.34375 13.414063 26 15.070313 26 C 16.726563 26 18.070313 27.34375 18.070313 29 C 18.070313 30.65625 16.726563 32 15.070313 32 Z "></path>
<path style=" fill:#8D6C9F;" d="M 14 37 L 14 39 C 14 39.550781 14.449219 40 15 40 C 15.550781 40 16 39.550781 16 39 L 16 37 C 16 36.449219 15.550781 36 15 36 C 14.449219 36 14 36.449219 14 37 Z "></path>
<path style=" fill:#8D6C9F;" d="M 15 22 C 15.550781 22 16 21.550781 16 21 L 16 19 C 16 18.449219 15.550781 18 15 18 C 14.449219 18 14 18.449219 14 19 L 14 21 C 14 21.550781 14.449219 22 15 22 Z "></path>
<path style=" fill:#8D6C9F;" d="M 22 29 C 22 29.550781 22.449219 30 23 30 L 25 30 C 25.550781 30 26 29.550781 26 29 C 26 28.449219 25.550781 28 25 28 L 23 28 C 22.449219 28 22 28.449219 22 29 Z "></path>
<path style=" fill:#8D6C9F;" d="M 5 30 L 7 30 C 7.550781 30 8 29.550781 8 29 C 8 28.449219 7.550781 28 7 28 L 5 28 C 4.449219 28 4 28.449219 4 29 C 4 29.550781 4.449219 30 5 30 Z "></path>
<path style=" fill:#8D6C9F;" d="M 19.128906 38.160156 C 19.308594 38.46875 19.640625 38.660156 20 38.660156 C 20.175781 38.667969 20.351563 38.617188 20.5 38.519531 C 20.730469 38.386719 20.902344 38.167969 20.96875 37.910156 C 21.039063 37.65625 21.003906 37.378906 20.871094 37.148438 L 19.871094 35.421875 C 19.699219 35.09375 19.363281 34.886719 18.996094 34.882813 C 18.628906 34.878906 18.289063 35.074219 18.109375 35.394531 C 17.933594 35.71875 17.941406 36.109375 18.140625 36.421875 Z "></path>
<path style=" fill:#8D6C9F;" d="M 10.128906 22.570313 C 10.308594 22.878906 10.640625 23.070313 11 23.070313 C 11.175781 23.078125 11.351563 23.027344 11.5 22.929688 C 11.730469 22.796875 11.902344 22.578125 11.96875 22.320313 C 12.039063 22.066406 12.003906 21.789063 11.871094 21.558594 L 10.871094 19.828125 C 10.582031 19.378906 9.988281 19.234375 9.527344 19.5 C 9.0625 19.769531 8.890625 20.355469 9.140625 20.828125 Z "></path>
<path style=" fill:#8D6C9F;" d="M 21.058594 25.5 C 21.242188 25.816406 21.574219 26.019531 21.941406 26.03125 C 22.113281 26.027344 22.28125 25.972656 22.421875 25.871094 L 24.148438 24.871094 C 24.601563 24.582031 24.746094 23.988281 24.480469 23.527344 C 24.210938 23.0625 23.625 22.890625 23.148438 23.140625 L 21.421875 24.140625 C 20.949219 24.417969 20.785156 25.023438 21.058594 25.5 Z "></path>
<path style=" fill:#8D6C9F;" d="M 7.570313 32.128906 L 5.839844 33.128906 C 5.609375 33.261719 5.4375 33.480469 5.371094 33.738281 C 5.300781 33.996094 5.335938 34.269531 5.46875 34.5 C 5.652344 34.816406 5.984375 35.019531 6.351563 35.03125 C 6.523438 35.027344 6.691406 34.972656 6.828125 34.871094 L 8.558594 33.871094 C 9.011719 33.582031 9.15625 32.988281 8.890625 32.527344 C 8.621094 32.0625 8.035156 31.890625 7.558594 32.140625 Z "></path>
<path style=" fill:#8D6C9F;" d="M 21.429688 33.871094 L 23.160156 34.871094 C 23.300781 34.972656 23.46875 35.027344 23.640625 35.03125 C 24.003906 35.019531 24.339844 34.816406 24.519531 34.5 C 24.652344 34.269531 24.691406 33.996094 24.621094 33.738281 C 24.550781 33.480469 24.382813 33.261719 24.148438 33.128906 L 22.421875 32.128906 C 22.109375 31.933594 21.71875 31.921875 21.394531 32.101563 C 21.074219 32.28125 20.878906 32.621094 20.882813 32.988281 C 20.886719 33.355469 21.09375 33.691406 21.421875 33.859375 Z "></path>
<path style=" fill:#8D6C9F;" d="M 5.839844 24.871094 L 7.570313 25.871094 C 7.710938 25.972656 7.878906 26.027344 8.050781 26.03125 C 8.414063 26.019531 8.75 25.816406 8.929688 25.5 C 9.0625 25.269531 9.097656 24.996094 9.03125 24.738281 C 8.960938 24.480469 8.792969 24.261719 8.558594 24.128906 L 6.828125 23.128906 C 6.519531 22.933594 6.125 22.921875 5.804688 23.101563 C 5.484375 23.28125 5.289063 23.621094 5.292969 23.988281 C 5.296875 24.355469 5.503906 24.691406 5.828125 24.859375 Z "></path>
<path style=" fill:#8D6C9F;" d="M 18.5 22.941406 C 18.648438 23.039063 18.824219 23.085938 19 23.078125 C 19.359375 23.082031 19.691406 22.890625 19.871094 22.578125 L 20.871094 20.851563 C 21.066406 20.539063 21.078125 20.148438 20.898438 19.828125 C 20.71875 19.503906 20.378906 19.308594 20.011719 19.3125 C 19.644531 19.320313 19.308594 19.523438 19.140625 19.851563 L 18.140625 21.578125 C 17.867188 22.054688 18.027344 22.660156 18.5 22.941406 Z "></path>
<path style=" fill:#8D6C9F;" d="M 11.5 35.058594 C 11.269531 34.925781 10.996094 34.890625 10.738281 34.960938 C 10.480469 35.03125 10.261719 35.199219 10.128906 35.429688 L 9.128906 37.160156 C 8.996094 37.390625 8.960938 37.664063 9.03125 37.921875 C 9.097656 38.179688 9.269531 38.398438 9.5 38.53125 C 9.648438 38.628906 9.824219 38.675781 10 38.671875 C 10.359375 38.671875 10.691406 38.480469 10.871094 38.171875 L 11.871094 36.441406 C 12.007813 36.207031 12.042969 35.933594 11.976563 35.671875 C 11.90625 35.414063 11.734375 35.191406 11.5 35.058594 Z "></path>
<path style=" fill:#8D6C9F;" d="M 9 50 L 5 50 C 4.449219 50 4 50.449219 4 51 C 4 51.550781 4.449219 52 5 52 L 9 52 C 9.550781 52 10 51.550781 10 51 C 10 50.449219 9.550781 50 9 50 Z "></path>
<path style=" fill:#8D6C9F;" d="M 62.539063 11.710938 L 58.289063 7.460938 C 56.335938 5.507813 53.171875 5.507813 51.21875 7.460938 L 44.789063 13.890625 L 3 13.890625 C 1.34375 13.890625 0 15.234375 0 16.890625 L 0 53 C 0 54.65625 1.34375 56 3 56 L 53 56 C 54.65625 56 56 54.65625 56 53 L 56 25.328125 L 59.710938 21.609375 L 62.519531 18.800781 C 63.464844 17.863281 64 16.589844 64.003906 15.257813 C 64.007813 13.929688 63.480469 12.652344 62.539063 11.710938 Z M 49.109375 12.421875 L 57.589844 20.898438 L 55.929688 22.558594 L 47.449219 14.078125 L 47.53125 14 Z M 35.109375 38.421875 L 31.539063 34.859375 L 32.128906 30 L 36.589844 30.46875 L 36.589844 32.398438 C 36.589844 32.953125 37.039063 33.398438 37.589844 33.398438 L 39.519531 33.398438 L 40 37.921875 Z M 41.839844 36.660156 L 41.390625 32.300781 C 41.339844 31.785156 40.90625 31.398438 40.390625 31.398438 L 38.589844 31.398438 L 38.589844 30 L 44 24.628906 C 44.339844 24.234375 44.316406 23.640625 43.949219 23.273438 C 43.578125 22.902344 42.988281 22.878906 42.589844 23.21875 L 37.269531 28.539063 L 33.480469 28.140625 L 45.53125 16 L 46.039063 15.488281 L 54.519531 24 L 54 24.519531 Z M 54 53 C 54 53.550781 53.550781 54 53 54 L 3 54 C 2.449219 54 2 53.550781 2 53 L 2 17 C 2 16.449219 2.449219 16 3 16 L 42.710938 16 L 30.550781 28.191406 C 30.394531 28.351563 30.292969 28.558594 30.269531 28.78125 L 29.53125 35.109375 L 28.828125 40 C 28.789063 40.289063 28.875 40.582031 29.070313 40.800781 C 29.261719 41.019531 29.539063 41.144531 29.828125 41.140625 L 30 41.140625 L 34.949219 40.429688 L 41.300781 39.75 C 41.53125 39.726563 41.746094 39.625 41.910156 39.460938 L 54 27.339844 Z M 61.121094 17.359375 L 59 19.488281 L 50.519531 11 L 52.628906 8.890625 C 53.816406 7.757813 55.683594 7.757813 56.871094 8.890625 L 61.109375 13.128906 C 62.277344 14.296875 62.28125 16.1875 61.121094 17.359375 Z "></path>
<path style=" fill:#8D6C9F;" d="M 34.210938 44.210938 C 34.550781 43.8125 34.527344 43.222656 34.15625 42.851563 C 33.789063 42.484375 33.195313 42.460938 32.800781 42.800781 L 30.5 45.101563 L 27.101563 41.699219 C 26.550781 41.125 25.792969 40.800781 25 40.800781 C 24.207031 40.800781 23.449219 41.125 22.898438 41.699219 L 14.601563 50 L 13 50 C 12.449219 50 12 50.449219 12 51 C 12 51.550781 12.449219 52 13 52 L 51 52 C 51.550781 52 52 51.550781 52 51 C 52 50.449219 51.550781 50 51 50 L 28.410156 50 Z M 24.300781 43.101563 C 24.6875 42.71875 25.3125 42.71875 25.699219 43.101563 L 29.089844 46.488281 L 25.589844 50 L 17.398438 50 Z "></path>
<path style=" fill:#8D6C9F;" d="M 48.289063 44.710938 C 48.6875 45.050781 49.277344 45.027344 49.648438 44.65625 C 50.015625 44.289063 50.039063 43.695313 49.699219 43.300781 L 45.699219 39.300781 C 45.304688 38.960938 44.710938 38.984375 44.34375 39.351563 C 43.972656 39.722656 43.949219 40.3125 44.289063 40.710938 Z "></path>
</g>
</svg>