<!--?xml version="1.0" encoding="UTF-8"?-->
<svg xmlns="http://www.w3.org/2000/svg" xmlns:xlink="http://www.w3.org/1999/xlink" viewBox="0 0 64 64" version="1.1">
<g id="surface1">
<path style=" fill:#FAEFDE;" d="M 13.242188 4.9375 L 42 4.9375 C 43.65625 4.9375 45 6.28125 45 7.9375 L 45 55.9375 C 45 57.59375 43.65625 58.9375 42 58.9375 L 4 58.9375 C 2.34375 58.9375 1 57.59375 1 55.9375 L 1 17.179688 C 1 16.382813 1.316406 15.621094 1.878906 15.058594 L 11.121094 5.816406 C 11.683594 5.253906 12.445313 4.9375 13.242188 4.9375 Z "></path>
<path style=" fill:#FFF7F0;" d="M 1 59 L 0.851563 49.539063 L 44.335938 6.058594 L 45 29 L 15 59 Z "></path>
<path style=" fill:#FFF7F0;" d="M 0.851563 39.148438 L 35.0625 4.9375 L 40.8125 5.1875 L 1 45 Z "></path>
<path style=" fill:#FFF7F0;" d="M 0.851563 33.148438 L 29 5 L 32 5 L 0.851563 36.148438 Z "></path>
<path style=" fill:#FFFFFF;" d="M 35.503906 12.996094 L 36.738281 15.261719 L 39.003906 16.496094 L 36.738281 17.734375 L 35.503906 20 L 34.265625 17.734375 L 32 16.496094 L 34.265625 15.261719 Z "></path>
<path style=" fill:#FFFFFF;" d="M 20.417969 11 L 21.273438 12.5625 L 22.839844 13.417969 L 21.273438 14.273438 L 20.417969 15.839844 L 19.5625 14.273438 L 18 13.417969 L 19.5625 12.5625 Z "></path>
<path style=" fill:#FFFFFF;" d="M 6.648438 42 L 7.230469 43.066406 L 8.296875 43.648438 L 7.230469 44.230469 L 6.648438 45.296875 L 6.066406 44.230469 L 5 43.648438 L 6.066406 43.066406 Z "></path>
<path style=" fill:#F9E3AE;" d="M 41.121094 22.878906 L 51.121094 32.878906 L 31.5 52.5 L 21.5 42.5 Z "></path>
<path style=" fill:#F6D397;" d="M 44.121094 26.878906 L 50.621094 33.378906 L 32 52 L 25.5 45.5 Z "></path>
<path style=" fill:#ED7899;" d="M 57.507813 26.492188 L 47.539063 16.523438 L 50.910156 13.152344 C 52.082031 11.980469 53.980469 11.980469 55.152344 13.152344 L 60.878906 18.878906 C 62.050781 20.050781 62.050781 21.949219 60.878906 23.121094 Z "></path>
<path style=" fill:#BBDEF9;" d="M 13 5 L 13 17 L 1 17 Z "></path>
<path style=" fill:#C2CDE7;" d="M 47.121094 16.878906 L 57.121094 26.878906 L 50.5 33.5 L 40.5 23.5 Z "></path>
<path style=" fill:#FAEFDE;" d="M 20 51.644531 L 20.785156 43 L 26.285156 43.785156 L 27.070313 46.144531 L 29.363281 47.320313 L 31 53.214844 L 21.570313 53.214844 Z "></path>
<path style=" fill:#8D6C9F;" d="M 29 24 L 33 24 C 33.550781 24 34 23.550781 34 23 C 34 22.449219 33.550781 22 33 22 L 29 22 C 28.449219 22 28 22.449219 28 23 C 28 23.550781 28.449219 24 29 24 Z "></path>
<path style=" fill:#8D6C9F;" d="M 11 24 L 25 24 C 25.550781 24 26 23.550781 26 23 C 26 22.449219 25.550781 22 25 22 L 11 22 C 10.449219 22 10 22.449219 10 23 C 10 23.550781 10.449219 24 11 24 Z "></path>
<path style=" fill:#8D6C9F;" d="M 11 28 L 29 28 C 29.550781 28 30 27.550781 30 27 C 30 26.449219 29.550781 26 29 26 L 11 26 C 10.449219 26 10 26.449219 10 27 C 10 27.550781 10.449219 28 11 28 Z "></path>
<path style=" fill:#8D6C9F;" d="M 20 37 C 20 36.449219 19.550781 36 19 36 L 11 36 C 10.449219 36 10 36.449219 10 37 C 10 37.550781 10.449219 38 11 38 L 19 38 C 19.550781 38 20 37.550781 20 37 Z "></path>
<path style=" fill:#8D6C9F;" d="M 11 34 L 24 34 C 24.550781 34 25 33.550781 25 33 C 25 32.449219 24.550781 32 24 32 L 11 32 C 10.449219 32 10 32.449219 10 33 C 10 33.550781 10.449219 34 11 34 Z "></path>
<path style=" fill:#8D6C9F;" d="M 5 50 C 4.449219 50 4 50.449219 4 51 L 4 53 C 4 53.550781 4.449219 54 5 54 C 5.550781 54 6 53.550781 6 53 L 6 51 C 6 50.449219 5.550781 50 5 50 Z "></path>
<path style=" fill:#8D6C9F;" d="M 10 50 C 9.449219 50 9 50.449219 9 51 L 9 53 C 9 53.550781 9.449219 54 10 54 C 10.550781 54 11 53.550781 11 53 L 11 51 C 11 50.449219 10.550781 50 10 50 Z "></path>
<path style=" fill:#8D6C9F;" d="M 15 50 C 14.449219 50 14 50.449219 14 51 L 14 53 C 14 53.550781 14.449219 54 15 54 C 15.550781 54 16 53.550781 16 53 L 16 51 C 16 50.449219 15.550781 50 15 50 Z "></path>
<path style=" fill:#8D6C9F;" d="M 40 54 C 40.550781 54 41 53.550781 41 53 L 41 51 C 41 50.449219 40.550781 50 40 50 C 39.449219 50 39 50.449219 39 51 L 39 53 C 39 53.550781 39.449219 54 40 54 Z "></path>
<path style=" fill:#8D6C9F;" d="M 63 20.65625 C 63 19.589844 62.585938 18.585938 61.828125 17.828125 L 56.171875 12.171875 C 54.660156 10.660156 52.023438 10.660156 50.515625 12.171875 L 47.738281 14.949219 C 47.738281 14.949219 47.734375 14.949219 47.734375 14.949219 L 47.503906 15.183594 L 46.980469 15.707031 C 46.980469 15.707031 46.980469 15.710938 46.976563 15.710938 L 46 16.691406 L 46 7 C 46 5.347656 44.652344 4 43 4 L 13.65625 4 C 12.320313 4 11.066406 4.519531 10.121094 5.464844 L 1.464844 14.121094 C 0.519531 15.066406 0 16.320313 0 17.65625 L 0 57 C 0 58.652344 1.347656 60 3 60 L 43 60 C 44.652344 60 46 58.652344 46 57 L 46 39.339844 L 58.292969 27.019531 C 58.292969 27.019531 58.296875 27.019531 58.296875 27.019531 L 61.828125 23.484375 C 62.585938 22.730469 63 21.726563 63 20.65625 Z M 54.753906 27.734375 C 54.363281 27.363281 53.746094 27.367188 53.363281 27.75 L 51.949219 29.164063 C 51.566406 29.550781 51.566406 30.164063 51.9375 30.558594 L 50.523438 31.976563 L 42.039063 23.492188 L 47.6875 17.828125 L 56.171875 26.3125 Z M 31.457031 51.085938 L 31.003906 46.71875 C 30.949219 46.207031 30.519531 45.820313 30.007813 45.820313 L 28.179688 45.820313 L 28.179688 44.40625 L 33.542969 39.039063 C 33.933594 38.648438 33.933594 38.019531 33.542969 37.628906 C 33.152344 37.234375 32.519531 37.234375 32.128906 37.628906 L 26.8125 42.945313 L 23.023438 42.546875 L 40.625 24.90625 L 49.109375 33.390625 Z M 24.722656 52.847656 L 21.15625 49.28125 L 21.722656 44.421875 L 26.179688 44.890625 L 26.179688 46.820313 C 26.179688 47.371094 26.628906 47.820313 27.179688 47.820313 L 29.105469 47.820313 L 29.574219 52.332031 Z M 11.535156 6.878906 C 11.679688 6.738281 11.835938 6.609375 12 6.5 L 12 15 C 12 15.550781 11.550781 16 11 16 L 2.5 16 C 2.609375 15.835938 2.734375 15.679688 2.878906 15.535156 Z M 44 57 C 44 57.550781 43.550781 58 43 58 L 3 58 C 2.449219 58 2 57.550781 2 57 L 2 18 L 11 18 C 12.652344 18 14 16.652344 14 15 L 14 6 L 43 6 C 43.550781 6 44 6.449219 44 7 L 44 18.695313 L 39.957031 22.746094 C 39.941406 22.761719 39.921875 22.765625 39.910156 22.777344 C 39.894531 22.792969 39.890625 22.8125 39.878906 22.824219 L 20.136719 42.605469 C 19.980469 42.765625 19.878906 42.972656 19.851563 43.195313 L 19.117188 49.523438 L 18.410156 54.457031 C 18.367188 54.769531 18.472656 55.082031 18.695313 55.304688 C 18.882813 55.492188 19.140625 55.597656 19.402344 55.597656 C 19.449219 55.597656 19.496094 55.59375 19.542969 55.589844 L 24.464844 54.886719 L 30.851563 54.207031 C 31.078125 54.183594 31.289063 54.082031 31.453125 53.921875 L 34 51.367188 L 34 53 C 34 53.550781 34.449219 54 35 54 C 35.550781 54 36 53.550781 36 53 L 36 51 C 36 50.554688 35.703125 50.191406 35.304688 50.0625 L 44 41.34375 Z M 60.414063 22.070313 L 57.585938 24.898438 L 49.101563 16.414063 L 51.929688 13.585938 C 52.683594 12.828125 54.003906 12.828125 54.757813 13.585938 L 60.414063 19.242188 C 60.792969 19.621094 61 20.121094 61 20.65625 C 61 21.191406 60.792969 21.691406 60.414063 22.070313 Z "></path>
<path style=" fill:#8D6C9F;" d="M 46.292969 20.679688 L 44.878906 22.09375 C 44.488281 22.484375 44.488281 23.117188 44.878906 23.507813 C 45.074219 23.703125 45.328125 23.800781 45.585938 23.800781 C 45.84375 23.800781 46.097656 23.703125 46.292969 23.507813 L 47.707031 22.09375 C 48.097656 21.703125 48.097656 21.070313 47.707031 20.679688 C 47.316406 20.289063 46.683594 20.289063 46.292969 20.679688 Z "></path>
<path style=" fill:#8D6C9F;" d="M 49.828125 24.214844 L 48.414063 25.628906 C 48.023438 26.019531 48.023438 26.652344 48.414063 27.042969 C 48.609375 27.238281 48.867188 27.335938 49.121094 27.335938 C 49.378906 27.335938 49.636719 27.238281 49.828125 27.042969 L 51.242188 25.628906 C 51.636719 25.238281 51.636719 24.605469 51.242188 24.214844 C 50.851563 23.824219 50.21875 23.824219 49.828125 24.214844 Z "></path>
<path style=" fill:#8D6C9F;" d="M 39.199219 31.972656 C 38.808594 31.578125 38.179688 31.578125 37.785156 31.972656 L 34.957031 34.800781 C 34.566406 35.1875 34.566406 35.820313 34.957031 36.214844 C 35.152344 36.40625 35.410156 36.507813 35.664063 36.507813 C 35.921875 36.507813 36.175781 36.40625 36.371094 36.214844 L 39.199219 33.386719 C 39.59375 32.996094 39.59375 32.359375 39.199219 31.972656 Z "></path>
</g>
</svg>