<!--?xml version="1.0" encoding="UTF-8"?-->
<svg xmlns="http://www.w3.org/2000/svg" xmlns:xlink="http://www.w3.org/1999/xlink" viewBox="0 0 64 64" version="1.1">
<g id="surface1">
<path style=" fill:#C5E4FA;" d="M 45 53 L 1 53 L 1 13 L 55 13 L 55 43 Z "></path>
<path style=" fill:#E3F2FF;" d="M 34.109375 53 L 55 32.109375 L 55 14 L 52.210938 14 L 13.210938 53 Z "></path>
<path style=" fill:#E3F2FF;" d="M 1.289063 53 L 9.640625 53 L 48.640625 14 L 40.289063 14 Z "></path>
<path style=" fill:#E3F2FF;" d="M 1 49.710938 L 36.710938 14 L 32.75 14 L 1 45.75 Z "></path>
<path style=" fill:#ACB7D0;" d="M 3 7 L 53 7 C 54.105469 7 55 7.894531 55 9 L 55 11 C 55 12.105469 54.105469 13 53 13 L 3 13 C 1.894531 13 1 12.105469 1 11 L 1 9 C 1 7.894531 1.894531 7 3 7 Z "></path>
<path style=" fill:#F9E3AE;" d="M 45.542969 32.453125 L 55.542969 42.453125 L 41.5 56.496094 L 31.5 46.496094 Z "></path>
<path style=" fill:#F6D397;" d="M 48.957031 36.035156 L 55.457031 42.535156 L 42 55.992188 L 35.5 49.492188 Z "></path>
<path style=" fill:#ED7899;" d="M 56.152344 26.148438 L 61.878906 31.875 C 63.050781 33.046875 63.050781 34.949219 61.878906 36.121094 L 58.503906 39.492188 L 48.535156 29.523438 L 51.910156 26.148438 C 53.078125 24.976563 54.980469 24.976563 56.152344 26.148438 Z "></path>
<path style=" fill:#C2CDE7;" d="M 48.496094 29.507813 L 58.496094 39.503906 L 55.453125 42.542969 L 45.457031 32.546875 Z "></path>
<path style=" fill:#FAEFDE;" d="M 30 55.640625 L 30.789063 47 L 36.289063 47.789063 L 37.070313 50.140625 L 39.359375 51.320313 L 41 57.210938 L 31.570313 57.210938 Z "></path>
<path style=" fill:#8D6C9F;" d="M 16 46 C 15.449219 46 15 46.449219 15 47 L 15 49 C 15 49.550781 15.449219 50 16 50 C 16.550781 50 17 49.550781 17 49 L 17 47 C 17 46.449219 16.550781 46 16 46 Z "></path>
<path style=" fill:#8D6C9F;" d="M 11 46 C 10.449219 46 10 46.449219 10 47 L 10 49 C 10 49.550781 10.449219 50 11 50 C 11.550781 50 12 49.550781 12 49 L 12 47 C 12 46.449219 11.550781 46 11 46 Z "></path>
<path style=" fill:#8D6C9F;" d="M 6 46 C 5.449219 46 5 46.449219 5 47 L 5 49 C 5 49.550781 5.449219 50 6 50 C 6.550781 50 7 49.550781 7 49 L 7 47 C 7 46.449219 6.550781 46 6 46 Z "></path>
<path style=" fill:#8D6C9F;" d="M 21 46 C 20.449219 46 20 46.449219 20 47 L 20 49 C 20 49.550781 20.449219 50 21 50 C 21.550781 50 22 49.550781 22 49 L 22 47 C 22 46.449219 21.550781 46 21 46 Z "></path>
<path style=" fill:#8D6C9F;" d="M 26 46 C 25.449219 46 25 46.449219 25 47 L 25 49 C 25 49.550781 25.449219 50 26 50 C 26.550781 50 27 49.550781 27 49 L 27 47 C 27 46.449219 26.550781 46 26 46 Z "></path>
<path style=" fill:#8D6C9F;" d="M 19 22 L 23 22 C 23.550781 22 24 21.550781 24 21 C 24 20.449219 23.550781 20 23 20 L 19 20 C 18.449219 20 18 20.449219 18 21 C 18 21.550781 18.449219 22 19 22 Z "></path>
<path style=" fill:#8D6C9F;" d="M 27 22 L 43 22 C 43.550781 22 44 21.550781 44 21 C 44 20.449219 43.550781 20 43 20 L 27 20 C 26.449219 20 26 20.449219 26 21 C 26 21.550781 26.449219 22 27 22 Z "></path>
<path style=" fill:#8D6C9F;" d="M 19 30 L 43 30 C 43.550781 30 44 29.550781 44 29 C 44 28.449219 43.550781 28 43 28 L 19 28 C 18.449219 28 18 28.449219 18 29 C 18 29.550781 18.449219 30 19 30 Z "></path>
<path style=" fill:#8D6C9F;" d="M 32 37 C 32 36.449219 31.550781 36 31 36 L 19 36 C 18.449219 36 18 36.449219 18 37 C 18 37.550781 18.449219 38 19 38 L 31 38 C 31.550781 38 32 37.550781 32 37 Z "></path>
<path style=" fill:#8D6C9F;" d="M 10.289063 23.710938 C 10.679688 24.097656 11.308594 24.097656 11.699219 23.710938 L 15.699219 19.710938 C 16.039063 19.3125 16.015625 18.722656 15.648438 18.351563 C 15.277344 17.984375 14.6875 17.960938 14.289063 18.300781 L 11 21.589844 L 9.710938 20.289063 C 9.3125 19.949219 8.722656 19.972656 8.351563 20.34375 C 7.984375 20.710938 7.960938 21.304688 8.300781 21.699219 Z "></path>
<path style=" fill:#8D6C9F;" d="M 10.289063 31.710938 C 10.679688 32.097656 11.308594 32.097656 11.699219 31.710938 L 15.699219 27.710938 C 16.039063 27.3125 16.015625 26.722656 15.648438 26.351563 C 15.277344 25.984375 14.6875 25.960938 14.289063 26.300781 L 11 29.589844 L 9.710938 28.289063 C 9.3125 27.949219 8.722656 27.972656 8.351563 28.34375 C 7.984375 28.710938 7.960938 29.304688 8.300781 29.699219 Z "></path>
<path style=" fill:#8D6C9F;" d="M 11 40 C 11.265625 40 11.519531 39.898438 11.710938 39.710938 L 15.710938 35.710938 C 16.050781 35.3125 16.027344 34.722656 15.65625 34.351563 C 15.289063 33.984375 14.695313 33.960938 14.300781 34.300781 L 11 37.589844 L 9.710938 36.289063 C 9.3125 35.949219 8.722656 35.972656 8.351563 36.34375 C 7.984375 36.710938 7.960938 37.304688 8.300781 37.699219 L 10.300781 39.699219 C 10.484375 39.886719 10.734375 39.996094 11 40 Z "></path>
<path style=" fill:#8D6C9F;" d="M 59.710938 39.609375 L 62.539063 36.78125 C 64.492188 34.828125 64.492188 31.664063 62.539063 29.710938 L 58.300781 25.46875 C 57.664063 24.839844 56.871094 24.394531 56 24.179688 L 56 9 C 56 7.34375 54.65625 6 53 6 L 3 6 C 1.34375 6 0 7.34375 0 9 L 0 51 C 0 52.65625 1.34375 54 3 54 L 29.398438 54 L 28.820313 58 C 28.777344 58.289063 28.867188 58.582031 29.058594 58.800781 C 29.25 59.019531 29.527344 59.144531 29.820313 59.140625 L 30 59.140625 L 34.921875 58.441406 L 41.308594 57.761719 C 41.539063 57.734375 41.75 57.632813 41.910156 57.46875 Z M 55.929688 40.609375 L 47.449219 32.128906 L 49.101563 30.46875 L 57.578125 38.949219 Z M 56.878906 26.929688 L 61.121094 31.171875 C 62.289063 32.339844 62.289063 34.238281 61.121094 35.410156 L 59 37.488281 L 50.511719 29 L 50.558594 28.949219 L 52.628906 26.878906 C 53.191406 26.316406 53.957031 25.996094 54.753906 25.996094 C 55.550781 25.996094 56.316406 26.316406 56.878906 26.878906 Z M 2 9 C 2 8.449219 2.449219 8 3 8 L 53 8 C 53.550781 8 54 8.449219 54 9 L 54 12 L 2 12 Z M 30.269531 46.78125 L 29.660156 52 L 3 52 C 2.449219 52 2 51.550781 2 51 L 2 14 L 54 14 L 54 24.078125 C 52.949219 24.234375 51.976563 24.722656 51.21875 25.46875 L 48.390625 28.300781 L 45.390625 31.300781 L 30.550781 46.191406 C 30.394531 46.351563 30.292969 46.558594 30.269531 46.78125 Z M 35.140625 56.429688 L 31.578125 52.871094 L 32.140625 48 L 36.601563 48.46875 L 36.601563 50.398438 C 36.601563 50.953125 37.046875 51.398438 37.601563 51.398438 L 39.53125 51.398438 L 40 55.921875 Z M 41.871094 54.671875 L 41.421875 50.300781 C 41.367188 49.785156 40.933594 49.398438 40.421875 49.398438 L 38.589844 49.398438 L 38.589844 48 L 44 42.628906 C 44.339844 42.234375 44.316406 41.640625 43.949219 41.273438 C 43.578125 40.902344 42.988281 40.878906 42.589844 41.21875 L 37.269531 46.539063 L 33.480469 46.140625 L 46 33.488281 L 54.519531 42 L 54.449219 42.070313 C 54.34375 42.140625 54.25 42.234375 54.179688 42.339844 Z "></path>
</g>
</svg>