<!--?xml version="1.0" encoding="UTF-8"?-->
<svg xmlns="http://www.w3.org/2000/svg" xmlns:xlink="http://www.w3.org/1999/xlink" viewBox="0 0 64 64" version="1.1">
<g id="surface1">
<path style=" fill:#BBDEF9;" d="M 54 51 L 6 51 C 4.300781 51 3 49.699219 3 48 L 3 14 C 3 12.300781 4.300781 11 6 11 L 54 11 C 55.699219 11 57 12.300781 57 14 L 57 48 C 57 49.699219 55.699219 51 54 51 Z "></path>
<path style=" fill:#DEF0FF;" d="M 36 47 L 57 26 C 57 26 57.699219 12.398438 57.101563 11.898438 L 22 47 Z "></path>
<path style=" fill:#DEF0FF;" d="M 17.601563 47 L 11 47 L 47 11 L 53.601563 11 Z "></path>
<path style=" fill:#DEF0FF;" d="M 6 47 L 2 47 L 38 11 L 42 11 Z "></path>
<path style=" fill:#97E0BB;" d="M 40 47 L 29 37 L 19 47 Z "></path>
<path style=" fill:#72CAAF;" d="M 57 44 L 45 33 L 31 47 L 57 47 Z "></path>
<path style=" fill:#72CAAF;" d="M 3 47 L 57 47 L 57 48 C 57 49.699219 55.699219 51 54 51 L 6 51 C 4.300781 51 3 49.699219 3 48 Z "></path>
<path style=" fill:#F9E3AE;" d="M 57 15 L 57 51 L 7 51 L 7 52 C 7 53.699219 8.300781 55 10 55 L 58 55 C 59.699219 55 61 53.699219 61 52 L 61 18 C 61 16.300781 59.699219 15 58 15 Z "></path>
<path style=" fill:#FFEB9B;" d="M 21 25 C 21 27.210938 19.210938 29 17 29 C 14.789063 29 13 27.210938 13 25 C 13 22.789063 14.789063 21 17 21 C 19.210938 21 21 22.789063 21 25 Z "></path>
<path style=" fill:#8D6C9F;" d="M 22.101563 25 C 22.101563 22.199219 19.898438 20 17.101563 20 C 14.300781 20 12.101563 22.199219 12.101563 25 C 12.101563 27.800781 14.300781 30 17.101563 30 C 19.898438 30 22.101563 27.800781 22.101563 25 Z M 17.101563 28.300781 C 15.300781 28.300781 13.800781 26.800781 13.800781 25 C 13.800781 23.199219 15.300781 21.699219 17.101563 21.699219 C 18.898438 21.699219 20.398438 23.199219 20.398438 25 C 20.398438 26.800781 18.898438 28.300781 17.101563 28.300781 Z "></path>
<path style=" fill:#8D6C9F;" d="M 59 14 L 58 14 L 58 13 C 58 11.300781 56.699219 10 55 10 L 5 10 C 3.300781 10 2 11.300781 2 13 L 2 49 C 2 50.699219 3.300781 52 5 52 L 6 52 L 6 53 C 6 53.800781 6.300781 54.601563 6.898438 55.101563 C 7.5 55.699219 8.199219 56 9 56 L 59 56 C 60.699219 56 62 54.699219 62 53 L 62 17 C 62 15.300781 60.699219 14 59 14 Z M 5 50 C 4.398438 50 4 49.5 4 49 L 4 13 C 4 12.398438 4.398438 12 5 12 L 55 12 C 55.601563 12 56 12.398438 56 13 L 56 49 C 56 49.601563 55.601563 50 55 50 Z M 60 53 C 60 53.601563 59.601563 54 59 54 L 9 54 C 8.699219 54 8.5 53.898438 8.300781 53.699219 C 8.101563 53.5 8 53.300781 8 53 L 8 52 L 55 52 C 56.699219 52 58 50.699219 58 49 L 58 16 L 59 16 C 59.601563 16 60 16.398438 60 17 Z "></path>
<path style=" fill:#8D6C9F;" d="M 16 33 L 16 35 C 16 35.601563 16.398438 36 17 36 C 17.601563 36 18 35.601563 18 35 L 18 33 C 18 32.398438 17.601563 32 17 32 C 16.398438 32 16 32.398438 16 33 Z "></path>
<path style=" fill:#8D6C9F;" d="M 17 18 C 17.601563 18 18 17.601563 18 17 L 18 15 C 18 14.398438 17.601563 14 17 14 C 16.398438 14 16 14.398438 16 15 L 16 17 C 16 17.601563 16.398438 18 17 18 Z "></path>
<path style=" fill:#8D6C9F;" d="M 24 25 C 24 25.601563 24.398438 26 25 26 L 27 26 C 27.601563 26 28 25.601563 28 25 C 28 24.398438 27.601563 24 27 24 L 25 24 C 24.398438 24 24 24.398438 24 25 Z "></path>
<path style=" fill:#8D6C9F;" d="M 7 26 L 9 26 C 9.601563 26 10 25.601563 10 25 C 10 24.398438 9.601563 24 9 24 L 7 24 C 6.398438 24 6 24.398438 6 25 C 6 25.601563 6.398438 26 7 26 Z "></path>
<path style=" fill:#8D6C9F;" d="M 21.101563 34.199219 C 21.300781 34.5 21.601563 34.699219 22 34.699219 C 22.101563 34.699219 22.300781 34.699219 22.5 34.601563 C 23 34.300781 23.101563 33.699219 22.898438 33.199219 L 21.898438 31.5 C 21.601563 31 21.101563 30.800781 20.5 31.101563 C 20 31.398438 19.898438 32 20.101563 32.5 Z "></path>
<path style=" fill:#8D6C9F;" d="M 12.101563 18.601563 C 12.300781 18.898438 12.601563 19.101563 13 19.101563 C 13.101563 19.101563 13.300781 19.101563 13.5 19 C 14 18.699219 14.101563 18.101563 13.898438 17.601563 L 12.898438 15.898438 C 12.601563 15.398438 12.101563 15.199219 11.5 15.5 C 11 15.800781 10.898438 16.398438 11.101563 16.898438 Z "></path>
<path style=" fill:#8D6C9F;" d="M 23.101563 21.5 C 23.300781 21.800781 23.601563 22 24 22 C 24.199219 22 24.300781 21.898438 24.5 21.800781 L 26.199219 20.800781 C 26.699219 20.5 26.898438 20 26.601563 19.398438 C 26.300781 18.898438 25.699219 18.800781 25.199219 19 L 23.5 20 C 22.898438 20.398438 22.800781 21 23.101563 21.5 Z "></path>
<path style=" fill:#8D6C9F;" d="M 9.601563 28.101563 L 7.898438 29.101563 C 7.398438 29.398438 7.199219 29.898438 7.5 30.5 C 7.699219 30.800781 8 31 8.398438 31 C 8.601563 31 8.699219 30.898438 8.898438 30.800781 L 10.601563 29.800781 C 11.101563 29.5 11.300781 29 11 28.398438 C 10.601563 28 10.101563 27.898438 9.601563 28.101563 Z "></path>
<path style=" fill:#8D6C9F;" d="M 23.398438 29.898438 L 25.101563 30.898438 C 25.300781 31 25.398438 31.101563 25.601563 31.101563 C 26 31.101563 26.300781 30.898438 26.5 30.601563 C 26.800781 30.101563 26.601563 29.5 26.101563 29.199219 L 24.398438 28.199219 C 23.898438 27.898438 23.300781 28 23 28.601563 C 22.800781 29 22.898438 29.601563 23.398438 29.898438 Z "></path>
<path style=" fill:#8D6C9F;" d="M 7.800781 20.898438 L 9.5 21.898438 C 9.699219 22 9.898438 22 10.101563 22 C 10.5 22 10.800781 21.800781 11 21.5 C 11.300781 21 11.101563 20.398438 10.601563 20.101563 L 8.898438 19.101563 C 8.398438 18.800781 7.800781 18.898438 7.5 19.5 C 7.199219 20 7.398438 20.601563 7.800781 20.898438 Z "></path>
<path style=" fill:#8D6C9F;" d="M 20.5 18.898438 C 20.699219 19 20.898438 19.101563 21 19 C 21.300781 19 21.699219 18.800781 21.898438 18.5 L 22.898438 16.800781 C 23.199219 16.300781 23.101563 15.699219 22.5 15.398438 C 22 15.101563 21.398438 15.300781 21.101563 15.800781 L 20.101563 17.5 C 19.898438 18.101563 20 18.601563 20.5 18.898438 Z "></path>
<path style=" fill:#8D6C9F;" d="M 13.5 31.101563 C 13 30.800781 12.398438 31 12.101563 31.5 L 11.101563 33.199219 C 10.800781 33.699219 10.898438 34.300781 11.5 34.601563 C 11.699219 34.699219 11.898438 34.800781 12 34.699219 C 12.300781 34.699219 12.699219 34.5 12.898438 34.199219 L 13.898438 32.5 C 14.101563 31.898438 14 31.398438 13.5 31.101563 Z "></path>
<path style=" fill:#8D6C9F;" d="M 53 46 L 32.398438 46 L 44.300781 34.101563 C 44.699219 33.699219 45.300781 33.699219 45.699219 34.101563 L 52.300781 40.699219 C 52.699219 41.101563 53.300781 41.101563 53.699219 40.699219 C 54.101563 40.300781 54.101563 39.699219 53.699219 39.300781 L 47.101563 32.699219 C 46 31.601563 44 31.601563 42.898438 32.699219 L 34.5 41.101563 L 31.101563 37.699219 C 30 36.5 28.101563 36.5 26.898438 37.699219 L 18.601563 46 L 15 46 C 14.398438 46 14 46.398438 14 47 C 14 47.601563 14.5 48 15 48 L 53 48 C 53.5 48 54 47.601563 54 47 C 54 46.398438 53.5 46 53 46 Z M 28.300781 39.101563 C 28.699219 38.699219 29.300781 38.699219 29.699219 39.101563 L 33.101563 42.5 L 29.601563 46 L 21.398438 46 Z "></path>
<path style=" fill:#8D6C9F;" d="M 11 46 L 7 46 C 6.398438 46 6 46.398438 6 47 C 6 47.601563 6.398438 48 7 48 L 11 48 C 11.601563 48 12 47.601563 12 47 C 12 46.398438 11.601563 46 11 46 Z "></path>
</g>
</svg>