<!--?xml version="1.0" encoding="UTF-8"?-->
<svg xmlns="http://www.w3.org/2000/svg" xmlns:xlink="http://www.w3.org/1999/xlink" viewBox="0 0 64 64" version="1.1">
<g id="surface1">
<path style=" fill:#72CAAF;" d="M 61 57.378906 C 61 57.933594 60.550781 58.378906 60 58.378906 L 4 58.378906 C 3.449219 58.378906 3 57.933594 3 57.378906 L 3 49.378906 C 3.023438 45.804688 5.078125 42.554688 8.300781 41 L 22.371094 34.269531 C 24.921875 37.480469 28.28125 39.769531 32 39.769531 C 35.71875 39.769531 39.078125 37.480469 41.628906 34.269531 L 55.699219 41 C 58.929688 42.558594 60.988281 45.824219 61 49.410156 Z "></path>
<path style=" fill:#7DD8BA;" d="M 32 43 C 36.101563 43 39.820313 40.878906 42.570313 37.441406 C 42.953125 36.964844 43.097656 36.335938 42.960938 35.742188 C 42.824219 35.144531 42.421875 34.644531 41.871094 34.378906 L 41.640625 34.269531 C 39.089844 37.480469 35.730469 39.769531 32.011719 39.769531 C 28.289063 39.769531 24.929688 37.480469 22.378906 34.269531 L 22.148438 34.378906 C 21.597656 34.644531 21.195313 35.144531 21.058594 35.742188 C 20.921875 36.335938 21.066406 36.964844 21.449219 37.441406 C 24.179688 40.878906 27.898438 43 32 43 Z "></path>
<path style=" fill:#66BFA1;" d="M 57 54 L 7 54 C 4.789063 54 3 55.789063 3 58 C 3 58.550781 3.449219 59 4 59 L 60 59 C 60.550781 59 61 58.550781 61 58 C 61 55.789063 59.210938 54 57 54 Z "></path>
<path style=" fill:#FAEFDE;" d="M 19.070313 26.128906 C 18.761719 26.128906 17.761719 25.308594 17.238281 23.359375 C 16.71875 21.410156 17.191406 20.089844 17.429688 20.03125 C 17.429688 20.03125 19.328125 19.699219 19.351563 19.320313 C 19.375 18.773438 19.433594 18.230469 19.53125 17.691406 C 19.585938 17.113281 19.558594 16.53125 19.449219 15.960938 C 19.1875 14.160156 19.140625 12.332031 19.320313 10.519531 C 19.660156 7.140625 21.640625 5.128906 24.628906 5.128906 C 24.855469 5.128906 25.078125 5.054688 25.261719 4.921875 C 27.285156 3.664063 29.617188 3 32 3 L 33.058594 3 C 39.480469 3 44.058594 6.28125 46.011719 12.070313 C 45.28125 11.988281 45.519531 12.5 45.011719 13 C 44.5 13.5 43.230469 13.699219 43.710938 15 C 44.289063 16.367188 44.628906 17.828125 44.710938 19.308594 C 44.710938 19.691406 46.609375 19.019531 46.628906 19.019531 C 46.890625 19.109375 47.351563 21.390625 46.820313 23.351563 C 46.414063 24.65625 45.800781 25.890625 45 27 C 42.648438 32.609375 42.121094 31.261719 41.578125 32.140625 C 39.25 35.96875 35.820313 38.941406 32 38.941406 C 26.53125 38.941406 21.859375 32.878906 20.078125 26.890625 C 19.949219 26.441406 19.539063 26.132813 19.070313 26.128906 Z "></path>
<path style=" fill:#8B8E98;" d="M 19.449219 16 C 22.4375 15.796875 25.015625 13.828125 26 11 C 29 12 30 15 44 14 C 45.390625 13.898438 45.601563 14.390625 46 14 C 46.398438 13.609375 45.28125 12 46 12.070313 C 44.109375 6.28125 39.46875 3 33.058594 3 L 32 3 C 29.617188 2.992188 27.277344 3.648438 25.25 4.898438 C 25.066406 5.035156 24.847656 5.109375 24.621094 5.109375 C 21.621094 5.109375 19.621094 7.109375 19.308594 10.5 C 19.132813 12.3125 19.175781 14.136719 19.441406 15.941406 Z "></path>
<path style=" fill:#F9E3AE;" d="M 27 49 L 37 49 L 37 62 L 27 62 Z "></path>
<path style=" fill:#8D6C9F;" d="M 42 52 C 41.449219 52 41 52.449219 41 53 L 41 55 C 41 55.550781 41.449219 56 42 56 C 42.550781 56 43 55.550781 43 55 L 43 53 C 43 52.449219 42.550781 52 42 52 Z "></path>
<path style=" fill:#8D6C9F;" d="M 47 52 C 46.449219 52 46 52.449219 46 53 L 46 55 C 46 55.550781 46.449219 56 47 56 C 47.550781 56 48 55.550781 48 55 L 48 53 C 48 52.449219 47.550781 52 47 52 Z "></path>
<path style=" fill:#8D6C9F;" d="M 56 53 L 56 55 C 56 55.550781 56.449219 56 57 56 C 57.550781 56 58 55.550781 58 55 L 58 53 C 58 52.449219 57.550781 52 57 52 C 56.449219 52 56 52.449219 56 53 Z "></path>
<path style=" fill:#8D6C9F;" d="M 52 52 C 51.449219 52 51 52.449219 51 53 L 51 55 C 51 55.550781 51.449219 56 52 56 C 52.550781 56 53 55.550781 53 55 L 53 53 C 53 52.449219 52.550781 52 52 52 Z "></path>
<path style=" fill:#8D6C9F;" d="M 22 52 C 21.449219 52 21 52.449219 21 53 L 21 55 C 21 55.550781 21.449219 56 22 56 C 22.550781 56 23 55.550781 23 55 L 23 53 C 23 52.449219 22.550781 52 22 52 Z "></path>
<path style=" fill:#8D6C9F;" d="M 17 52 C 16.449219 52 16 52.449219 16 53 L 16 55 C 16 55.550781 16.449219 56 17 56 C 17.550781 56 18 55.550781 18 55 L 18 53 C 18 52.449219 17.550781 52 17 52 Z "></path>
<path style=" fill:#8D6C9F;" d="M 12 52 C 11.449219 52 11 52.449219 11 53 L 11 55 C 11 55.550781 11.449219 56 12 56 C 12.550781 56 13 55.550781 13 55 L 13 53 C 13 52.449219 12.550781 52 12 52 Z "></path>
<path style=" fill:#8D6C9F;" d="M 7 52 C 6.449219 52 6 52.449219 6 53 L 6 55 C 6 55.550781 6.449219 56 7 56 C 7.550781 56 8 55.550781 8 55 L 8 53 C 8 52.449219 7.550781 52 7 52 Z "></path>
<path style=" fill:#8D6C9F;" d="M 27.921875 12.878906 C 30.785156 14.269531 33.925781 14.996094 37.109375 15 L 39.660156 15 C 40.210938 15 40.660156 14.550781 40.660156 14 C 40.660156 13.449219 40.210938 13 39.660156 13 L 37.109375 13 C 34.226563 12.996094 31.382813 12.339844 28.789063 11.078125 L 27.230469 10.320313 C 26.324219 9.878906 25.234375 10.179688 24.679688 11.019531 L 23.078125 13.449219 C 22.789063 13.910156 22.917969 14.519531 23.375 14.820313 C 23.828125 15.121094 24.441406 15 24.75 14.550781 L 26.351563 12.121094 Z "></path>
<path style=" fill:#8D6C9F;" d="M 55.75 39.378906 L 42.480469 33 C 43.539063 31.355469 44.386719 29.585938 45 27.730469 C 46.230469 27.269531 47.351563 25.730469 47.878906 23.730469 C 48.621094 20.980469 47.878906 18.570313 46.28125 18.121094 C 46.140625 18.085938 45.996094 18.0625 45.851563 18.058594 C 45.679688 16.882813 45.371094 15.726563 44.929688 14.621094 L 44.929688 14.511719 C 45.402344 14.566406 45.867188 14.6875 46.308594 14.871094 C 46.65625 15.011719 47.050781 14.953125 47.335938 14.714844 C 47.621094 14.472656 47.75 14.09375 47.671875 13.730469 C 46 6.410156 40.558594 2 33 2 L 32 2 C 29.429688 2.011719 26.90625 2.699219 24.691406 4 C 21 4.140625 18.421875 6.761719 18 10.898438 C 17.816406 12.765625 17.859375 14.644531 18.128906 16.5 C 18.183594 16.832031 18.214844 17.164063 18.21875 17.5 C 18.21875 17.6875 18.191406 17.875 18.128906 18.058594 C 17.980469 18.0625 17.835938 18.082031 17.691406 18.121094 C 16.039063 18.558594 15.351563 20.96875 16.089844 23.730469 C 16.628906 25.730469 17.75 27.230469 18.96875 27.730469 C 19.59375 29.585938 20.449219 31.359375 21.519531 33 L 8.25 39.378906 C 4.441406 41.21875 2.015625 45.070313 2 49.300781 L 2 57 C 2 58.65625 3.34375 60 5 60 L 26 60 L 26 61 C 26 62.105469 26.894531 63 28 63 L 36 63 C 37.105469 63 38 62.105469 38 61 L 38 60 L 59 60 C 60.65625 60 62 58.65625 62 57 L 62 49.300781 C 61.984375 45.070313 59.558594 41.21875 55.75 39.378906 Z M 19.75 25.878906 C 19.460938 25.878906 18.511719 25.101563 18.019531 23.261719 C 17.53125 21.421875 17.96875 20.171875 18.199219 20.109375 C 18.296875 20.125 18.390625 20.167969 18.46875 20.230469 C 18.769531 20.417969 19.148438 20.433594 19.464844 20.269531 C 19.78125 20.105469 19.984375 19.785156 20 19.429688 C 20.023438 18.914063 20.082031 18.398438 20.171875 17.890625 C 20.222656 17.34375 20.195313 16.789063 20.089844 16.25 C 19.851563 14.542969 19.820313 12.8125 20 11.101563 C 20.308594 7.910156 22.191406 6 25 6 C 25.214844 6 25.425781 5.929688 25.601563 5.800781 C 27.523438 4.613281 29.742188 3.988281 32 4 L 33 4 C 39.070313 4 43.449219 7.101563 45.25 12.578125 C 44.578125 12.449219 43.878906 12.625 43.351563 13.058594 C 42.773438 13.6875 42.65625 14.609375 43.058594 15.359375 C 43.59375 16.65625 43.898438 18.03125 43.960938 19.429688 C 43.976563 19.785156 44.183594 20.105469 44.503906 20.269531 C 44.820313 20.433594 45.199219 20.414063 45.5 20.21875 C 45.578125 20.160156 45.671875 20.117188 45.769531 20.101563 C 46.011719 20.179688 46.449219 21.398438 45.949219 23.25 C 45.449219 25.101563 44.511719 25.871094 44.21875 25.871094 C 43.761719 25.851563 43.347656 26.148438 43.21875 26.589844 C 41.589844 32.261719 37.179688 38 32 38 C 26.820313 38 22.410156 32.261719 20.71875 26.601563 C 20.597656 26.175781 20.210938 25.882813 19.769531 25.878906 Z M 32 40 C 35.601563 40 38.839844 37.789063 41.300781 34.691406 L 43.820313 35.898438 L 34.558594 48 L 29.441406 48 L 20.179688 35.890625 L 22.699219 34.679688 C 25.160156 37.789063 28.398438 40 32 40 Z M 5 58 C 4.449219 58 4 57.550781 4 57 L 4 49.300781 C 4 45.832031 5.992188 42.675781 9.121094 41.179688 L 18.339844 36.769531 L 27.101563 48.21875 C 26.425781 48.558594 26.003906 49.246094 26 50 L 26 58 Z M 36 61 L 28 61 L 28 50 L 28.449219 50 L 30.160156 52.230469 C 29.820313 53.042969 30.054688 53.984375 30.734375 54.542969 C 31.417969 55.105469 32.382813 55.152344 33.117188 54.664063 C 33.851563 54.171875 34.175781 53.261719 33.917969 52.417969 C 33.660156 51.574219 32.882813 50.996094 32 51 L 31.75 51 L 31 50 L 36 50 Z M 60 57 C 60 57.550781 59.550781 58 59 58 L 38 58 L 38 50 C 37.996094 49.253906 37.574219 48.570313 36.910156 48.230469 L 45.671875 36.78125 L 54.890625 41.191406 C 58.011719 42.6875 59.996094 45.839844 60 49.300781 Z "></path>
</g>
</svg>