<svg xmlns="http://www.w3.org/2000/svg" xmlns:xlink="http://www.w3.org/1999/xlink" viewBox="0 0 64 64" version="1.1">
<g id="surface1">
<path style=" fill:#58B5E8;" d="M 13 7 L 51 7 C 54.3125 7 57 9.6875 57 13 L 57 51 C 57 54.3125 54.3125 57 51 57 L 13 57 C 9.6875 57 7 54.3125 7 51 L 7 13 C 7 9.6875 9.6875 7 13 7 Z "></path>
<path style=" fill:#FAEFDE;" d="M 46 24 C 46 26.761719 43.761719 29 41 29 C 38.238281 29 36 26.761719 36 24 C 36 21.238281 38.238281 19 41 19 C 43.761719 19 46 21.238281 46 24 Z "></path>
<path style=" fill:#65C5EF;" d="M 11 7 L 53 7 C 55.210938 7 57 8.789063 57 11 C 57 12.65625 55.65625 14 54 14 L 10 14 C 8.34375 14 7 12.65625 7 11 C 7 8.789063 8.789063 7 11 7 Z "></path>
<path style=" fill:#FAEFDE;" d="M 33 24 C 33 26.210938 31.210938 28 29 28 C 26.789063 28 25 26.210938 25 24 C 25 21.789063 26.789063 20 29 20 C 31.210938 20 33 21.789063 33 24 Z "></path>
<path style=" fill:#FAEFDE;" d="M 22 24 C 22 25.65625 20.65625 27 19 27 C 17.34375 27 16 25.65625 16 24 C 16 22.34375 17.34375 21 19 21 C 20.65625 21 22 22.34375 22 24 Z "></path>
<path style=" fill:#FAEFDE;" d="M 41 33 C 38.53125 33.003906 36.203125 34.148438 34.691406 36.101563 C 33.945313 33.851563 31.949219 32.253906 29.597656 32.015625 C 27.242188 31.777344 24.96875 32.949219 23.789063 35 C 23.078125 32.445313 20.640625 30.761719 18 31 C 15.117188 31.328125 12.957031 33.789063 13 36.691406 L 13 39 C 13 40.105469 13.894531 41 15 41 L 23 41 L 23 43 C 23 44.105469 23.894531 45 25 45 L 33 45 L 33 49 C 33 50.105469 33.894531 51 35 51 L 47 51 C 48.105469 51 49 50.105469 49 49 L 49 41.300781 C 49.011719 36.828125 45.472656 33.152344 41 33 Z "></path>
<path style=" fill:#8D6C9F;" d="M 51 6 L 13 6 C 9.132813 6 6 9.132813 6 13 L 6 51 C 6 54.867188 9.132813 58 13 58 L 51 58 C 54.867188 58 58 54.867188 58 51 L 58 13 C 58 9.132813 54.867188 6 51 6 Z M 56 51 C 56 53.761719 53.761719 56 51 56 L 13 56 C 10.238281 56 8 53.761719 8 51 L 8 13 C 8 10.238281 10.238281 8 13 8 L 51 8 C 53.761719 8 56 10.238281 56 13 Z "></path>
<path style=" fill:#8D6C9F;" d="M 17 16 C 17.550781 16 18 15.550781 18 15 L 18 13 C 18 12.449219 17.550781 12 17 12 C 16.449219 12 16 12.449219 16 13 L 16 15 C 16 15.550781 16.449219 16 17 16 Z "></path>
<path style=" fill:#8D6C9F;" d="M 13 15 L 13 13 C 13 12.449219 12.550781 12 12 12 C 11.449219 12 11 12.449219 11 13 L 11 15 C 11 15.550781 11.449219 16 12 16 C 12.550781 16 13 15.550781 13 15 Z "></path>
<path style=" fill:#8D6C9F;" d="M 32 16 C 32.550781 16 33 15.550781 33 15 L 33 13 C 33 12.449219 32.550781 12 32 12 C 31.449219 12 31 12.449219 31 13 L 31 15 C 31 15.550781 31.449219 16 32 16 Z "></path>
<path style=" fill:#8D6C9F;" d="M 37 16 C 37.550781 16 38 15.550781 38 15 L 38 13 C 38 12.449219 37.550781 12 37 12 C 36.449219 12 36 12.449219 36 13 L 36 15 C 36 15.550781 36.449219 16 37 16 Z "></path>
<path style=" fill:#8D6C9F;" d="M 42 16 C 42.550781 16 43 15.550781 43 15 L 43 13 C 43 12.449219 42.550781 12 42 12 C 41.449219 12 41 12.449219 41 13 L 41 15 C 41 15.550781 41.449219 16 42 16 Z "></path>
<path style=" fill:#8D6C9F;" d="M 47 16 C 47.550781 16 48 15.550781 48 15 L 48 13 C 48 12.449219 47.550781 12 47 12 C 46.449219 12 46 12.449219 46 13 L 46 15 C 46 15.550781 46.449219 16 47 16 Z "></path>
<path style=" fill:#8D6C9F;" d="M 52 12 C 51.449219 12 51 12.449219 51 13 L 51 15 C 51 15.550781 51.449219 16 52 16 C 52.550781 16 53 15.550781 53 15 L 53 13 C 53 12.449219 52.550781 12 52 12 Z "></path>
<path style=" fill:#8D6C9F;" d="M 22 16 C 22.550781 16 23 15.550781 23 15 L 23 13 C 23 12.449219 22.550781 12 22 12 C 21.449219 12 21 12.449219 21 13 L 21 15 C 21 15.550781 21.449219 16 22 16 Z "></path>
<path style=" fill:#8D6C9F;" d="M 27 16 C 27.550781 16 28 15.550781 28 15 L 28 13 C 28 12.449219 27.550781 12 27 12 C 26.449219 12 26 12.449219 26 13 L 26 15 C 26 15.550781 26.449219 16 27 16 Z "></path>
<path style=" fill:#8D6C9F;" d="M 41 30 C 44.3125 30 47 27.3125 47 24 C 47 20.6875 44.3125 18 41 18 C 37.6875 18 35 20.6875 35 24 C 35 27.3125 37.6875 30 41 30 Z M 41 20 C 43.210938 20 45 21.789063 45 24 C 45 26.210938 43.210938 28 41 28 C 38.789063 28 37 26.210938 37 24 C 37 21.789063 38.789063 20 41 20 Z "></path>
<path style=" fill:#8D6C9F;" d="M 29 29 C 31.761719 29 34 26.761719 34 24 C 34 21.238281 31.761719 19 29 19 C 26.238281 19 24 21.238281 24 24 C 24 26.761719 26.238281 29 29 29 Z M 29 21 C 30.65625 21 32 22.34375 32 24 C 32 25.65625 30.65625 27 29 27 C 27.34375 27 26 25.65625 26 24 C 26 22.34375 27.34375 21 29 21 Z "></path>
<path style=" fill:#8D6C9F;" d="M 19 28 C 21.210938 28 23 26.210938 23 24 C 23 21.789063 21.210938 20 19 20 C 16.789063 20 15 21.789063 15 24 C 15 26.210938 16.789063 28 19 28 Z M 19 22 C 20.105469 22 21 22.894531 21 24 C 21 25.105469 20.105469 26 19 26 C 17.894531 26 17 25.105469 17 24 C 17 22.894531 17.894531 22 19 22 Z "></path>
<path style=" fill:#8D6C9F;" d="M 41 32 C 38.78125 32.003906 36.640625 32.835938 35 34.328125 C 33.875 32.480469 31.957031 31.25 29.804688 31.007813 C 27.65625 30.761719 25.511719 31.527344 24 33.078125 C 22.714844 30.984375 20.359375 29.792969 17.910156 30 C 14.507813 30.386719 11.953125 33.285156 12 36.710938 L 12 39 C 12 40.65625 13.34375 42 15 42 L 22 42 L 22 43 C 22 44.65625 23.34375 46 25 46 L 32 46 L 32 49 C 32 50.65625 33.34375 52 35 52 L 47 52 C 48.65625 52 50 50.65625 50 49 L 50 41.300781 C 49.980469 38.882813 49.042969 36.5625 47.378906 34.808594 C 45.734375 33.03125 43.425781 32.011719 41 32 Z M 48 49 C 48 49.550781 47.550781 50 47 50 L 35 50 C 34.449219 50 34 49.550781 34 49 L 34 45 C 34 44.449219 33.550781 44 33 44 L 25 44 C 24.449219 44 24 43.550781 24 43 L 24 41 C 24 40.449219 23.550781 40 23 40 L 15 40 C 14.449219 40 14 39.550781 14 39 L 14 36.710938 C 13.945313 34.320313 15.71875 32.28125 18.089844 32 L 18.488281 32 C 20.511719 32 22.285156 33.34375 22.828125 35.289063 C 22.9375 35.679688 23.269531 35.964844 23.667969 36.011719 C 24.066406 36.0625 24.460938 35.871094 24.660156 35.519531 C 25.636719 33.808594 27.527344 32.835938 29.488281 33.027344 C 31.449219 33.21875 33.113281 34.542969 33.738281 36.410156 C 33.855469 36.761719 34.15625 37.019531 34.519531 37.082031 C 34.882813 37.144531 35.253906 37.003906 35.480469 36.710938 C 36.804688 35.003906 38.839844 34.003906 41 34 C 42.875 34.015625 44.660156 34.808594 45.929688 36.191406 C 47.242188 37.570313 47.984375 39.394531 48 41.300781 Z "></path>
</g>
</svg>