<!--?xml version="1.0" encoding="UTF-8"?-->
<svg xmlns="http://www.w3.org/2000/svg" xmlns:xlink="http://www.w3.org/1999/xlink" viewBox="0 0 64 64" version="1.1">
<g id="surface1">
<path style=" fill:#BBDEF9;" d="M 21.238281 4.941406 L 50 4.941406 C 51.65625 4.941406 53 6.28125 53 7.941406 L 53 55.941406 C 53 57.597656 51.65625 58.941406 50 58.941406 L 12 58.941406 C 10.34375 58.941406 9 57.597656 9 55.941406 L 9 17.179688 C 9 16.382813 9.316406 15.621094 9.878906 15.058594 L 19.121094 5.820313 C 19.683594 5.257813 20.445313 4.941406 21.238281 4.941406 Z "></path>
<path style=" fill:#CCE7FC;" d="M 9 59 L 8.851563 49.539063 L 52.339844 6.058594 L 53 29 L 23 59 Z "></path>
<path style=" fill:#CCE7FC;" d="M 8.851563 39.148438 L 43.058594 4.941406 L 48.808594 5.191406 L 9 45 Z "></path>
<path style=" fill:#CCE7FC;" d="M 8.851563 33.148438 L 37 5 L 40 5 L 8.851563 36.148438 Z "></path>
<path style=" fill:#FFFFFF;" d="M 43.5 11 L 44.738281 13.261719 L 47 14.5 L 44.738281 15.738281 L 43.5 18 L 42.261719 15.738281 L 40 14.5 L 42.261719 13.261719 Z "></path>
<path style=" fill:#FFFFFF;" d="M 28.421875 10 L 29.269531 11.558594 L 30.839844 12.421875 L 29.269531 13.269531 L 28.421875 14.839844 L 27.558594 13.269531 L 26 12.421875 L 27.558594 11.558594 Z "></path>
<path style=" fill:#FFFFFF;" d="M 13.648438 47 L 14.230469 48.058594 L 15.300781 48.648438 L 14.230469 49.230469 L 13.648438 50.300781 L 13.058594 49.230469 L 12 48.648438 L 13.058594 48.058594 Z "></path>
<path style=" fill:#FFEFB8;" d="M 21 5 L 21 17 L 9 17 Z "></path>
<path style=" fill:#FFEFB8;" d="M 17 41 L 21 41 L 21 45 L 17 45 Z "></path>
<path style=" fill:#FFEFB8;" d="M 17 31 L 21 31 L 21 35 L 17 35 Z "></path>
<path style=" fill:#FFEFB8;" d="M 17 21 L 21 21 L 21 25 L 17 25 Z "></path>
<path style=" fill:#8D6C9F;" d="M 51 4 L 21.660156 4 C 20.332031 3.996094 19.058594 4.523438 18.121094 5.460938 L 9.460938 14.121094 C 8.523438 15.058594 7.996094 16.332031 8 17.660156 L 8 57 C 8 58.65625 9.34375 60 11 60 L 51 60 C 52.65625 60 54 58.65625 54 57 L 54 7 C 54 5.34375 52.65625 4 51 4 Z M 19.539063 6.878906 C 19.679688 6.738281 19.835938 6.609375 20 6.5 L 20 15 C 20 15.550781 19.550781 16 19 16 L 10.5 16 C 10.609375 15.835938 10.738281 15.679688 10.878906 15.539063 Z M 52 57 C 52 57.550781 51.550781 58 51 58 L 11 58 C 10.449219 58 10 57.550781 10 57 L 10 18 L 19 18 C 20.65625 18 22 16.65625 22 15 L 22 6 L 51 6 C 51.550781 6 52 6.449219 52 7 Z "></path>
<path style=" fill:#8D6C9F;" d="M 13 52 C 12.449219 52 12 52.449219 12 53 L 12 55 C 12 55.550781 12.449219 56 13 56 C 13.550781 56 14 55.550781 14 55 L 14 53 C 14 52.449219 13.550781 52 13 52 Z "></path>
<path style=" fill:#8D6C9F;" d="M 18 52 C 17.449219 52 17 52.449219 17 53 L 17 55 C 17 55.550781 17.449219 56 18 56 C 18.550781 56 19 55.550781 19 55 L 19 53 C 19 52.449219 18.550781 52 18 52 Z "></path>
<path style=" fill:#8D6C9F;" d="M 23 52 C 22.449219 52 22 52.449219 22 53 L 22 55 C 22 55.550781 22.449219 56 23 56 C 23.550781 56 24 55.550781 24 55 L 24 53 C 24 52.449219 23.550781 52 23 52 Z "></path>
<path style=" fill:#8D6C9F;" d="M 28 52 C 27.449219 52 27 52.449219 27 53 L 27 55 C 27 55.550781 27.449219 56 28 56 C 28.550781 56 29 55.550781 29 55 L 29 53 C 29 52.449219 28.550781 52 28 52 Z "></path>
<path style=" fill:#8D6C9F;" d="M 33 52 C 32.449219 52 32 52.449219 32 53 L 32 55 C 32 55.550781 32.449219 56 33 56 C 33.550781 56 34 55.550781 34 55 L 34 53 C 34 52.449219 33.550781 52 33 52 Z "></path>
<path style=" fill:#8D6C9F;" d="M 38 52 C 37.449219 52 37 52.449219 37 53 L 37 55 C 37 55.550781 37.449219 56 38 56 C 38.550781 56 39 55.550781 39 55 L 39 53 C 39 52.449219 38.550781 52 38 52 Z "></path>
<path style=" fill:#8D6C9F;" d="M 43 52 C 42.449219 52 42 52.449219 42 53 L 42 55 C 42 55.550781 42.449219 56 43 56 C 43.550781 56 44 55.550781 44 55 L 44 53 C 44 52.449219 43.550781 52 43 52 Z "></path>
<path style=" fill:#8D6C9F;" d="M 48 52 C 47.449219 52 47 52.449219 47 53 L 47 55 C 47 55.550781 47.449219 56 48 56 C 48.550781 56 49 55.550781 49 55 L 49 53 C 49 52.449219 48.550781 52 48 52 Z "></path>
<path style=" fill:#8D6C9F;" d="M 45 20 L 41 20 C 40.449219 20 40 20.449219 40 21 C 40 21.550781 40.449219 22 41 22 L 45 22 C 45.550781 22 46 21.550781 46 21 C 46 20.449219 45.550781 20 45 20 Z "></path>
<path style=" fill:#8D6C9F;" d="M 25 22 L 37 22 C 37.550781 22 38 21.550781 38 21 C 38 20.449219 37.550781 20 37 20 L 25 20 C 24.449219 20 24 20.449219 24 21 C 24 21.550781 24.449219 22 25 22 Z "></path>
<path style=" fill:#8D6C9F;" d="M 25 26 L 39 26 C 39.550781 26 40 25.550781 40 25 C 40 24.449219 39.550781 24 39 24 L 25 24 C 24.449219 24 24 24.449219 24 25 C 24 25.550781 24.449219 26 25 26 Z "></path>
<path style=" fill:#8D6C9F;" d="M 25 36 L 39 36 C 39.550781 36 40 35.550781 40 35 C 40 34.449219 39.550781 34 39 34 L 25 34 C 24.449219 34 24 34.449219 24 35 C 24 35.550781 24.449219 36 25 36 Z "></path>
<path style=" fill:#8D6C9F;" d="M 43 30 L 25 30 C 24.449219 30 24 30.449219 24 31 C 24 31.550781 24.449219 32 25 32 L 43 32 C 43.550781 32 44 31.550781 44 31 C 44 30.449219 43.550781 30 43 30 Z "></path>
<path style=" fill:#8D6C9F;" d="M 18 26 L 20 26 C 21.105469 26 22 25.105469 22 24 L 22 22 C 22 20.894531 21.105469 20 20 20 L 18 20 C 16.894531 20 16 20.894531 16 22 L 16 24 C 16 25.105469 16.894531 26 18 26 Z M 17.75 21.75 L 20.25 21.75 L 20.25 24.25 L 17.75 24.25 Z "></path>
<path style=" fill:#8D6C9F;" d="M 18 36 L 20 36 C 21.105469 36 22 35.105469 22 34 L 22 32 C 22 30.894531 21.105469 30 20 30 L 18 30 C 16.894531 30 16 30.894531 16 32 L 16 34 C 16 35.105469 16.894531 36 18 36 Z M 17.75 31.75 L 20.25 31.75 L 20.25 34.25 L 17.75 34.25 Z "></path>
<path style=" fill:#8D6C9F;" d="M 39 44 L 25 44 C 24.449219 44 24 44.449219 24 45 C 24 45.550781 24.449219 46 25 46 L 39 46 C 39.550781 46 40 45.550781 40 45 C 40 44.449219 39.550781 44 39 44 Z "></path>
<path style=" fill:#8D6C9F;" d="M 43 40 L 25 40 C 24.449219 40 24 40.449219 24 41 C 24 41.550781 24.449219 42 25 42 L 43 42 C 43.550781 42 44 41.550781 44 41 C 44 40.449219 43.550781 40 43 40 Z "></path>
<path style=" fill:#8D6C9F;" d="M 22 42 C 22 40.894531 21.105469 40 20 40 L 18 40 C 16.894531 40 16 40.894531 16 42 L 16 44 C 16 45.105469 16.894531 46 18 46 L 20 46 C 21.105469 46 22 45.105469 22 44 Z M 17.71875 44.28125 L 17.71875 41.71875 L 20.28125 41.71875 L 20.28125 44.28125 Z "></path>
</g>
</svg>