<svg xmlns="http://www.w3.org/2000/svg" xmlns:xlink="http://www.w3.org/1999/xlink" viewBox="0 0 64 64" version="1.1">
<g id="surface1">
<path style=" fill:#F9E3AE;" d="M 59 31 C 59 46.464844 46.464844 59 31 59 C 15.535156 59 3 46.464844 3 31 C 3 15.535156 15.535156 3 31 3 C 46.464844 3 59 15.535156 59 31 Z "></path>
<path style=" fill:#FAEFDE;" d="M 43.671875 10.261719 C 44.347656 9.582031 44.664063 8.625 44.515625 7.675781 C 44.371094 6.730469 43.78125 5.910156 42.929688 5.46875 C 30.167969 -0.828125 14.710938 3.445313 7 15.410156 C 6.417969 16.339844 6.390625 17.515625 6.929688 18.46875 C 7.464844 19.425781 8.484375 20.011719 9.578125 20 C 10.582031 19.996094 11.519531 19.488281 12.070313 18.648438 C 18.113281 9.296875 30.191406 5.933594 40.199219 10.820313 C 41.355469 11.402344 42.753906 11.175781 43.671875 10.261719 Z "></path>
<path style=" fill:#F6D397;" d="M 52.511719 26.371094 C 53.839844 32.539063 52.601563 39.660156 47.28125 46.671875 C 47.101563 46.902344 46.894531 47.113281 46.660156 47.289063 C 39.660156 52.601563 32.539063 53.828125 26.371094 52.511719 C 25.382813 52.304688 24.355469 52.609375 23.640625 53.320313 C 22.855469 54.101563 22.5625 55.253906 22.882813 56.3125 C 23.203125 57.375 24.082031 58.171875 25.171875 58.390625 C 33.101563 60.070313 42.28125 58.390625 51.171875 51.789063 C 51.421875 51.601563 51.644531 51.378906 51.828125 51.128906 C 58.441406 42.261719 60.109375 33.128906 58.429688 25.128906 C 58.214844 24.042969 57.414063 23.164063 56.355469 22.84375 C 55.292969 22.523438 54.140625 22.8125 53.359375 23.601563 C 52.621094 24.316406 52.300781 25.363281 52.511719 26.371094 Z "></path>
<path style=" fill:#FAEFDE;" d="M 27.101563 43.101563 C 33.050781 43.101563 37.199219 39.300781 37.199219 33.851563 C 37.199219 33.378906 36.820313 33 36.351563 33 L 17.851563 33 C 17.378906 33 17 33.378906 17 33.851563 C 16.964844 35.777344 17.539063 37.667969 18.640625 39.25 C 18.6875 39.339844 18.753906 39.421875 18.828125 39.488281 C 20.867188 41.925781 23.929688 43.261719 27.101563 43.101563 Z "></path>
<path style=" fill:#8D6C9F;" d="M 31 2 C 14.984375 2 2 14.984375 2 31 C 2 47.015625 14.984375 60 31 60 C 47.015625 60 60 47.015625 60 31 C 60 14.984375 47.015625 2 31 2 Z M 31 58 C 16.089844 58 4 45.910156 4 31 C 4 16.089844 16.089844 4 31 4 C 45.910156 4 58 16.089844 58 31 C 58 45.910156 45.910156 58 31 58 Z "></path>
<path style=" fill:#8D6C9F;" d="M 41.210938 49.359375 C 36.972656 51.691406 32.0625 52.503906 27.300781 51.671875 C 26.746094 51.574219 26.222656 51.941406 26.125 52.496094 C 26.027344 53.046875 26.398438 53.574219 26.949219 53.671875 C 32.175781 54.589844 37.554688 53.683594 42.191406 51.101563 C 42.671875 50.824219 42.839844 50.207031 42.566406 49.726563 C 42.289063 49.242188 41.671875 49.074219 41.191406 49.351563 Z "></path>
<path style=" fill:#8D6C9F;" d="M 46.429688 45.25 C 45.898438 45.828125 45.332031 46.375 44.738281 46.890625 C 44.433594 47.261719 44.433594 47.800781 44.742188 48.167969 C 45.050781 48.539063 45.578125 48.636719 46 48.398438 C 46.667969 47.835938 47.300781 47.234375 47.898438 46.601563 C 48.277344 46.195313 48.25 45.5625 47.84375 45.183594 C 47.4375 44.808594 46.804688 44.835938 46.429688 45.238281 Z "></path>
<path style=" fill:#8D6C9F;" d="M 18 25 C 18 25.550781 18.449219 26 19 26 C 19.550781 26 20 25.550781 20 25 C 20 22.238281 17.761719 20 15 20 C 12.238281 20 10 22.238281 10 25 C 10 25.550781 10.449219 26 11 26 C 11.550781 26 12 25.550781 12 25 C 12 23.34375 13.34375 22 15 22 C 16.65625 22 18 23.34375 18 25 Z "></path>
<path style=" fill:#8D6C9F;" d="M 27.101563 44 C 34.101563 44 39 39.519531 39 33.101563 C 39 32.546875 38.550781 32.101563 38 32.101563 L 16.199219 32.101563 C 15.648438 32.101563 15.199219 32.546875 15.199219 33.101563 C 15.15625 35.371094 15.832031 37.597656 17.128906 39.460938 C 17.1875 39.566406 17.261719 39.660156 17.351563 39.738281 C 19.410156 42.421875 22.828125 44 27.101563 44 Z M 37 34.101563 C 36.53125 38.871094 32.691406 42 27.148438 42 C 23.570313 42 20.75 40.761719 19.050781 38.621094 L 19.050781 37 C 19.050781 36.449219 18.601563 36 18.050781 36 C 17.929688 36.003906 17.8125 36.027344 17.699219 36.070313 C 17.488281 35.421875 17.351563 34.75 17.289063 34.070313 Z "></path>
<path style=" fill:#8D6C9F;" d="M 39 20 C 36.238281 20 34 22.238281 34 25 C 34 25.550781 34.449219 26 35 26 C 35.550781 26 36 25.550781 36 25 C 36 23.34375 37.34375 22 39 22 C 40.65625 22 42 23.34375 42 25 C 42 25.550781 42.449219 26 43 26 C 43.550781 26 44 25.550781 44 25 C 44 22.238281 41.761719 20 39 20 Z "></path>
<path style=" fill:#8D6C9F;" d="M 23 40 C 23.550781 40 24 39.550781 24 39 L 24 37 C 24 36.449219 23.550781 36 23 36 C 22.449219 36 22 36.449219 22 37 L 22 39 C 22 39.550781 22.449219 40 23 40 Z "></path>
<path style=" fill:#8D6C9F;" d="M 33 40 C 33.550781 40 34 39.550781 34 39 L 34 37 C 34 36.449219 33.550781 36 33 36 C 32.449219 36 32 36.449219 32 37 L 32 39 C 32 39.550781 32.449219 40 33 40 Z "></path>
<path style=" fill:#8D6C9F;" d="M 28 40 C 28.550781 40 29 39.550781 29 39 L 29 37 C 29 36.449219 28.550781 36 28 36 C 27.449219 36 27 36.449219 27 37 L 27 39 C 27 39.550781 27.449219 40 28 40 Z "></path>
</g>
</svg>