<svg xmlns="http://www.w3.org/2000/svg" xmlns:xlink="http://www.w3.org/1999/xlink" viewBox="0 0 64 64" version="1.1">
<g id="surface1">
<path style=" fill:#C5E4FA;" d="M 5 9 L 59 9 L 59 45 L 5 45 Z "></path>
<path style=" fill:#E3F2FF;" d="M 59 12.511719 L 26.511719 45 L 43.761719 45 L 59 29.761719 Z "></path>
<path style=" fill:#E3F2FF;" d="M 15.898438 45 L 23.601563 45 L 59.519531 9.078125 L 51.820313 9.078125 Z "></path>
<path style=" fill:#E3F2FF;" d="M 12.898438 45 L 10.601563 45 L 46.519531 9.078125 L 48.820313 9.078125 Z "></path>
<path style=" fill:#CED8ED;" d="M 5 45 L 59 45 L 59 52 C 59 53.65625 57.65625 55 56 55 L 8 55 C 6.34375 55 5 53.65625 5 52 Z "></path>
<path style=" fill:#ED7899;" d="M 33 35 L 39 35 L 39 44 L 33 44 Z "></path>
<path style=" fill:#72CAAF;" d="M 39 37 L 45 37 L 45 44 L 39 44 Z "></path>
<path style=" fill:#FFEB9B;" d="M 27 39 L 33 39 L 33 44 L 27 44 Z "></path>
<path style=" fill:#85CBF8;" d="M 21 39 L 27 39 L 27 44 L 21 44 Z "></path>
<path style=" fill:#FFF8F8;" d="M 15 41 L 21 41 L 21 44 L 15 44 Z "></path>
<path style=" fill:#FAEFDE;" d="M 45 31 L 51 31 L 51 44 L 45 44 Z "></path>
<path style=" fill:#FFF8F8;" d="M 44 25 C 44 26.105469 43.105469 27 42 27 C 40.894531 27 40 26.105469 40 25 C 40 23.894531 40.894531 23 42 23 C 43.105469 23 44 23.894531 44 25 Z "></path>
<path style=" fill:#FFF8F8;" d="M 38 20 C 38 21.105469 37.105469 22 36 22 C 34.894531 22 34 21.105469 34 20 C 34 18.894531 34.894531 18 36 18 C 37.105469 18 38 18.894531 38 20 Z "></path>
<path style=" fill:#FFF8F8;" d="M 31 29 C 31 30.105469 30.105469 31 29 31 C 27.894531 31 27 30.105469 27 29 C 27 27.894531 27.894531 27 29 27 C 30.105469 27 31 27.894531 31 29 Z "></path>
<path style=" fill:#FFF8F8;" d="M 25 24 C 25 25.105469 24.105469 26 23 26 C 21.894531 26 21 25.105469 21 24 C 21 22.894531 21.894531 22 23 22 C 24.105469 22 25 22.894531 25 24 Z "></path>
<path style=" fill:#FFF8F8;" d="M 17 31 C 17 32.105469 16.105469 33 15 33 C 13.894531 33 13 32.105469 13 31 C 13 29.894531 13.894531 29 15 29 C 16.105469 29 17 29.894531 17 31 Z "></path>
<path style=" fill:#8D6C9F;" d="M 57 8 L 7 8 C 5.34375 8 4 9.34375 4 11 L 4 53 C 4 54.65625 5.34375 56 7 56 L 57 56 C 58.65625 56 60 54.65625 60 53 L 60 11 C 60 9.34375 58.65625 8 57 8 Z M 7 10 L 57 10 C 57.550781 10 58 10.449219 58 11 L 58 44 L 52 44 L 52 31 C 52 30.449219 51.550781 30 51 30 L 45 30 C 44.449219 30 44 30.449219 44 31 L 44 36 L 40 36 L 40 35 C 40 34.449219 39.550781 34 39 34 L 33 34 C 32.449219 34 32 34.449219 32 35 L 32 38 L 21 38 C 20.449219 38 20 38.449219 20 39 L 20 40 L 15 40 C 14.449219 40 14 40.449219 14 41 L 14 44 L 6 44 L 6 11 C 6 10.449219 6.449219 10 7 10 Z M 40 44 L 40 38 L 44 38 L 44 44 Z M 34 44 L 34 36 L 38 36 L 38 44 Z M 28 44 L 28 40 L 32 40 L 32 44 Z M 22 44 L 22 40 L 26 40 L 26 44 Z M 16 44 L 16 42 L 20 42 L 20 44 Z M 46 37 L 46 32 L 50 32 L 50 44 L 46 44 Z M 57 54 L 7 54 C 6.449219 54 6 53.550781 6 53 L 6 46 L 58 46 L 58 53 C 58 53.550781 57.550781 54 57 54 Z "></path>
<path style=" fill:#8D6C9F;" d="M 20 48 C 19.449219 48 19 48.449219 19 49 L 19 51 C 19 51.550781 19.449219 52 20 52 C 20.550781 52 21 51.550781 21 51 L 21 49 C 21 48.449219 20.550781 48 20 48 Z "></path>
<path style=" fill:#8D6C9F;" d="M 15 48 C 14.449219 48 14 48.449219 14 49 L 14 51 C 14 51.550781 14.449219 52 15 52 C 15.550781 52 16 51.550781 16 51 L 16 49 C 16 48.449219 15.550781 48 15 48 Z "></path>
<path style=" fill:#8D6C9F;" d="M 10 48 C 9.449219 48 9 48.449219 9 49 L 9 51 C 9 51.550781 9.449219 52 10 52 C 10.550781 52 11 51.550781 11 51 L 11 49 C 11 48.449219 10.550781 48 10 48 Z "></path>
<path style=" fill:#8D6C9F;" d="M 35 48 C 34.449219 48 34 48.449219 34 49 L 34 51 C 34 51.550781 34.449219 52 35 52 C 35.550781 52 36 51.550781 36 51 L 36 49 C 36 48.449219 35.550781 48 35 48 Z "></path>
<path style=" fill:#8D6C9F;" d="M 40 48 C 39.449219 48 39 48.449219 39 49 L 39 51 C 39 51.550781 39.449219 52 40 52 C 40.550781 52 41 51.550781 41 51 L 41 49 C 41 48.449219 40.550781 48 40 48 Z "></path>
<path style=" fill:#8D6C9F;" d="M 45 48 C 44.449219 48 44 48.449219 44 49 L 44 51 C 44 51.550781 44.449219 52 45 52 C 45.550781 52 46 51.550781 46 51 L 46 49 C 46 48.449219 45.550781 48 45 48 Z "></path>
<path style=" fill:#8D6C9F;" d="M 50 48 C 49.449219 48 49 48.449219 49 49 L 49 51 C 49 51.550781 49.449219 52 50 52 C 50.550781 52 51 51.550781 51 51 L 51 49 C 51 48.449219 50.550781 48 50 48 Z "></path>
<path style=" fill:#8D6C9F;" d="M 55 48 C 54.449219 48 54 48.449219 54 49 L 54 51 C 54 51.550781 54.449219 52 55 52 C 55.550781 52 56 51.550781 56 51 L 56 49 C 56 48.449219 55.550781 48 55 48 Z "></path>
<path style=" fill:#8D6C9F;" d="M 25 48 C 24.449219 48 24 48.449219 24 49 L 24 51 C 24 51.550781 24.449219 52 25 52 C 25.550781 52 26 51.550781 26 51 L 26 49 C 26 48.449219 25.550781 48 25 48 Z "></path>
<path style=" fill:#8D6C9F;" d="M 30 48 C 29.449219 48 29 48.449219 29 49 L 29 51 C 29 51.550781 29.449219 52 30 52 C 30.550781 52 31 51.550781 31 51 L 31 49 C 31 48.449219 30.550781 48 30 48 Z "></path>
<path style=" fill:#8D6C9F;" d="M 15 34 C 15.992188 33.996094 16.921875 33.503906 17.476563 32.679688 C 18.035156 31.859375 18.148438 30.8125 17.78125 29.890625 L 21.539063 26.609375 C 22.460938 27.167969 23.617188 27.167969 24.539063 26.609375 L 26.199219 28 C 26.078125 28.320313 26.007813 28.65625 26 29 C 25.996094 30.296875 26.824219 31.449219 28.054688 31.859375 C 29.285156 32.265625 30.636719 31.839844 31.410156 30.800781 C 32.179688 29.757813 32.199219 28.339844 31.449219 27.28125 L 35 22.820313 C 35.828125 23.125 36.75 23.035156 37.5 22.570313 L 39.199219 24 C 39.078125 24.320313 39.007813 24.65625 39 25 C 39 26.65625 40.34375 28 42 28 C 43.65625 28 45 26.65625 45 25 C 44.996094 24.503906 44.867188 24.015625 44.628906 23.578125 L 50.011719 17.578125 L 50.011719 21.460938 C 50.011719 22.011719 50.457031 22.460938 51.011719 22.460938 C 51.5625 22.460938 52.011719 22.011719 52.011719 21.460938 L 52.011719 15 C 51.984375 14.738281 51.875 14.496094 51.699219 14.300781 C 51.660156 14.273438 51.621094 14.25 51.578125 14.230469 C 51.46875 14.132813 51.328125 14.078125 51.179688 14.070313 C 51.121094 14.039063 51.0625 14.015625 51 14 L 44.511719 14 C 43.957031 14 43.511719 14.449219 43.511719 15 C 43.511719 15.550781 43.957031 16 44.511719 16 L 48.75 16 L 43.140625 22.230469 C 42.269531 21.863281 41.277344 21.9375 40.46875 22.429688 L 38.800781 21 C 38.921875 20.679688 38.992188 20.34375 39 20 C 39 18.34375 37.65625 17 36 17 C 34.34375 17 33 18.34375 33 20 C 33.003906 20.558594 33.164063 21.105469 33.460938 21.578125 L 29.820313 26.128906 C 29.035156 25.882813 28.179688 25.996094 27.480469 26.429688 L 25.800781 25 C 25.921875 24.679688 25.992188 24.34375 26 24 C 26.011719 22.785156 25.289063 21.683594 24.171875 21.210938 C 23.054688 20.738281 21.761719 20.984375 20.894531 21.835938 C 20.03125 22.6875 19.765625 23.976563 20.21875 25.101563 L 16.460938 28.390625 C 16.015625 28.136719 15.511719 28.003906 15 28 C 13.34375 28 12 29.34375 12 31 C 12 32.65625 13.34375 34 15 34 Z M 43 25 C 43 25.550781 42.550781 26 42 26 C 41.449219 26 41 25.550781 41 25 C 41 24.449219 41.449219 24 42 24 C 42.550781 24 43 24.449219 43 25 Z M 36 19 C 36.550781 19 37 19.449219 37 20 C 37 20.550781 36.550781 21 36 21 C 35.449219 21 35 20.550781 35 20 C 35 19.449219 35.449219 19 36 19 Z M 30 29 C 30 29.550781 29.550781 30 29 30 C 28.449219 30 28 29.550781 28 29 C 28 28.449219 28.449219 28 29 28 C 29.550781 28 30 28.449219 30 29 Z M 23 23 C 23.550781 23 24 23.449219 24 24 C 24 24.550781 23.550781 25 23 25 C 22.449219 25 22 24.550781 22 24 C 22 23.449219 22.449219 23 23 23 Z M 15 30 C 15.550781 30 16 30.449219 16 31 C 16 31.550781 15.550781 32 15 32 C 14.449219 32 14 31.550781 14 31 C 14 30.449219 14.449219 30 15 30 Z "></path>
<path style=" fill:#FFF8F8;" d="M 13.5 13 L 14.738281 15.261719 L 17 16.5 L 14.738281 17.738281 L 13.5 20 L 12.261719 17.738281 L 10 16.5 L 12.261719 15.261719 Z "></path>
<path style=" fill:#FFF8F8;" d="M 26.421875 14.160156 L 27.269531 15.730469 L 28.839844 16.578125 L 27.269531 17.441406 L 26.421875 19 L 25.558594 17.441406 L 24 16.578125 L 25.558594 15.730469 Z "></path>
<path style=" fill:#FFF8F8;" d="M 10.648438 24.699219 L 11.230469 25.769531 L 12.300781 26.351563 L 11.230469 26.929688 L 10.648438 28 L 10.058594 26.929688 L 9 26.351563 L 10.058594 25.769531 Z "></path>
</g>
</svg>