<!--?xml version="1.0" encoding="UTF-8"?-->
<svg xmlns="http://www.w3.org/2000/svg" xmlns:xlink="http://www.w3.org/1999/xlink" viewBox="0 0 64 64" version="1.1">
<g id="surface1">
<path style=" fill:#FAEFDE;" d="M 57 53 L 6 53 C 4.34375 53 3 51.65625 3 50 L 3 12 C 3 10.34375 4.34375 9 6 9 L 21 9 L 30 15 L 54 15 C 55.65625 15 57 16.34375 57 18 Z "></path>
<path style=" fill:#FFF7F0;" d="M 6 9 L 22 9 L 29 16 L 3 16 L 3 12 C 3 10.34375 4.34375 9 6 9 Z "></path>
<path style=" fill:#CDA1A7;" d="M 57 19 L 61 19 C 62.105469 19 63 19.894531 63 21 L 63 50 C 63 51.65625 61.65625 53 60 53 L 57 53 Z "></path>
<path style=" fill:#EFD8BE;" d="M 3 43 L 57 43 L 57 53 L 6 53 C 4.34375 53 3 51.65625 3 50 Z "></path>
<path style=" fill:#8D6C9F;" d="M 61 18 L 58 18 L 58 17 C 58 15.34375 56.65625 14 55 14 L 29.710938 14 C 28.917969 14 28.160156 13.6875 27.601563 13.128906 L 23.871094 9.449219 C 22.9375 8.523438 21.675781 8.003906 20.359375 8 L 5 8 C 3.34375 8 2 9.34375 2 11 L 2 50 C 2 52.210938 3.789063 54 6 54 L 60 54 C 62.210938 54 64 52.210938 64 50 L 64 21 C 64 19.34375 62.65625 18 61 18 Z M 6 52 C 4.894531 52 4 51.105469 4 50 L 4 44 L 25 44 C 25.550781 44 26 43.550781 26 43 C 26 42.449219 25.550781 42 25 42 L 4 42 L 4 11 C 4 10.449219 4.449219 10 5 10 L 20.359375 10 C 21.152344 10 21.910156 10.3125 22.46875 10.871094 L 26.191406 14.558594 C 27.128906 15.484375 28.394531 16.003906 29.710938 16 L 55 16 C 55.550781 16 56 16.449219 56 17 L 56 42 L 39 42 C 38.449219 42 38 42.449219 38 43 C 38 43.550781 38.449219 44 39 44 L 56 44 L 56 50 C 56.027344 50.710938 56.242188 51.402344 56.628906 52 Z M 62 50 C 62 51.105469 61.105469 52 60 52 C 58.945313 51.882813 58.117188 51.054688 58 50 L 58 20 L 61 20 C 61.550781 20 62 20.449219 62 21 Z "></path>
<path style=" fill:#8D6C9F;" d="M 6 46 C 5.449219 46 5 46.449219 5 47 L 5 49 C 5 49.550781 5.449219 50 6 50 C 6.550781 50 7 49.550781 7 49 L 7 47 C 7 46.449219 6.550781 46 6 46 Z "></path>
<path style=" fill:#8D6C9F;" d="M 11 46 C 10.449219 46 10 46.449219 10 47 L 10 49 C 10 49.550781 10.449219 50 11 50 C 11.550781 50 12 49.550781 12 49 L 12 47 C 12 46.449219 11.550781 46 11 46 Z "></path>
<path style=" fill:#8D6C9F;" d="M 16 46 C 15.449219 46 15 46.449219 15 47 L 15 49 C 15 49.550781 15.449219 50 16 50 C 16.550781 50 17 49.550781 17 49 L 17 47 C 17 46.449219 16.550781 46 16 46 Z "></path>
<path style=" fill:#8D6C9F;" d="M 21 46 C 20.449219 46 20 46.449219 20 47 L 20 49 C 20 49.550781 20.449219 50 21 50 C 21.550781 50 22 49.550781 22 49 L 22 47 C 22 46.449219 21.550781 46 21 46 Z "></path>
<path style=" fill:#8D6C9F;" d="M 26 46 C 25.449219 46 25 46.449219 25 47 L 25 49 C 25 49.550781 25.449219 50 26 50 C 26.550781 50 27 49.550781 27 49 L 27 47 C 27 46.449219 26.550781 46 26 46 Z "></path>
<path style=" fill:#8D6C9F;" d="M 38 46 C 37.449219 46 37 46.449219 37 47 L 37 49 C 37 49.550781 37.449219 50 38 50 C 38.550781 50 39 49.550781 39 49 L 39 47 C 39 46.449219 38.550781 46 38 46 Z "></path>
<path style=" fill:#8D6C9F;" d="M 43 46 C 42.449219 46 42 46.449219 42 47 L 42 49 C 42 49.550781 42.449219 50 43 50 C 43.550781 50 44 49.550781 44 49 L 44 47 C 44 46.449219 43.550781 46 43 46 Z "></path>
<path style=" fill:#8D6C9F;" d="M 48 46 C 47.449219 46 47 46.449219 47 47 L 47 49 C 47 49.550781 47.449219 50 48 50 C 48.550781 50 49 49.550781 49 49 L 49 47 C 49 46.449219 48.550781 46 48 46 Z "></path>
<path style=" fill:#8D6C9F;" d="M 53 46 C 52.449219 46 52 46.449219 52 47 L 52 49 C 52 49.550781 52.449219 50 53 50 C 53.550781 50 54 49.550781 54 49 L 54 47 C 54 46.449219 53.550781 46 53 46 Z "></path>
<path style=" fill:#C2CDE7;" d="M 29 61 L 29 34 L 25 38 L 21 34 L 32 23 L 43 34 L 39 38 L 35 34 L 35 61 Z "></path>
<path style=" fill:#8D6C9F;" d="M 31.289063 22.289063 L 20.289063 33.289063 C 19.902344 33.679688 19.902344 34.308594 20.289063 34.699219 L 24.289063 38.699219 C 24.679688 39.085938 25.308594 39.085938 25.699219 38.699219 L 28 36.410156 L 28 61 C 28 61.550781 28.449219 62 29 62 L 35 62 C 35.550781 62 36 61.550781 36 61 L 36 36.410156 L 38.289063 38.699219 C 38.679688 39.085938 39.308594 39.085938 39.699219 38.699219 L 43.699219 34.699219 C 44.085938 34.308594 44.085938 33.679688 43.699219 33.289063 L 32.699219 22.289063 C 32.308594 21.902344 31.679688 21.902344 31.289063 22.289063 Z M 41.589844 34 L 39 36.589844 L 35.710938 33.300781 C 35.425781 33.011719 34.996094 32.925781 34.621094 33.078125 C 34.246094 33.230469 34 33.59375 34 34 L 34 60 L 30 60 L 30 34 C 30.003906 33.59375 29.757813 33.226563 29.382813 33.070313 C 29.007813 32.914063 28.574219 33 28.289063 33.289063 L 25 36.589844 L 22.410156 34 L 32 24.410156 Z "></path>
</g>
</svg>