<!--?xml version="1.0" encoding="UTF-8"?-->
<svg xmlns="http://www.w3.org/2000/svg" xmlns:xlink="http://www.w3.org/1999/xlink" viewBox="0 0 64 64" version="1.1">
<g id="surface1">
<path style=" fill:#ED7899;" d="M 60.488281 59 L 3.488281 59 C 2.777344 58.996094 2.121094 58.613281 1.765625 57.996094 C 1.414063 57.375 1.414063 56.617188 1.769531 56 L 30.320313 7.898438 C 30.679688 7.292969 31.335938 6.921875 32.039063 6.921875 C 32.746094 6.921875 33.398438 7.292969 33.761719 7.898438 L 62.210938 56 C 62.566406 56.617188 62.566406 57.375 62.214844 57.996094 C 61.859375 58.613281 61.203125 58.996094 60.488281 59 Z "></path>
<path style=" fill:#FFEFB8;" d="M 53.941406 53 L 32.039063 16 L 10.089844 53 Z "></path>
<path style=" fill:#FFF6DF;" d="M 19 53 L 20.75 53 L 35.949219 22.601563 L 35 21 Z "></path>
<path style=" fill:#FFF6DF;" d="M 24 53 L 29.25 53 L 40.558594 30.390625 L 37.710938 25.578125 Z "></path>
<path style=" fill:#FFF6DF;" d="M 32.25 53 L 51.5 53 L 52.621094 50.769531 L 42.179688 33.140625 Z "></path>
<path style=" fill:#8D6C9F;" d="M 33.71875 16.941406 C 33.359375 16.332031 32.707031 15.960938 32 15.960938 C 31.292969 15.960938 30.640625 16.332031 30.28125 16.941406 L 10 51 C 9.644531 51.617188 9.644531 52.375 9.996094 52.996094 C 10.351563 53.613281 11.007813 53.996094 11.71875 54 L 13 54 C 13.550781 54 14 53.550781 14 53 C 14 52.449219 13.550781 52 13 52 L 11.761719 52 L 32 18 L 52.238281 52 L 51 52 C 50.449219 52 50 52.449219 50 53 C 50 53.550781 50.449219 54 51 54 L 52.238281 54 C 52.960938 54.011719 53.628906 53.632813 53.992188 53.011719 C 54.355469 52.390625 54.359375 51.625 54 51 Z "></path>
<path style=" fill:#8D6C9F;" d="M 63.070313 55.46875 L 34.578125 7.390625 C 34.039063 6.480469 33.058594 5.921875 32 5.921875 C 30.941406 5.921875 29.960938 6.480469 29.421875 7.390625 L 0.929688 55.46875 C 0.378906 56.398438 0.371094 57.546875 0.902344 58.484375 C 1.4375 59.421875 2.433594 60 3.511719 60 L 60.511719 60 C 61.589844 60 62.582031 59.421875 63.117188 58.484375 C 63.648438 57.546875 63.640625 56.398438 63.089844 55.46875 Z M 61.359375 57.46875 C 61.179688 57.78125 60.847656 57.972656 60.488281 57.96875 L 3.488281 57.96875 C 3.128906 57.96875 2.800781 57.777344 2.621094 57.464844 C 2.445313 57.152344 2.445313 56.769531 2.628906 56.460938 L 31.140625 8.410156 C 31.320313 8.105469 31.648438 7.921875 32 7.921875 C 32.351563 7.921875 32.679688 8.105469 32.859375 8.410156 L 61.351563 56.488281 C 61.535156 56.800781 61.539063 57.1875 61.359375 57.5 Z "></path>
<path style=" fill:#8D6C9F;" d="M 17 50 C 16.449219 50 16 50.449219 16 51 L 16 53 C 16 53.550781 16.449219 54 17 54 C 17.550781 54 18 53.550781 18 53 L 18 51 C 18 50.449219 17.550781 50 17 50 Z "></path>
<path style=" fill:#8D6C9F;" d="M 32 50 C 31.449219 50 31 50.449219 31 51 L 31 53 C 31 53.550781 31.449219 54 32 54 C 32.550781 54 33 53.550781 33 53 L 33 51 C 33 50.449219 32.550781 50 32 50 Z "></path>
<path style=" fill:#8D6C9F;" d="M 37 50 C 36.449219 50 36 50.449219 36 51 L 36 53 C 36 53.550781 36.449219 54 37 54 C 37.550781 54 38 53.550781 38 53 L 38 51 C 38 50.449219 37.550781 50 37 50 Z "></path>
<path style=" fill:#8D6C9F;" d="M 42 50 C 41.449219 50 41 50.449219 41 51 L 41 53 C 41 53.550781 41.449219 54 42 54 C 42.550781 54 43 53.550781 43 53 L 43 51 C 43 50.449219 42.550781 50 42 50 Z "></path>
<path style=" fill:#8D6C9F;" d="M 47 50 C 46.449219 50 46 50.449219 46 51 L 46 53 C 46 53.550781 46.449219 54 47 54 C 47.550781 54 48 53.550781 48 53 L 48 51 C 48 50.449219 47.550781 50 47 50 Z "></path>
<path style=" fill:#8D6C9F;" d="M 22 50 C 21.449219 50 21 50.449219 21 51 L 21 53 C 21 53.550781 21.449219 54 22 54 C 22.550781 54 23 53.550781 23 53 L 23 51 C 23 50.449219 22.550781 50 22 50 Z "></path>
<path style=" fill:#8D6C9F;" d="M 27 50 C 26.449219 50 26 50.449219 26 51 L 26 53 C 26 53.550781 26.449219 54 27 54 C 27.550781 54 28 53.550781 28 53 L 28 51 C 28 50.449219 27.550781 50 27 50 Z "></path>
<path style=" fill:#8D6C9F;" d="M 32 42 C 32.550781 42 33 41.550781 33 41 L 33.878906 28.070313 C 33.921875 27.535156 33.734375 27.003906 33.371094 26.609375 C 33.085938 26.308594 32.710938 26.113281 32.300781 26.050781 C 32.125 26.027344 31.945313 26.027344 31.769531 26.050781 C 31.308594 26.082031 30.871094 26.285156 30.550781 26.621094 C 30.183594 27.015625 30 27.542969 30.039063 28.078125 L 31 41 C 31 41.550781 31.449219 42 32 42 Z "></path>
<path style=" fill:#8D6C9F;" d="M 34.039063 46 C 34.039063 47.105469 33.144531 48 32.039063 48 C 30.933594 48 30.039063 47.105469 30.039063 46 C 30.039063 44.894531 30.933594 44 32.039063 44 C 33.144531 44 34.039063 44.894531 34.039063 46 Z "></path>
</g>
</svg>