<!--?xml version="1.0" encoding="UTF-8"?-->
<svg xmlns="http://www.w3.org/2000/svg" xmlns:xlink="http://www.w3.org/1999/xlink" viewBox="0 0 64 64" version="1.1">
<g id="surface1">
<path style=" fill:#FAEFDE;" d="M 21.238281 4.941406 L 50 4.941406 C 51.65625 4.941406 53 6.28125 53 7.941406 L 53 55.941406 C 53 57.597656 51.65625 58.941406 50 58.941406 L 12 58.941406 C 10.34375 58.941406 9 57.597656 9 55.941406 L 9 17.179688 C 9 16.382813 9.316406 15.621094 9.878906 15.058594 L 19.121094 5.820313 C 19.683594 5.257813 20.445313 4.941406 21.238281 4.941406 Z "></path>
<path style=" fill:#FFF7F0;" d="M 9 59 L 8.851563 49.539063 L 52.339844 6.058594 L 53 29 L 23 59 Z "></path>
<path style=" fill:#FFF7F0;" d="M 8.851563 39.148438 L 43.058594 4.941406 L 48.808594 5.191406 L 9 45 Z "></path>
<path style=" fill:#FFF7F0;" d="M 8.851563 33.148438 L 37 5 L 40 5 L 8.851563 36.148438 Z "></path>
<path style=" fill:#FFFFFF;" d="M 43.5 21 L 44.738281 23.261719 L 47 24.5 L 44.738281 25.738281 L 43.5 28 L 42.261719 25.738281 L 40 24.5 L 42.261719 23.261719 Z "></path>
<path style=" fill:#FFFFFF;" d="M 26.421875 15 L 27.269531 16.558594 L 28.839844 17.421875 L 27.269531 18.269531 L 26.421875 19.839844 L 25.558594 18.269531 L 24 17.421875 L 25.558594 16.558594 Z "></path>
<path style=" fill:#FFFFFF;" d="M 19.648438 41 L 20.230469 42.058594 L 21.300781 42.648438 L 20.230469 43.230469 L 19.648438 44.300781 L 19.070313 43.230469 L 18 42.648438 L 19.070313 42.058594 Z "></path>
<path style=" fill:#BBDEF9;" d="M 21 5 L 21 17 L 9 17 Z "></path>
<path style=" fill:#F9E3AE;" d="M 29 5 L 37 5 L 37 29 L 29 29 Z "></path>
<path style=" fill:#CED8ED;" d="M 37.230469 41 L 28.769531 41 C 27.855469 41 26.996094 40.582031 26.425781 39.867188 C 25.859375 39.152344 25.644531 38.21875 25.851563 37.328125 L 26.929688 32.660156 C 27.554688 29.9375 29.976563 28.003906 32.769531 28 L 33.21875 28 C 36.015625 28 38.441406 29.925781 39.070313 32.648438 L 40.148438 37.320313 C 40.355469 38.210938 40.148438 39.148438 39.578125 39.863281 C 39.007813 40.582031 38.144531 41 37.230469 41 Z "></path>
<path style=" fill:#8D6C9F;" d="M 36 6 L 36 27.589844 C 35.125 27.207031 34.183594 27.007813 33.230469 27 L 32.78125 27 C 31.824219 27.007813 30.882813 27.207031 30.011719 27.589844 L 30.011719 9 C 30.011719 8.449219 29.5625 8 29.011719 8 C 28.457031 8 28.011719 8.449219 28.011719 9 L 28.011719 28.898438 C 27.007813 29.851563 26.3125 31.082031 26.011719 32.429688 L 24.871094 37.101563 C 24.59375 38.289063 24.878906 39.535156 25.636719 40.492188 C 26.398438 41.445313 27.550781 42 28.769531 42 L 37.230469 42 C 38.449219 42 39.601563 41.445313 40.363281 40.492188 C 41.121094 39.535156 41.40625 38.289063 41.128906 37.101563 L 40 32.429688 C 39.695313 31.082031 39 29.851563 38 28.898438 L 38 6 Z M 38.101563 32.878906 L 39.179688 37.550781 C 39.316406 38.144531 39.175781 38.769531 38.796875 39.246094 C 38.417969 39.722656 37.839844 40 37.230469 40 L 28.769531 40 C 28.160156 40 27.582031 39.722656 27.203125 39.246094 C 26.824219 38.769531 26.683594 38.144531 26.820313 37.550781 L 27.898438 32.878906 C 28.421875 30.609375 30.441406 29 32.769531 29 L 33.21875 29 C 35.550781 28.996094 37.578125 30.605469 38.101563 32.878906 Z "></path>
<path style=" fill:#8D6C9F;" d="M 31 36 L 35 36 C 35.550781 36 36 35.550781 36 35 C 36 34.449219 35.550781 34 35 34 L 31 34 C 30.449219 34 30 34.449219 30 35 C 30 35.550781 30.449219 36 31 36 Z "></path>
<path style=" fill:#8D6C9F;" d="M 17 52 L 13 52 C 12.449219 52 12 52.449219 12 53 C 12 53.550781 12.449219 54 13 54 L 17 54 C 17.550781 54 18 53.550781 18 53 C 18 52.449219 17.550781 52 17 52 Z "></path>
<path style=" fill:#8D6C9F;" d="M 49 52 L 21 52 C 20.449219 52 20 52.449219 20 53 C 20 53.550781 20.449219 54 21 54 L 49 54 C 49.550781 54 50 53.550781 50 53 C 50 52.449219 49.550781 52 49 52 Z "></path>
<path style=" fill:#8D6C9F;" d="M 51 4 L 21.660156 4 C 20.332031 3.996094 19.058594 4.523438 18.121094 5.460938 L 9.460938 14.121094 C 8.523438 15.058594 7.996094 16.332031 8 17.660156 L 8 57 C 8 58.65625 9.34375 60 11 60 L 51 60 C 52.65625 60 54 58.65625 54 57 L 54 7 C 54 5.34375 52.65625 4 51 4 Z M 19.539063 6.878906 C 19.679688 6.738281 19.835938 6.609375 20 6.5 L 20 15 C 20 15.550781 19.550781 16 19 16 L 10.5 16 C 10.609375 15.835938 10.738281 15.679688 10.878906 15.539063 Z M 52 57 C 52 57.550781 51.550781 58 51 58 L 11 58 C 10.449219 58 10 57.550781 10 57 L 10 18 L 19 18 C 20.65625 18 22 16.65625 22 15 L 22 6 L 51 6 C 51.550781 6 52 6.449219 52 7 Z "></path>
<path style=" fill:#8D6C9F;" d="M 32 25 L 34 25 C 34.550781 25 35 24.550781 35 24 C 35 23.449219 34.550781 23 34 23 L 32 23 C 31.449219 23 31 23.449219 31 24 C 31 24.550781 31.449219 25 32 25 Z "></path>
<path style=" fill:#8D6C9F;" d="M 32 10 L 34 10 C 34.550781 10 35 9.550781 35 9 C 35 8.449219 34.550781 8 34 8 L 32 8 C 31.449219 8 31 8.449219 31 9 C 31 9.550781 31.449219 10 32 10 Z "></path>
<path style=" fill:#8D6C9F;" d="M 32 15 L 34 15 C 34.550781 15 35 14.550781 35 14 C 35 13.449219 34.550781 13 34 13 L 32 13 C 31.449219 13 31 13.449219 31 14 C 31 14.550781 31.449219 15 32 15 Z "></path>
<path style=" fill:#8D6C9F;" d="M 32 20 L 34 20 C 34.550781 20 35 19.550781 35 19 C 35 18.449219 34.550781 18 34 18 L 32 18 C 31.449219 18 31 18.449219 31 19 C 31 19.550781 31.449219 20 32 20 Z "></path>
</g>
</svg>